<svg width="394" height="280" viewBox="0 0 394 280" fill="none" xmlns="http://www.w3.org/2000/svg">
<g opacity="0.2">
<path d="M91.7368 178.22V207.932L65.9712 222.79L40.2065 207.932V178.22L65.9712 163.364L91.7368 178.22Z" stroke="#BF9900" stroke-width="1.37043"/>
<path d="M157.709 178.22V207.932L131.943 222.789L106.179 207.932V178.22L131.943 163.364L157.709 178.22Z" stroke="#BF9900" stroke-width="1.37043"/>
<path d="M191.306 233.738V263.45L165.541 278.308L139.776 263.45V233.738L165.541 218.882L191.306 233.738Z" stroke="#BF9900" stroke-width="1.37043"/>
<path d="M257.278 233.738V263.45L231.512 278.307L205.748 263.45V233.738L231.512 218.881L257.278 233.738Z" stroke="#BF9900" stroke-width="1.37043"/>
<path d="M323.25 233.738V263.45L297.484 278.307L271.72 263.45V233.738L297.484 218.881L323.25 233.738Z" stroke="#BF9900" stroke-width="1.37043"/>
<path d="M56.3076 123.922L56.3076 153.634L30.542 168.492L4.77734 153.634L4.77734 123.922L30.542 109.066L56.3076 123.922Z" stroke="#BF9900" stroke-width="1.37043"/>
<path d="M122.28 123.923V153.635L96.5142 168.492L70.7495 153.635V123.923L96.5142 109.067L122.28 123.923Z" stroke="#BF9900" stroke-width="1.37043"/>
<path d="M188.252 123.922V153.634L162.487 168.491L136.722 153.634V123.922L162.487 109.066L188.252 123.922Z" stroke="#BF9900" stroke-width="1.37043"/>
<path d="M221.849 179.441V209.153L196.083 224.01L170.318 209.153V179.441L196.083 164.584L221.849 179.441Z" stroke="#BF9900" stroke-width="1.37043"/>
<path d="M287.821 179.44V209.152L262.055 224.009L236.291 209.152V179.44L262.055 164.583L287.821 179.44Z" stroke="#BF9900" stroke-width="1.37043"/>
<path d="M353.793 179.44V209.152L328.027 224.009L302.263 209.152V179.44L328.027 164.583L353.793 179.44Z" stroke="#BF9900" stroke-width="1.37043"/>
<path d="M91.7368 70.8474V100.559L65.9712 115.417L40.2065 100.559V70.8474L65.9712 55.991L91.7368 70.8474Z" stroke="#BF9900" stroke-width="1.37043"/>
<path d="M157.709 70.8462V100.558L131.943 115.416L106.179 100.558V70.8462L131.943 55.9897L157.709 70.8462Z" stroke="#BF9900" stroke-width="1.37043"/>
<path d="M223.681 70.8462V100.558L197.916 115.416L172.151 100.558V70.8462L197.916 55.9897L223.681 70.8462Z" stroke="#BF9900" stroke-width="1.37043"/>
<path d="M257.278 126.368V156.08L231.513 170.938L205.748 156.08V126.368L231.513 111.512L257.278 126.368Z" stroke="#BF9900" stroke-width="1.37043"/>
<path d="M323.251 126.364V156.076L297.485 170.933L271.72 156.076V126.364L297.485 111.507L323.251 126.364Z" stroke="#BF9900" stroke-width="1.37043"/>
<path d="M389.222 126.364V156.076L363.457 170.933L337.692 156.076V126.364L363.457 111.507L389.222 126.364Z" stroke="#BF9900" stroke-width="1.37043"/>
<path d="M122.279 16.5488V46.2607L96.5137 61.1182L70.749 46.2607V16.5488L96.5137 1.69238L122.279 16.5488Z" stroke="#BF9900" stroke-width="1.37043"/>
<path d="M188.251 16.5483V46.2603L162.486 61.1177L136.721 46.2603V16.5483L162.486 1.69189L188.251 16.5483Z" stroke="#BF9900" stroke-width="1.37043"/>
<path d="M254.224 16.5483V46.2603L228.458 61.1177L202.693 46.2603V16.5483L228.458 1.69189L254.224 16.5483Z" stroke="#BF9900" stroke-width="1.37043"/>
<path d="M287.821 72.0659V101.778L262.055 116.635L236.291 101.778V72.0659L262.055 57.2095L287.821 72.0659Z" stroke="#BF9900" stroke-width="1.37043"/>
<path d="M353.793 72.0649V101.777L328.027 116.634L302.263 101.777V72.0649L328.027 57.2085L353.793 72.0649Z" stroke="#BF9900" stroke-width="1.37043"/>
</g>
</svg>
