<svg width="28" height="20" viewBox="0 0 28 20" fill="none" xmlns="http://www.w3.org/2000/svg">
<path d="M4.55799 19.8755L8.05507 18.9384C9.98337 18.4217 11.1317 16.4326 10.6152 14.5043V14.5042C10.4445 13.8675 10.1127 13.3165 9.67613 12.8817L16.9341 10.937L26.633 13.5359C27.1159 13.6652 27.6122 13.3787 27.7416 12.8958C27.8704 12.4137 27.5844 11.9167 27.1016 11.7873L20.4312 10L27.1015 8.21268C27.5844 8.08325 27.8706 7.58682 27.7415 7.10416C27.6121 6.62128 27.1158 6.33471 26.633 6.46414L16.934 9.06294L9.67613 7.11821C10.1126 6.68339 10.4445 6.13249 10.6152 5.49573V5.49568C11.132 3.56721 9.98337 1.57822 8.05507 1.06155L4.558 0.124491C2.62519 -0.393371 0.641728 0.751491 0.123757 2.68467C-0.392966 4.61313 0.755963 6.60224 2.68388 7.1188C3.05171 7.21736 13.0704 9.90182 13.437 10.0001C13.0503 10.1037 2.99041 12.7992 2.68388 12.8813C0.755909 13.398 -0.392858 15.3867 0.123756 17.3155C0.641673 19.2483 2.62492 20.3934 4.55799 19.8755ZM6.64946 6.3071L3.15239 5.37005C2.18821 5.11174 1.61393 4.11692 1.87229 3.15306C2.13109 2.18683 3.12282 1.61391 4.08939 1.87297L7.58646 2.81003C8.55199 3.06872 9.12464 4.06473 8.86655 5.02707C8.60824 5.99124 7.61358 6.56546 6.64946 6.3071ZM1.87229 16.8469C1.61415 15.8828 2.18821 14.888 3.15239 14.6298L6.64941 13.6927C7.61358 13.4344 8.60819 14.0086 8.86655 14.9728V14.9728C9.12502 15.9368 8.55069 16.9315 7.58646 17.1899L4.08939 18.1269C3.12304 18.3858 2.1312 17.8134 1.87229 16.8469Z" fill="#111111"/>
</svg>
