<svg width="18" height="21" viewBox="0 0 18 21" fill="none" xmlns="http://www.w3.org/2000/svg">
<path d="M16.0527 2.38501H12.5689L12.1881 1.2429C11.9483 0.524189 11.2782 0.0412598 10.5207 0.0412598H7.5223C6.76469 0.0412598 6.09465 0.524189 5.85434 1.2429L5.47391 2.38501H1.99023C1.02094 2.38501 0.232422 3.17353 0.232422 4.14282V5.3147C0.232422 5.96735 0.819961 5.90063 1.45051 5.90063C6.86277 5.90063 11.7698 5.90063 17.2246 5.90063C17.5485 5.90063 17.8105 5.63856 17.8105 5.3147V4.14282C17.8105 3.17353 17.022 2.38501 16.0527 2.38501ZM6.70949 2.38501L6.96613 1.61368C7.04625 1.37392 7.26996 1.21313 7.5223 1.21313H10.5207C10.773 1.21313 10.9968 1.37392 11.0763 1.61368L11.3332 2.38501H6.70949Z" fill="black"/>
<path d="M1.5475 7.15063L2.48176 18.4425C2.56473 19.354 3.31719 20.0413 4.23215 20.0413H13.8109C14.7258 20.0413 15.4783 19.354 15.5618 18.4374L16.4955 7.15063H1.5475ZM6.0918 17.1116C6.0918 17.884 4.91992 17.8871 4.91992 17.1116V8.90845C4.91992 8.13606 6.0918 8.1329 6.0918 8.90845V17.1116ZM9.60742 17.1116C9.60742 17.884 8.43555 17.8871 8.43555 17.1116V8.90845C8.43555 8.13606 9.60742 8.1329 9.60742 8.90845V17.1116ZM13.123 17.1116C13.123 17.884 11.9512 17.8871 11.9512 17.1116V8.90845C11.9512 8.58458 12.2132 8.32251 12.5371 8.32251C12.861 8.32251 13.123 8.58458 13.123 8.90845V17.1116Z" fill="black"/>
</svg>
