<svg width="14" height="10" viewBox="0 0 14 10" fill="none" xmlns="http://www.w3.org/2000/svg">
<path d="M0.116695 4.69636L4.2076 0.150909C4.29488 0.0545454 4.4167 0 4.54579 0H7.27306C7.45215 0 7.61488 0.105455 7.68851 0.269091C7.76124 0.433636 7.73124 0.625454 7.61124 0.758182L3.79397 5L7.61124 9.24091C7.73124 9.37455 7.76215 9.56636 7.68851 9.73C7.61488 9.89455 7.45215 10 7.27306 10H4.54579C4.4167 10 4.29488 9.94455 4.2076 9.85L0.116695 5.30455C-0.0387592 5.13182 -0.0387592 4.86818 0.116695 4.69636Z" fill="#111111"/>
<path d="M6.02579 4.69636L10.1167 0.150909C10.204 0.0545454 10.3258 0 10.4549 0H13.1822C13.3612 0 13.524 0.105455 13.5976 0.269091C13.6703 0.433636 13.6403 0.625454 13.5203 0.758182L9.70306 5L13.5203 9.24091C13.6403 9.37455 13.6712 9.56636 13.5976 9.73C13.524 9.89455 13.3612 10 13.1822 10H10.4549C10.3258 10 10.204 9.94455 10.1167 9.85L6.02579 5.30455C5.87033 5.13182 5.87033 4.86818 6.02579 4.69636Z" fill="#111111"/>
</svg>
