<svg width="30" height="30" viewBox="0 0 30 30" fill="none" xmlns="http://www.w3.org/2000/svg">
<path d="M25.4684 15.9408V7.35211L12.7342 0L0 7.35211V22.0563L12.7342 29.4084L16.8315 27.0429C18.1635 28.8359 20.2968 30 22.697 30C26.7239 30 30 26.7239 30 22.697C30 19.6507 28.1249 17.0345 25.4684 15.9408ZM22.8317 7.85953L12.7342 13.6894L2.63672 7.85953L12.7342 2.02975L22.8317 7.85953ZM1.75781 9.3818L11.8553 15.2116V26.8712L1.75781 21.0414V9.3818ZM13.6131 26.8713V15.2117L23.7106 9.38186V15.4647C23.3792 15.4185 23.0409 15.394 22.697 15.394C18.6701 15.394 15.394 18.6701 15.394 22.6971C15.394 23.6958 15.5957 24.6483 15.9603 25.5161L13.6131 26.8713ZM22.697 28.2422C19.6393 28.2422 17.1518 25.7546 17.1518 22.697C17.1518 19.6393 19.6393 17.1518 22.697 17.1518C25.7546 17.1518 28.2422 19.6394 28.2422 22.697C28.2422 25.7546 25.7546 28.2422 22.697 28.2422Z" fill="#BF9900"/>
<path d="M23.8778 20.3478H23.0519L23.7087 19.6536L22.4319 18.4455L18.9688 22.1056H23.8778C24.3659 22.1056 24.7629 22.5026 24.7629 22.9907C24.7629 23.4788 24.3659 23.8758 23.8778 23.8758H19.5775V25.6336H23.8778C25.3351 25.6336 26.5207 24.448 26.5207 22.9907C26.5208 21.5334 25.3352 20.3478 23.8778 20.3478Z" fill="#BF9900"/>
</svg>
