<svg width="25" height="30" viewBox="0 0 25 30" fill="none" xmlns="http://www.w3.org/2000/svg">
<path d="M19.3054 15.9123V7.02013H14.0403V4.38758C14.0403 1.96827 12.072 0 9.65268 0C7.23337 0 5.2651 1.96827 5.2651 4.38758V7.02013H0V26.4425H13.6669C14.7001 28.0338 16.2575 29.2766 18.1503 29.9075L18.4278 30L18.7054 29.9075C22.2134 28.7381 24.5705 25.468 24.5705 21.7701V15.9123H19.3054ZM7.02013 4.38758C7.02013 2.93599 8.20109 1.75503 9.65268 1.75503C11.1043 1.75503 12.2852 2.93599 12.2852 4.38758V7.02013H7.02013V4.38758ZM1.75503 24.6875V8.77516H5.2651V10.5302H7.02013V8.77516H12.2852V10.5302H14.0403V8.77516H17.5503V15.9123H12.2852V21.7701C12.2852 22.7865 12.4637 23.7705 12.7948 24.6875H1.75503ZM22.8154 21.7701C22.8154 24.6128 21.0643 27.1377 18.4278 28.1435C15.7914 27.1377 14.0403 24.6128 14.0403 21.7701V17.6673H22.8154V21.7701Z" fill="#BF9900"/>
<path d="M21.6809 20.9204L20.4399 19.6794L17.5503 22.569L16.4158 21.4344L15.1748 22.6754L17.5503 25.0509L21.6809 20.9204Z" fill="#BF9900"/>
</svg>
