<svg width="30" height="24" viewBox="0 0 30 24" fill="none" xmlns="http://www.w3.org/2000/svg">
<path d="M15.4854 10.8867H16.7578V9.12894H14.4302L13.5549 5.46753L11.8453 5.87628L12.6229 9.12894H7.70912L8.48672 5.87628L6.77707 5.46753L5.9018 9.12894H3.57422V10.8867H4.84658L5.80055 15.6328H14.5314L15.4854 10.8867ZM13.0918 13.875H7.2402L6.63955 10.8867H13.6925L13.0918 13.875Z" fill="#BF9900"/>
<path d="M30 13.8393L26.9856 5.4375H20.332V0.457031H0V21.668H3.19154C3.55928 22.7566 4.58959 23.543 5.80078 23.543C7.01197 23.543 8.04229 22.7566 8.41002 21.668H18.7189C19.0866 22.7566 20.1169 23.543 21.3281 23.543C22.5393 23.543 23.5696 22.7566 23.9374 21.668H30V13.8393ZM27.3674 11.707H23.8477V7.19531H25.7487L27.3674 11.707ZM5.80078 21.7852C5.25152 21.7852 4.80469 21.3383 4.80469 20.7891C4.80469 20.2398 5.25152 19.793 5.80078 19.793C6.35004 19.793 6.79688 20.2398 6.79688 20.7891C6.79688 21.3383 6.35004 21.7852 5.80078 21.7852ZM5.80078 18.0352C4.58959 18.0352 3.55928 18.8215 3.19154 19.9102H1.75781V2.21484H18.5742V19.9102H8.41002C8.04229 18.8215 7.01197 18.0352 5.80078 18.0352ZM21.3281 21.7852C20.7789 21.7852 20.332 21.3383 20.332 20.7891C20.332 20.2398 20.7789 19.793 21.3281 19.793C21.8774 19.793 22.3242 20.2398 22.3242 20.7891C22.3242 21.3383 21.8774 21.7852 21.3281 21.7852ZM23.9374 19.9102C23.5696 18.8215 22.5393 18.0352 21.3281 18.0352C20.9769 18.0352 20.6412 18.102 20.332 18.2224V7.19531H22.0898V13.4648H27.9981L28.2422 14.1451V16.3359H26.543V18.0938H28.2422V19.9102H23.9374Z" fill="#BF9900"/>
</svg>
