<svg width="65" height="46" viewBox="0 0 65 46" fill="none" xmlns="http://www.w3.org/2000/svg">
<path d="M63.2221 7.74793C62.4911 5.00217 60.8886 2.67811 58.1429 1.94715C53.1668 0.616439 32.7469 0.494614 32.7469 0.494614C32.7469 0.494614 12.327 0.616439 7.3509 1.94715C4.60514 2.67811 3.01203 5.00217 2.2717 7.74793C0.940993 12.724 0.884766 22.9855 0.884766 22.9855C0.884766 22.9855 0.940993 33.247 2.2717 38.2231C3.00266 40.9689 4.60514 43.2929 7.3509 44.0239C12.327 45.3546 32.7469 45.4764 32.7469 45.4764C32.7469 45.4764 53.1668 45.3546 58.1429 44.0239C60.8886 43.2929 62.4911 40.9689 63.2221 38.2231C64.5528 33.247 64.609 22.9855 64.609 22.9855C64.609 22.9855 64.5528 12.724 63.2221 7.74793Z" fill="#FF0033"/>
<path d="M43.0552 22.9856L26.187 13.6143V32.3568" fill="white"/>
</svg>
