<svg width="47" height="48" viewBox="0 0 47 48" fill="none" xmlns="http://www.w3.org/2000/svg">
<g clip-path="url(#clip0_2275_520)">
<rect x="0.036377" y="0.216644" width="46.8561" height="46.8561" rx="23.428" fill="white"/>
<path fill-rule="evenodd" clip-rule="evenodd" d="M23.5582 57.687C23.2181 58.6661 23.2624 60.7485 24.948 60.6938C25.6626 60.669 25.6084 59.9881 25.6576 59.1532C25.7513 57.7119 26.525 55.7885 27.1411 54.064C27.2495 53.7757 28.0874 53.8204 28.1317 54.1981C28.2845 55.3164 28.0331 57.1503 28.6443 58.9494C28.935 59.7794 29.2455 60.4454 30.0193 60.6243C30.6748 60.7734 31.5816 60.5 31.7393 60.0229C31.9315 59.4514 31.005 59.1929 30.6698 58.3083C30.039 56.6632 30.1326 54.2677 30.1869 52.9308C31.7886 50.8087 35.3518 49.0642 36.3966 47.8515C36.6825 47.5086 35.411 46.1518 35.1005 46.2065C33.9226 46.4649 31.5471 49.2034 29.8862 50.7937C29.4821 51.1864 28.2204 51.6088 28.3781 51.241C28.5753 50.749 28.9202 49.9339 29.3441 49.4171C29.5511 49.1586 30.4826 48.1646 30.4579 47.5533C30.4431 47.1856 29.5609 46.4351 28.8069 46.4649C28.4964 46.4649 27.5847 46.9122 27.7916 48.0851C26.4314 50.8782 24.1496 55.9674 23.5582 57.6821V57.687Z" fill="#853135"/>
<path fill-rule="evenodd" clip-rule="evenodd" d="M18.5213 57.866C18.265 58.6015 18.2108 59.5657 18.4918 60.167C18.6544 60.5497 19.1472 61.0368 19.8421 60.8628C20.9757 60.5646 20.5568 58.4524 20.7588 57.7864C22.055 53.731 22.9125 51.8374 24.7903 48.1597C24.8543 48.0354 25.1402 47.8317 24.9775 47.1508C24.8987 46.8079 24.5143 46.3208 23.7504 46.1419C23.0702 45.9779 22.8731 46.455 22.5133 47.3148C20.9905 51.0422 19.9062 54.0242 18.5213 57.866Z" fill="#853135"/>
<path fill-rule="evenodd" clip-rule="evenodd" d="M6.95436 58.3729C6.73259 58.6512 6.11654 59.6452 7.63941 60.4553C8.15689 60.7336 8.94544 60.2615 9.39392 59.4464C10.0938 58.1343 10.7098 56.7527 11.523 55.1126C11.7645 54.6305 12.696 54.6007 12.7157 55.207C12.7699 56.2408 12.5087 56.8769 12.5481 58.5916C12.5727 59.5309 13.1937 61.1014 14.3223 60.51C14.7265 60.2913 15.2341 58.9792 16.2247 57.1155C18.0088 53.7359 19.0142 51.5392 19.8076 47.772C19.8865 47.3446 19.8323 46.3109 18.615 46.0475C18.0778 45.9381 17.5061 46.0624 17.5307 46.614C17.649 49.5811 16.0374 52.3841 15.2834 54.7995C15.1503 55.2567 14.2977 55.1176 14.2829 54.7598C14.2139 53.0501 14.0266 51.1168 14.0316 49.8196C14.0217 48.8654 14.0956 47.2949 13.9626 46.7283C13.864 46.3258 13.174 45.789 12.6368 45.789C11.937 45.789 11.9074 46.3705 11.8778 46.6588C11.5723 49.6258 9.32 55.3263 6.94944 58.3779L6.95436 58.3729Z" fill="#853135"/>
<path fill-rule="evenodd" clip-rule="evenodd" d="M2.92293 49.0145C3.08557 49.0145 3.07079 49.5165 3.01164 49.6556C1.85347 51.7927 0.192596 55.6444 -0.65509 58.3431C-0.886723 59.0786 -0.694515 60.4006 0.384804 60.4006C0.695293 60.4006 1.36556 60.346 1.39513 60.0726C1.41977 59.8142 1.33599 59.2426 1.40498 58.9842C2.5188 54.9834 4.10082 52.1754 5.70748 48.7859C5.8159 48.5523 5.9884 48.433 6.2841 48.433C6.68823 48.4181 7.78234 48.1746 9.34464 48.3386C9.83255 48.3933 9.40378 46.0922 8.59552 46.1618C5.34278 46.4749 2.98207 47.0067 0.626297 46.8973C0.315811 46.8824 0.0693855 47.0613 0.0299606 47.1558C-0.0488968 47.4838 0.143314 48.8157 0.631226 48.8853C0.862858 48.9101 1.7204 49.0195 2.918 49.0195L2.92293 49.0145Z" fill="#853135"/>
<path fill-rule="evenodd" clip-rule="evenodd" d="M-10.7682 60.5448C-10.4971 60.5448 -10.1866 60.2167 -10.157 59.9334C-10.0141 58.517 -9.75292 57.3193 -9.19108 56.2308C-8.94466 55.7289 -8.25468 56.0817 -7.88012 56.2458C-7.75691 56.3004 -7.53021 59.1333 -6.15518 60.6988C-5.80034 61.1063 -4.17889 61.161 -4.31689 60.4801C-4.53867 59.3768 -6.11083 55.9177 -6.00733 55.868C-5.135 55.4307 -2.09911 54.3721 -1.32042 51.9865C-0.827583 50.5154 -0.86208 49.3177 -1.42392 48.1746C-1.76398 47.4689 -3.00594 46.4997 -4.93787 46.4749C-6.15518 46.46 -7.85055 46.9122 -8.39268 47.439C-8.86088 47.8764 -8.54053 48.4579 -8.05755 49.0592C-10.7879 53.8254 -12.8135 59.6253 -12.2516 59.9384C-12.1333 60.2118 -11.7243 60.2515 -11.5518 60.2515C-11.1723 60.2515 -10.916 60.5497 -10.7682 60.5497V60.5448ZM-5.76584 49.0841C-4.73581 48.8406 -4.12961 48.8803 -3.41006 49.2083C-2.95665 49.4121 -2.81373 49.8594 -3.07 50.6248C-3.47413 51.8921 -6.16504 53.7409 -7.58442 53.7409C-7.7717 53.7409 -8.10683 53.7807 -7.97869 53.2936C-7.54499 51.6585 -6.03197 49.1437 -5.76584 49.0891V49.0841Z" fill="#853135"/>
<path fill-rule="evenodd" clip-rule="evenodd" d="M-18.486 54.561C-18.486 54.561 -18.0474 53.6018 -16.8005 52.0064C-16.1106 51.1168 -15.4748 50.3812 -14.977 50.3713C-15.5191 51.6883 -16.1155 53.4328 -16.2929 54.6852C-16.8301 54.8194 -17.4166 54.6703 -18.2593 54.6703C-18.4417 54.6703 -18.486 54.6156 -18.486 54.5659V54.561ZM-23.6806 59.2724L-23.582 59.7794C-23.5771 59.9682 -23.0596 60.2963 -22.4731 60.4702C-21.9951 60.6044 -21.5269 59.9533 -21.448 59.6601C-21.1967 58.6611 -20.5215 57.5976 -19.9892 56.7428C-19.2154 56.6235 -17.4166 56.7179 -16.8892 56.7179C-16.5196 56.7179 -16.564 56.9863 -16.633 58.2735C-16.6625 58.9246 -16.5738 59.178 -16.1943 59.7396C-16.0662 59.9384 -15.6029 60.3261 -15.2284 60.51C-14.9327 60.6541 -14.2525 60.495 -14.2624 60.1919C-14.3708 57.036 -13.5527 50.3812 -11.9263 47.9857C-11.9263 47.946 -11.7538 47.5981 -11.7588 47.5732C-11.7588 47.4689 -12.9465 45.5505 -13.464 45.7741C-16.2683 47.0116 -19.9695 52.3792 -21.3642 55.0132C-22.4978 55.4406 -22.5963 56.2358 -22.5224 57.1702C-23.1877 58.0498 -23.4933 58.686 -23.6855 59.2724H-23.6806Z" fill="#853135"/>
<path fill-rule="evenodd" clip-rule="evenodd" d="M-30.5015 57.4684C-30.3487 56.6384 -29.5207 54.3373 -28.7076 54.1882C-28.4808 54.1484 -27.7564 53.9994 -27.4262 53.9149C-26.2631 53.6266 -25.2577 54.7448 -25.5386 55.3313C-25.785 55.8482 -26.3468 56.2557 -26.677 56.4595C-27.7909 57.1801 -28.9835 57.7268 -30.1171 57.7268C-30.4966 57.7268 -30.5163 57.5777 -30.5064 57.4684H-30.5015ZM-32.6848 58.4872C-32.6552 59.1134 -32.0687 60.4354 -30.7331 60.4354C-29.7869 60.4354 -28.8209 60.3012 -27.2882 59.5905C-25.4893 58.7755 -24.686 57.7367 -24.0995 56.9366C-22.8033 55.1275 -24.0502 52.9209 -24.9127 52.6475C-23.9073 52.2002 -22.1331 51.1615 -21.5515 49.9091C-21.0488 48.7809 -21.3642 47.1856 -22.4928 46.6687C-22.9216 46.4649 -23.5426 46.1767 -24.4741 46.1767C-25.8096 46.1767 -27.2044 46.45 -28.402 46.7631C-29.0673 46.9271 -29.6883 47.2552 -29.9298 47.5931C-30.122 47.8665 -30.4423 48.4927 -29.4567 49.0642C-30.2994 51.3703 -31.9997 55.6195 -33.0002 58.0001C-33.0051 58.1791 -32.6848 58.4375 -32.6798 58.4922L-32.6848 58.4872ZM-27.7958 51.3653C-27.9289 51.3653 -27.9338 51.2858 -27.9338 51.2858C-27.7465 50.3315 -27.4163 50.1576 -27.2142 49.258C-27.1945 49.1487 -27.3966 48.7958 -27.3424 48.766C-27.091 48.6716 -26.4109 48.2193 -25.0753 48.1547C-23.9566 48.0851 -23.4687 48.766 -23.6362 49.2829C-23.789 49.7451 -24.6071 50.2222 -25.8836 50.9031C-26.7658 51.3653 -27.1452 51.3653 -27.7909 51.3653H-27.7958Z" fill="#853135"/>
<path fill-rule="evenodd" clip-rule="evenodd" d="M35.4652 56.6483V59.5756H35.8299V58.2238H36.4804L37.3084 59.5756H37.7273L36.8599 58.2238C37.5302 58.2238 37.7717 57.8113 37.7717 57.3739C37.7569 56.9068 37.4513 56.6483 36.7909 56.6483H35.4652ZM35.8299 57.9405V56.9068H36.7466C37.1507 56.9068 37.3774 57.0509 37.3774 57.4038C37.3774 57.7566 37.195 57.9405 36.7367 57.9405H35.8299ZM33.8289 58.1045C33.8289 59.4862 34.8885 60.664 36.3621 60.7336C37.4957 60.7336 39.0185 59.9036 39.0185 58.0896C39.0185 56.5837 37.7864 55.4903 36.3966 55.4903C35.0758 55.5201 33.8437 56.5539 33.8289 58.1045ZM34.2478 58.1443C34.2478 56.4545 35.5342 55.8482 36.3917 55.8382C37.7125 55.8382 38.6095 56.8471 38.6095 58.0896C38.6095 59.4365 37.6287 60.3807 36.3917 60.3807C35.0758 60.341 34.2478 59.2923 34.2478 58.1443Z" fill="#231F20"/>
<path fill-rule="evenodd" clip-rule="evenodd" d="M26.4265 42.2306L38.7968 34.885C40.9554 33.5282 40.9751 33.5232 40.9998 30.8594V15.7657C40.9653 13.7379 40.9406 13.7181 38.9643 12.4358L26.5349 4.91631C24.3713 3.68874 24.3221 3.69868 22.124 4.92128L9.65513 12.3961C7.64434 13.6435 7.63448 13.6733 7.59998 15.9744V30.9935C7.62955 33.4984 7.65913 33.4984 9.7882 34.8452L22.1536 42.2156C23.6058 43.0672 25.0285 43.0721 26.4216 42.2306H26.4265Z" fill="#853135"/>
<path fill-rule="evenodd" clip-rule="evenodd" d="M25.8942 41.331L38.6193 33.7618C38.984 33.5282 39.3586 33.2996 39.674 33.0014C39.9599 32.6634 39.9254 32.1366 39.9451 31.7142L39.9599 30.8594V15.4426C39.9451 15.1245 39.9451 14.7916 39.8662 14.4834C39.7923 14.2896 39.6346 14.1803 39.4818 14.056C39.1319 13.8025 38.777 13.569 38.4123 13.3354L25.6478 5.62204C25.2831 5.41827 24.9135 5.20457 24.5143 5.07535C24.1052 4.99583 23.6863 5.26917 23.3413 5.44809L22.6415 5.83078L9.85226 13.5093C9.51713 13.723 9.16722 13.9318 8.88137 14.2051C8.64481 14.4785 8.67438 14.9108 8.65959 15.2488L8.64481 15.9843V31.416C8.65959 31.8335 8.65959 32.2609 8.7483 32.6734C8.81237 32.8573 8.8863 32.9368 9.02429 33.066C9.43828 33.394 9.88676 33.6723 10.3303 33.9506L23.0604 41.5348C23.4251 41.7435 23.7898 41.9671 24.189 42.1013C24.3516 42.1361 24.4206 42.1162 24.5783 42.0616C25.0367 41.8578 25.4654 41.5894 25.8942 41.331Z" fill="#FFCB05"/>
<path fill-rule="evenodd" clip-rule="evenodd" d="M12.7945 19.9901C12.0355 20.1243 11.0104 21.6998 10.7887 22.5496C10.074 25.0644 11.0548 28.0315 11.9912 30.8196C12.0799 31.1327 12.4347 31.1327 12.3904 30.7301C12.213 27.7184 13.1494 26.1926 13.3711 25.4272C13.4993 25.0445 13.8738 24.0257 14.0759 23.3548C14.3174 22.5745 14.7314 21.4562 14.4406 20.5318C14.3519 20.0845 13.5042 19.9007 12.7896 19.9901H12.7945ZM12.8783 21.7693C11.7645 21.7693 11.9468 24.7513 12.0405 25.3825H12.1292C12.3066 24.3487 13.1937 23.1609 13.1937 22.2166C13.1937 21.993 13.0163 21.7693 12.8832 21.7693H12.8783Z" fill="#853135"/>
<path fill-rule="evenodd" clip-rule="evenodd" d="M20.5025 21.3916C21.2122 21.8837 26.0273 23.2206 27.4467 21.0934C26.525 21.3817 25.9041 21.5904 24.9874 21.5904C24.2876 21.5904 22.0501 21.5556 21.6706 20.6064C21.5523 20.3132 21.6607 19.9951 22.0303 19.7565C22.7795 19.2744 24.2531 18.8172 25.9632 19.0011C27.6734 19.185 28.2155 19.6969 28.2155 19.6969C28.2155 19.6969 31.1873 19.0607 33.139 17.5797C35.0906 16.0937 35.061 15.219 35.061 15.219C35.061 15.219 33.0502 13.7678 28.7576 15.4625C25.3669 16.8541 20.6898 20.2684 20.5025 21.3966V21.3916ZM18.615 21.327C18.822 21.3568 19.024 21.4065 19.2162 21.4761C19.1817 21.4513 19.1867 21.4413 19.2409 21.4562C19.2409 21.4562 22.7548 16.9435 28.1563 14.9456C33.5628 12.9477 35.8447 14.3691 36.0221 14.9456C36.6036 16.8044 31.9759 19.1452 30.8522 19.7118C29.8024 20.2386 28.6443 20.7555 28.6443 20.7555C28.6443 20.7555 28.2598 22.5049 26.1554 23.0168C24.4157 23.2504 23.0407 23.0566 21.2862 22.495C21.0693 22.4254 20.6652 22.2415 20.2709 22.0477C21.5474 23.0317 22.2817 24.8457 22.0106 26.7393C21.6361 29.3584 19.4774 31.2072 17.2498 30.8693C15.0172 30.5313 13.5141 28.1259 13.8886 25.5067C14.2632 22.8876 16.3824 20.9891 18.615 21.327ZM22.74 20.3579C22.74 20.3579 23.2575 19.7267 24.9381 19.7565C26.6187 19.7863 27.0524 20.0597 27.0475 20.179C27.0425 20.3032 26.323 20.6362 24.9085 20.7555C23.499 20.8748 22.74 20.3579 22.74 20.3579ZM19.7929 19.1055C19.7929 18.0121 19.8274 14.2449 21.8578 11.4667C23.8884 8.68849 24.4502 9.18548 24.4502 9.18548C24.4502 9.18548 26.1554 9.68247 24.1249 13.3851C22.0944 17.0877 20.6504 18.7725 19.7978 19.1055H19.7929ZM24.9381 7.82869C24.6523 7.76408 22.1092 8.21634 20.0935 13.3304C19.6154 14.5431 19.369 15.706 19.1571 16.9932C18.6396 20.1392 18.9353 21.3221 18.9353 21.3221C18.9353 21.3221 22.6415 17.7437 24.2481 14.8015C25.8548 11.8593 27.0327 8.38532 24.9381 7.82372V7.82869ZM18.4573 22.7087C19.8471 22.9174 20.8278 24.7911 20.5913 26.4361C20.3547 28.0762 18.9057 29.4926 17.5159 29.2789C16.1261 29.0652 15.1355 27.286 15.3721 25.6409C15.6086 24.0008 17.0674 22.4999 18.4573 22.7087Z" fill="#853135"/>
<path fill-rule="evenodd" clip-rule="evenodd" d="M23.9081 27.6587C24.0855 27.0822 25.0515 25.7105 25.6182 25.7105C26.1456 25.7105 24.874 27.3058 23.9081 27.6587ZM26.6285 30.1834C26.8897 28.9907 27.284 28.3694 27.7276 27.9271C28.0331 27.619 28.2549 27.3953 28.2549 27.6637C28.2549 28.4141 27.2446 29.4777 26.6335 30.1884L26.6285 30.1834ZM29.2603 32.0422C29.2603 31.3762 30.3988 29.3883 30.5318 29.9648C30.6205 30.3624 29.9601 31.6893 29.2603 32.0422ZM32.0251 33.235C31.8034 33.0561 32.2863 32.0422 32.6412 31.9527C32.8186 31.908 32.7743 32.7927 32.0251 33.235ZM23.6025 29.1646C23.3807 30.2282 23.4251 31.6844 24.9184 31.421C25.1402 29.2988 26.7173 26.8188 27.6832 26.3317C28.6048 25.8894 29.4821 26.0683 29.4821 27.3058C29.4821 28.101 27.8606 30.9339 26.4117 31.9527C26.4117 32.6585 27.1115 33.1008 27.905 32.8374C28.1219 31.4657 28.9597 29.3435 30.0538 28.6775C30.6255 28.3694 31.6752 28.6328 31.7196 29.1199C31.8083 30.1834 30.5368 32.6585 29.216 33.2797C29.216 33.8115 30.4431 33.8115 30.8817 33.4984C31.0148 32.569 31.3204 31.5502 32.1089 30.9786C32.5476 30.6705 33.1636 30.8892 33.2917 31.5551C33.5135 32.6634 33.2917 33.3244 32.3701 34.0351C32.72 34.388 33.1143 34.5222 33.6417 34.7011L34.0803 35.0987C33.1587 35.0987 31.5372 34.9198 31.0542 34.393C29.5166 35.0589 28.2894 34.7011 27.9395 33.9954C26.9292 34.393 25.3077 33.6425 25.1303 32.7131C23.2427 33.3791 21.7494 32.0919 21.7494 29.6169C21.7494 27.8923 23.5039 24.2642 26.0914 24.1301C26.4413 24.1301 27.1904 24.5277 27.1904 25.2384C27.1017 27.0524 25.3472 28.3346 23.5927 29.1745L23.6025 29.1646Z" fill="#853135"/>
<path fill-rule="evenodd" clip-rule="evenodd" d="M26.8503 26.8536C26.8503 26.8536 26.8947 26.8536 26.8947 26.8089C26.8947 26.8387 26.8799 26.8536 26.8503 26.8536Z" fill="#853135"/>
<path d="M-32.256 40.7098H-31.0683C-31.0683 41.0229 -30.9549 41.2614 -30.7282 41.4254C-30.5015 41.5894 -30.2255 41.669 -29.9052 41.669C-29.0427 41.669 -28.6139 41.4254 -28.6139 40.9384V40.8738C-28.6139 40.67 -28.6878 40.5259 -28.8357 40.4463C-29.018 40.3469 -29.299 40.2525 -29.6784 40.1631C-29.9002 40.1034 -30.0826 40.0587 -30.2452 40.0289C-30.8613 39.9096 -31.3442 39.7158 -31.6843 39.4524C-31.9997 39.2138 -32.1574 38.8411 -32.1574 38.3341V38.2397C-32.1574 37.9614 -32.1081 37.7079 -32.0096 37.4892C-31.911 37.2706 -31.7632 37.0817 -31.566 36.9177C-31.1915 36.5996 -30.6543 36.4356 -29.9446 36.4356C-29.1265 36.4356 -28.54 36.6294 -28.1802 37.0171C-28.0028 37.2159 -27.8648 37.4246 -27.7662 37.6483C-27.6677 37.8719 -27.6184 38.1055 -27.6184 38.349H-28.7963C-28.8505 37.7626 -29.2349 37.4644 -29.9397 37.4644H-30.0234C-30.3487 37.4644 -30.6001 37.524 -30.7726 37.6433C-30.95 37.7626 -31.0338 37.9266 -31.0338 38.1403C-31.0338 38.4484 -30.876 38.6522 -30.5656 38.7516L-30.122 38.856L-29.777 38.9405L-29.4517 39.0249L-29.161 39.1045C-28.7371 39.2088 -28.402 39.3231 -28.1556 39.4424C-27.9091 39.5617 -27.7268 39.7207 -27.6085 39.9245C-27.4902 40.1233 -27.4311 40.3966 -27.4311 40.7495V40.7843C-27.4311 41.3012 -27.5691 41.7037 -27.85 41.987C-28.1309 42.2703 -28.4463 42.4592 -28.8012 42.5486C-29.156 42.6431 -29.4468 42.6878 -29.6735 42.6878C-30.5163 42.6878 -31.157 42.5188 -31.5956 42.1809C-32.0342 41.8429 -32.2511 41.3509 -32.2511 40.6948L-32.256 40.7098ZM-26.4011 42.5337H-25.1147L-24.7303 41.2962H-22.5372L-22.0838 42.5337C-22.3893 42.7922 -22.5421 43.0705 -22.5421 43.3687C-22.5421 43.5227 -22.4978 43.6669 -22.4041 43.801C-22.3105 43.9352 -22.1873 44.0446 -22.0246 44.1291C-21.8571 44.2036 -21.6747 44.2434 -21.4776 44.2434C-21.2459 44.2434 -21.0192 44.1937 -20.7925 44.0943V43.314C-20.9108 43.4035 -21.039 43.4482 -21.1819 43.4482C-21.3051 43.4482 -21.4037 43.4134 -21.4825 43.3438C-21.5614 43.2742 -21.6008 43.1848 -21.6008 43.0804C-21.6008 42.8965 -21.4825 42.7126 -21.241 42.5387H-20.7925L-22.8526 36.5002H-24.3361L-26.3961 42.5387L-26.4011 42.5337ZM-23.5672 37.9862L-22.8575 40.2575H-24.2818L-23.5722 37.9862H-23.5672ZM-16.9435 42.5337H-19.5358V36.5996H-16.9188C-16.1056 36.5996 -15.5044 36.863 -15.1199 37.3948C-14.7355 37.9266 -14.5433 38.5677 -14.5433 39.3182V39.3828C-14.5433 40.2227 -14.7306 40.9533 -15.1052 41.5695C-15.4945 42.2107 -16.1056 42.5287 -16.9385 42.5287L-16.9435 42.5337ZM-18.3333 41.5199H-17.1209C-16.6625 41.5199 -16.3225 41.3211 -16.1007 40.9185C-15.8986 40.5507 -15.8001 40.0885 -15.8001 39.5418V39.4623C-15.8001 39.189 -15.8247 38.9405 -15.8789 38.7168C-15.9331 38.4932 -16.0071 38.2944 -16.1007 38.1254C-16.283 37.8023 -16.6231 37.6383 -17.1209 37.6383H-18.3333V41.5248V41.5199ZM-13.1092 42.5337V36.5996H-8.78202V37.6483H-11.9066V38.9106H-9.03337V39.9494H-11.9066V41.4851H-8.64895V42.5337H-13.1092ZM-7.38728 39.4573C-7.38728 39.2237 -7.36757 39.0001 -7.33307 38.8013C-7.29857 38.5975 -7.23943 38.3938 -7.16551 38.185C-7.0423 37.8371 -6.85502 37.524 -6.6086 37.2457C-6.36711 36.9823 -6.08619 36.7835 -5.76091 36.6493C-5.43564 36.5151 -5.07094 36.4456 -4.67174 36.4456C-4.19861 36.4456 -3.77969 36.535 -3.41006 36.7239C-3.04043 36.9078 -2.74966 37.1612 -2.52788 37.4743C-2.31103 37.7874 -2.17796 38.1502 -2.13854 38.5578H-3.37064C-3.53327 37.8719 -3.95219 37.529 -4.61259 37.529C-5.10051 37.529 -5.47506 37.7179 -5.7412 38.0906C-5.87426 38.2795 -5.97776 38.5081 -6.04676 38.7665C-6.11576 39.0249 -6.15026 39.3182 -6.15026 39.6512C-6.14533 39.6561 -6.1404 39.671 -6.13547 39.7009C-6.13547 39.9692 -6.1059 40.2128 -6.04183 40.4314C-5.97776 40.6551 -5.88412 40.8638 -5.75105 41.0626C-5.50463 41.4354 -5.15472 41.6242 -4.71116 41.6242C-3.98669 41.6242 -3.5382 41.2515 -3.37064 40.511H-2.13854C-2.26175 41.162 -2.53774 41.6888 -2.96651 42.0864C-3.18336 42.2852 -3.43471 42.4393 -3.72548 42.5486C-4.01133 42.653 -4.32675 42.7077 -4.67174 42.7077C-5.46028 42.7077 -6.11576 42.4492 -6.63324 41.9274C-7.15072 41.4055 -7.407 40.6451 -7.407 39.6362C-7.39714 39.5816 -7.39221 39.5219 -7.39221 39.4623L-7.38728 39.4573ZM-0.605801 42.5337V36.5996H0.606586V39.015L2.86379 36.5996H4.44088L2.04568 39.0299L4.58873 42.5287H3.00179L1.18321 39.9394L0.601654 40.5159V42.5287H-0.610729L-0.605801 42.5337ZM5.62862 42.5337V36.5996H6.86565V42.5337H5.62862Z" fill="#853135"/>
</g>
<defs>
<clipPath id="clip0_2275_520">
<rect x="0.036377" y="0.216644" width="46.8561" height="46.8561" rx="23.428" fill="white"/>
</clipPath>
</defs>
</svg>
