<svg width="30" height="25" viewBox="0 0 30 25" fill="none" xmlns="http://www.w3.org/2000/svg">
<path d="M15.4854 11.3777H16.7578V9.61984H14.4302L13.5549 5.95844L11.8453 6.36719L12.6229 9.61984H7.70912L8.48672 6.36719L6.77707 5.95844L5.9018 9.61984H3.57422V11.3777H4.84658L5.80055 16.1237H14.5314L15.4854 11.3777ZM13.0918 14.3659H7.2402L6.63955 11.3777H13.6925L13.0918 14.3659Z" fill="#BF9900"/>
<path d="M30 14.3302L26.9856 5.92841H20.332V0.947937H0V22.1589H3.19154C3.55928 23.2475 4.58959 24.0339 5.80078 24.0339C7.01197 24.0339 8.04229 23.2475 8.41002 22.1589H18.7189C19.0866 23.2475 20.1169 24.0339 21.3281 24.0339C22.5393 24.0339 23.5696 23.2475 23.9374 22.1589H30V14.3302ZM27.3674 12.1979H23.8477V7.68622H25.7487L27.3674 12.1979ZM5.80078 22.2761C5.25152 22.2761 4.80469 21.8292 4.80469 21.28C4.80469 20.7307 5.25152 20.2839 5.80078 20.2839C6.35004 20.2839 6.79688 20.7307 6.79688 21.28C6.79688 21.8292 6.35004 22.2761 5.80078 22.2761ZM5.80078 18.5261C4.58959 18.5261 3.55928 19.3124 3.19154 20.4011H1.75781V2.70575H18.5742V20.4011H8.41002C8.04229 19.3124 7.01197 18.5261 5.80078 18.5261ZM21.3281 22.2761C20.7789 22.2761 20.332 21.8292 20.332 21.28C20.332 20.7307 20.7789 20.2839 21.3281 20.2839C21.8774 20.2839 22.3242 20.7307 22.3242 21.28C22.3242 21.8292 21.8774 22.2761 21.3281 22.2761ZM23.9374 20.4011C23.5696 19.3124 22.5393 18.5261 21.3281 18.5261C20.9769 18.5261 20.6412 18.5929 20.332 18.7133V7.68622H22.0898V13.9557H27.9981L28.2422 14.636V16.8268H26.543V18.5847H28.2422V20.4011H23.9374Z" fill="#BF9900"/>
</svg>
