<svg width="18" height="15" viewBox="0 0 18 15" fill="none" xmlns="http://www.w3.org/2000/svg">
<path d="M11.6841 0.743622H12.0777H12.4712L12.7524 0.799849C12.9211 0.856077 13.0897 0.912303 13.2584 0.968531C13.4271 1.02476 13.5396 1.08099 13.7082 1.19344C13.8769 1.24967 13.9894 1.30589 14.1018 1.41835C14.2143 1.47458 14.3267 1.58703 14.4392 1.69949C14.5517 1.81194 14.6641 1.81194 14.889 1.75571C15.0577 1.69949 15.2826 1.64326 15.5075 1.58703C15.7324 1.5308 15.9573 1.41835 16.1822 1.30589C16.4072 1.19344 16.5196 1.13721 16.5758 1.13721C16.6321 1.13721 16.6321 1.08099 16.6321 1.08099V1.13721C16.6321 1.13721 16.6321 1.30589 16.5196 1.47458C16.4072 1.64326 16.2947 1.81194 16.1822 1.98062C16.0698 2.1493 15.9011 2.31799 15.8449 2.37421C15.7324 2.48667 15.6762 2.54289 15.62 2.54289C15.5637 2.59912 15.5637 2.59912 15.5075 2.65535L15.4513 2.71158H15.5075H15.5637L15.9573 2.59912C16.2385 2.54289 16.5196 2.48667 16.7445 2.37421C17.0257 2.26176 17.1381 2.26176 17.1381 2.26176H17.1943H17.2506H17.3068C17.3068 2.26176 17.2506 2.37421 17.1381 2.54289C17.0257 2.71158 16.9694 2.7678 16.9132 2.82403C16.9132 2.82403 16.9132 2.82403 16.857 2.88026C16.857 2.88026 16.7445 2.99271 16.5196 3.21762C16.3509 3.3863 16.126 3.61121 15.9573 3.72367C15.7887 3.89235 15.6762 4.06103 15.6762 4.28594C15.6762 4.51085 15.6762 4.73576 15.62 5.01689C15.62 5.29803 15.5637 5.57917 15.5075 5.91653C15.4513 6.25389 15.3951 6.59126 15.2264 7.04108C15.1139 7.43467 14.9452 7.82826 14.8328 8.22185C14.6641 8.61544 14.4954 8.9528 14.3267 9.29017C14.1581 9.62753 13.9894 9.85244 13.8207 10.0773C13.652 10.3023 13.5396 10.4709 13.3709 10.6958C13.2022 10.8645 13.0335 11.0894 12.8086 11.3143C12.5837 11.5393 12.415 11.6517 12.415 11.7079C12.415 11.7079 12.3026 11.8204 12.1339 11.9328C11.9652 12.1015 11.7965 12.214 11.5716 12.3827C11.4029 12.5513 11.178 12.6638 11.0093 12.72C10.8407 12.8325 10.672 12.9449 10.3908 13.0574C10.1659 13.1698 9.88479 13.2823 9.65988 13.3948C9.37875 13.5072 9.09761 13.6197 8.81647 13.6759C8.53534 13.7883 8.2542 13.8446 7.97306 13.9008C7.69193 13.957 7.35456 14.0133 7.0172 14.0133L6.51116 14.0695H6.00511H5.49906H5.38661C5.27416 14.0695 5.21793 14.0695 5.1617 14.0695C5.10547 14.0695 4.88056 14.0133 4.5432 14.0133C4.20584 13.957 3.9247 13.9008 3.69979 13.8446C3.47488 13.7883 3.19375 13.6759 2.80015 13.5634C2.40656 13.451 2.0692 13.2823 1.78806 13.1136C1.50693 12.9449 1.33825 12.8887 1.22579 12.8325C1.16956 12.7763 1.05711 12.7763 1.00088 12.72L0.888428 12.6638H0.944655C1.00088 12.6638 1.11334 12.6638 1.33825 12.6638C1.56316 12.6638 1.73184 12.6638 1.95675 12.6638C2.18165 12.6638 2.40656 12.6076 2.63147 12.6076C2.85638 12.5513 3.13752 12.4951 3.47488 12.4389C3.81225 12.3264 4.09338 12.2702 4.37452 12.1578C4.65565 12.0453 4.82434 11.9328 4.93679 11.8766C5.04925 11.8204 5.21793 11.7079 5.44284 11.5393L5.7802 11.3143H5.66775C5.61152 11.3143 5.49906 11.3143 5.44284 11.3143C5.38661 11.3143 5.27416 11.3143 5.10547 11.2581C4.93679 11.2019 4.76811 11.1457 4.59943 11.0894C4.43075 11.0332 4.26206 10.9208 4.03716 10.8083C3.81225 10.6958 3.75602 10.5834 3.64356 10.5272C3.58734 10.4709 3.47488 10.3585 3.36243 10.246C3.24997 10.1336 3.13752 9.9649 3.02506 9.85244C2.91261 9.73999 2.85638 9.5713 2.74393 9.34639L2.63147 9.06526H2.80015C2.91261 9.06526 3.08129 9.06526 3.3062 9.06526C3.53111 9.06526 3.69979 9.06526 3.81225 9.00903C3.9247 9.00903 3.98093 9.00903 3.98093 8.9528H3.9247H3.86847C3.86847 8.9528 3.81225 8.9528 3.75602 8.89658C3.69979 8.84035 3.58734 8.84035 3.36243 8.72789C3.13752 8.61544 2.96884 8.55921 2.85638 8.44676C2.74393 8.3343 2.63147 8.27808 2.46279 8.16562C2.35034 8.05317 2.23788 7.94071 2.0692 7.77203C1.95675 7.60335 1.78806 7.37844 1.67561 7.20976C1.56316 6.98485 1.50693 6.75994 1.4507 6.59126C1.39447 6.36635 1.33825 6.19767 1.33825 5.97276V5.6354L1.56315 5.74785C1.73184 5.80408 1.90052 5.8603 2.12543 5.91653C2.35034 5.97276 2.51902 5.97276 2.51902 5.97276H2.57525H2.63147H2.6877C2.6877 5.97276 2.63147 5.91653 2.57525 5.8603C2.51902 5.80408 2.40656 5.69162 2.29411 5.6354C2.18166 5.52294 2.12543 5.41049 2.01297 5.29803C1.90052 5.18558 1.84429 5.07312 1.78806 4.96067C1.73184 4.67953 1.61938 4.51085 1.56315 4.34217C1.50693 4.17349 1.4507 3.94858 1.39447 3.77989C1.33825 3.61121 1.33825 3.3863 1.33825 3.21762C1.33825 3.04894 1.33825 2.88026 1.33825 2.71158C1.33825 2.59912 1.39447 2.43044 1.4507 2.26176C1.50693 2.09308 1.56316 1.92439 1.61938 1.69949L1.73184 1.41835L1.95675 1.64326C2.0692 1.81194 2.23788 1.98062 2.40656 2.1493C2.6877 2.31799 2.80015 2.43044 2.80015 2.43044L2.85638 2.48667C2.91261 2.54289 2.96884 2.59912 3.13752 2.7678C3.3062 2.88026 3.53111 3.04894 3.81225 3.27385C4.09338 3.49876 4.37452 3.66744 4.71188 3.83612C5.04925 4.0048 5.38661 4.17349 5.7802 4.34217C6.17379 4.51085 6.45493 4.56708 6.56738 4.6233C6.73606 4.67953 6.96097 4.73576 7.35456 4.79199C7.74816 4.84821 8.02929 4.90444 8.19797 4.90444C8.36665 4.90444 8.53534 4.96067 8.59156 4.96067H8.70402V4.67953C8.70402 4.56708 8.64779 4.39839 8.64779 4.17349C8.64779 3.94858 8.64779 3.72367 8.70402 3.55499C8.76025 3.3863 8.81647 3.16139 8.8727 2.99271C8.92893 2.82403 8.98516 2.65535 9.09761 2.54289C9.15384 2.43044 9.26629 2.31799 9.37875 2.1493C9.4912 1.98062 9.60365 1.86817 9.82856 1.69949C9.99725 1.5308 10.2222 1.41835 10.4471 1.24967C10.672 1.13721 10.8969 1.02476 11.0656 0.968531C11.2342 0.912303 11.4029 0.856076 11.5154 0.856076C11.6278 0.856076 11.6841 0.743622 11.6841 0.743622Z" fill="#D6D5D6"/>
</svg>
