<svg width="9" height="17" viewBox="0 0 9 17" fill="none" xmlns="http://www.w3.org/2000/svg">
<path d="M5.85367 12.5393V8.49091H6.97821C7.82162 8.49091 8.10276 8.49091 8.10276 8.43468C8.10276 8.37846 8.15899 7.87241 8.21521 7.25391C8.27144 6.63541 8.32767 6.01691 8.32767 5.90446V5.67955H7.09067H5.85367V4.77991C5.85367 4.27386 5.90989 3.76782 5.96612 3.71159C6.07858 3.43046 6.35971 3.318 7.42803 3.318H8.3839V1.91232V0.506638H6.86576C5.17894 0.506638 4.72912 0.562865 4.05439 0.900228C3.60458 1.12514 3.15476 1.57496 2.92985 1.96855C2.64871 2.58705 2.53626 2.98064 2.53626 4.38632L2.48003 5.67955H1.63662H0.793213V7.08523V8.49091H1.63662H2.48003V12.5393V16.5876H4.16685H5.85367V12.5393Z" fill="#D6D5D6"/>
</svg>
