<svg width="15" height="19" viewBox="0 0 15 19" fill="none" xmlns="http://www.w3.org/2000/svg">
<path d="M6.61007 0.113004C3.63002 0.39414 0.649979 2.86814 0.481297 6.298C0.42507 8.43464 0.987342 10.009 3.01152 10.4588C3.91116 8.94069 2.73039 8.60332 2.56171 7.47878C1.83075 2.92437 7.84707 -0.22436 10.9958 2.9806C13.1887 5.17346 11.7268 11.977 8.24066 11.3022C4.86702 10.6275 9.87125 5.22969 7.22857 4.16137C5.03571 3.31796 3.91116 6.80405 4.92325 8.5471C4.30475 11.5271 3.01152 14.3385 3.51757 18.1057C5.26061 16.8687 5.82289 14.451 6.27271 11.977C7.11612 12.483 7.62216 13.0453 8.69048 13.1577C12.7388 13.4951 14.9879 9.10937 14.4819 5.061C13.9758 1.46246 10.4335 -0.336814 6.61007 0.113004Z" fill="#D6D5D6"/>
</svg>
