<svg width="18" height="17" viewBox="0 0 18 17" fill="none" xmlns="http://www.w3.org/2000/svg">
<path d="M11.0849 2.13447H4.75932C4.1663 2.13447 3.67211 2.49687 3.47444 2.99106L1.33297 7.93291C1.26708 8.09764 1.23413 8.26236 1.23413 8.46004V9.8767C1.23413 10.6345 1.89304 11.2604 2.65079 11.2604H7.09846L6.4066 14.4891V14.7197C6.4066 14.9833 6.50544 15.2798 6.70311 15.4445L7.46086 16.2023L12.0733 11.5569C12.3368 11.2934 12.5015 10.9639 12.5015 10.5686V3.55113C12.5015 2.76044 11.8426 2.13447 11.0849 2.13447ZM11.0849 10.5686L8.02094 13.6325L8.97636 9.8767H2.65079V8.46004L4.75932 3.55113H11.0849V10.5686ZM13.8853 2.13447H16.7186V10.5686H13.8853V2.13447Z" fill="#D6D5D6"/>
</svg>
