<svg width="18" height="18" viewBox="0 0 18 18" fill="none" xmlns="http://www.w3.org/2000/svg">
<path d="M11.0849 3.03352H4.75932C4.1663 3.03352 3.67211 3.39592 3.47444 3.8901L1.33297 8.83195C1.26708 8.99668 1.23413 9.16141 1.23413 9.35909V10.7757C1.23413 11.5335 1.89304 12.1595 2.65079 12.1595H7.09846L6.4066 15.3881V15.6188C6.4066 15.8823 6.50544 16.1788 6.70311 16.3436L7.46086 17.1013L12.0733 12.456C12.3368 12.1924 12.5015 11.863 12.5015 11.4676V4.45018C12.5015 3.65948 11.8426 3.03352 11.0849 3.03352ZM11.0849 11.4676L8.02094 14.5316L8.97636 10.7757H2.65079V9.35909L4.75932 4.45018H11.0849V11.4676ZM13.8853 3.03352H16.7186V11.4676H13.8853V3.03352Z" fill="#D6D5D6"/>
</svg>
