<svg width="18" height="18" viewBox="0 0 18 18" fill="none" xmlns="http://www.w3.org/2000/svg">
<path d="M11.0849 2.34846H4.75932C4.1663 2.34846 3.67211 2.71086 3.47444 3.20505L1.33297 8.1469C1.26708 8.31162 1.23413 8.47635 1.23413 8.67403V10.0907C1.23413 10.8484 1.89304 11.4744 2.65079 11.4744H7.09846L6.4066 14.7031V14.9337C6.4066 15.1973 6.50544 15.4938 6.70311 15.6585L7.46086 16.4163L12.0733 11.7709C12.3368 11.5074 12.5015 11.1779 12.5015 10.7826V3.76512C12.5015 2.97443 11.8426 2.34846 11.0849 2.34846ZM11.0849 10.7826L8.02094 13.8465L8.97636 10.0907H2.65079V8.67403L4.75932 3.76512H11.0849V10.7826ZM13.8853 2.34846H16.7186V10.7826H13.8853V2.34846Z" fill="#D6D5D6"/>
</svg>
