<svg width="18" height="18" viewBox="0 0 18 18" fill="none" xmlns="http://www.w3.org/2000/svg">
<path d="M6.4821 14.9994H12.8077C13.4007 14.9994 13.8949 14.637 14.0925 14.1428L16.234 9.20095C16.2999 9.03622 16.3329 8.87149 16.3329 8.67382V7.25716C16.3329 6.49941 15.6739 5.87344 14.9162 5.87344H10.4685L11.1604 2.64476V2.41414C11.1604 2.15058 11.0615 1.85407 10.8639 1.68934L10.1061 0.931588L5.49373 5.57693C5.23016 5.84049 5.06543 6.16995 5.06543 6.5653V13.5827C5.06543 14.3734 5.72435 14.9994 6.4821 14.9994ZM6.4821 6.5653L9.54605 3.50135L8.59062 7.25716H14.9162V8.67382L12.8077 13.5827H6.4821V6.5653ZM0.848389 6.5653H3.68172V14.9994H0.848389V6.5653Z" fill="#D6D5D6"/>
</svg>
