<svg width="18" height="18" viewBox="0 0 18 18" fill="none" xmlns="http://www.w3.org/2000/svg">
<path d="M6.4821 15.6847H12.8077C13.4007 15.6847 13.8949 15.3223 14.0925 14.8281L16.234 9.88625C16.2999 9.72153 16.3329 9.5568 16.3329 9.35912V7.94246C16.3329 7.18471 15.6739 6.55874 14.9162 6.55874H10.4685L11.1604 3.33007V3.09945C11.1604 2.83588 11.0615 2.53937 10.8639 2.37464L10.1061 1.61689L5.49373 6.26223C5.23016 6.5258 5.06543 6.85525 5.06543 7.2506V14.268C5.06543 15.0587 5.72435 15.6847 6.4821 15.6847ZM6.4821 7.2506L9.54605 4.18665L8.59062 7.94246H14.9162V9.35912L12.8077 14.268H6.4821V7.2506ZM0.848389 7.2506H3.68172V15.6847H0.848389V7.2506Z" fill="#D6D5D6"/>
</svg>
