<svg width="18" height="17" viewBox="0 0 18 17" fill="none" xmlns="http://www.w3.org/2000/svg">
<path d="M6.4821 14.7856H12.8077C13.4007 14.7856 13.8949 14.4232 14.0925 13.9291L16.234 8.98721C16.2999 8.82248 16.3329 8.65775 16.3329 8.46008V7.04341C16.3329 6.28566 15.6739 5.65969 14.9162 5.65969H10.4685L11.1604 2.43102V2.2004C11.1604 1.93683 11.0615 1.64032 10.8639 1.47559L10.1061 0.717843L5.49373 5.36318C5.23016 5.62675 5.06543 5.95621 5.06543 6.35155V13.369C5.06543 14.1597 5.72435 14.7856 6.4821 14.7856ZM6.4821 6.35155L9.54605 3.28761L8.59062 7.04341H14.9162V8.46008L12.8077 13.369H6.4821V6.35155ZM0.848389 6.35155H3.68172V14.7856H0.848389V6.35155Z" fill="#D6D5D6"/>
</svg>
