<svg width="30" height="31" viewBox="0 0 30 31" fill="none" xmlns="http://www.w3.org/2000/svg">
<path d="M11.7013 14.0539L15 13.5852L18.2987 14.0539L18.8723 10.7718L20.3374 7.77944L17.3931 6.21968L15 3.90159L12.6068 6.21968L9.66258 7.77944L11.1277 10.7718L11.7013 14.0539ZM13.6504 7.65604L15 6.34882L16.3496 7.6561L18.0099 8.53571L17.1837 10.2232L16.8602 12.0741L15 11.8097L13.1398 12.074L12.8163 10.2232L11.99 8.53565L13.6504 7.65604Z" fill="#BF9900"/>
<path d="M10.2235 16.1022H19.7765V17.86H10.2235V16.1022Z" fill="#BF9900"/>
<path d="M12.573 19.5593H17.427V21.3171H12.573V19.5593Z" fill="#BF9900"/>
<path d="M25.1796 18.2848C25.9928 16.3975 26.4294 14.3393 26.4294 12.2218V6.63915L21.1187 0.490906H8.88135L3.57059 6.63921V12.2216C3.57059 14.3392 4.00717 16.3974 4.82045 18.2847L0 23.6971L4.54113 25.8806L6.82477 30.4909L11.0626 25.4239L15 28.1049L18.937 25.4242L23.1754 30.4909L25.4589 25.8808L30 23.6973L25.1796 18.2848ZM27.1356 23.1241L25.1824 24.0632L23.1341 21.715C23.5722 21.1605 23.9705 20.5774 24.3266 19.9701L27.1356 23.1241ZM5.67334 19.97C6.03158 20.5809 6.43254 21.1674 6.87369 21.7248L4.88355 24.0948L2.86441 23.124L5.67334 19.97ZM6.19723 25.2638L8.05518 23.0513C8.54104 23.5369 9.06211 23.9922 9.61617 24.4133L7.20434 27.2971L6.19723 25.2638ZM11.2559 23.4289C7.54424 20.9016 5.3284 16.712 5.3284 12.2216V7.29329L9.68572 2.24872H20.3143L24.6716 7.29329V12.2218C24.6716 16.7121 22.4558 20.9017 18.7441 23.4289L15 25.9783L11.2559 23.4289ZM22.7955 27.2973L20.3834 24.4136C20.9421 23.989 21.4673 23.5295 21.9567 23.0394L23.8369 25.1949L22.7955 27.2973Z" fill="#BF9900"/>
</svg>
