<svg width="20" height="16" viewBox="0 0 20 16" fill="none" xmlns="http://www.w3.org/2000/svg">
<path d="M0 0.593643V2.23747H3.01371V10.7306C3.01371 12.0902 4.11984 13.1964 5.47945 13.1964H6.30137H14.5205H16.9863V11.5525H5.47945C5.02625 11.5525 4.65754 11.1838 4.65754 10.7306V9.90872H17.0029L20 2.1161V0.593643H0ZM15.8739 8.26489H4.65754V2.23747H18.1921L15.8739 8.26489Z" fill="#3C291E"/>
<path d="M6.30137 13.1964C5.69711 13.1964 5.20547 13.688 5.20547 14.2923C5.20547 14.8966 5.69707 15.3882 6.30137 15.3882C6.90566 15.3882 7.39727 14.8966 7.39727 14.2923C7.39727 13.688 6.90562 13.1964 6.30137 13.1964Z" fill="#3C291E"/>
<path d="M14.5205 13.1964C13.9163 13.1964 13.4246 13.688 13.4246 14.2923C13.4246 14.8966 13.9163 15.3882 14.5205 15.3882C15.1248 15.3882 15.6164 14.8966 15.6164 14.2923C15.6164 13.688 15.1248 13.1964 14.5205 13.1964Z" fill="#3C291E"/>
</svg>
