<svg width="25" height="31" viewBox="0 0 25 31" fill="none" xmlns="http://www.w3.org/2000/svg">
<path d="M19.3054 16.4032V7.51107H14.0403V4.87852C14.0403 2.45921 12.072 0.490936 9.65268 0.490936C7.23337 0.490936 5.2651 2.45921 5.2651 4.87852V7.51107H0V26.9334H13.6669C14.7001 28.5248 16.2575 29.7675 18.1503 30.3984L18.4278 30.4909L18.7054 30.3984C22.2134 29.2291 24.5705 25.9589 24.5705 22.2611V16.4032H19.3054ZM7.02013 4.87852C7.02013 3.42693 8.20109 2.24597 9.65268 2.24597C11.1043 2.24597 12.2852 3.42693 12.2852 4.87852V7.51107H7.02013V4.87852ZM1.75503 25.1784V9.2661H5.2651V11.0211H7.02013V9.2661H12.2852V11.0211H14.0403V9.2661H17.5503V16.4032H12.2852V22.2611C12.2852 23.2775 12.4637 24.2614 12.7948 25.1784H1.75503ZM22.8154 22.2611C22.8154 25.1037 21.0643 27.6287 18.4278 28.6344C15.7914 27.6287 14.0403 25.1037 14.0403 22.2611V18.1583H22.8154V22.2611Z" fill="#BF9900"/>
<path d="M21.6809 21.4113L20.4399 20.1703L17.5503 23.0599L16.4158 21.9253L15.1748 23.1664L17.5503 25.5419L21.6809 21.4113Z" fill="#BF9900"/>
</svg>
