<svg width="86" height="15" viewBox="0 0 86 15" fill="none" xmlns="http://www.w3.org/2000/svg">
<path d="M7.64006 0.692383L5.37211 5.31236L0.276123 6.04036L3.97207 9.62438L3.10416 14.6924L7.64006 12.3124L12.176 14.6924L11.3081 9.62438L15.004 6.04036L9.90801 5.31236L7.64006 0.692383Z" fill="#FECC00"/>
<path d="M25.3678 0.692383L23.0999 5.31236L18.0039 6.04036L21.6999 9.62438L20.8319 14.6924L25.3678 12.3124L29.9037 14.6924L29.0358 9.62438L32.7318 6.04036L27.6358 5.31236L25.3678 0.692383Z" fill="#FECC00"/>
<path d="M43.0959 0.692383L40.8279 5.31236L35.7319 6.04036L39.4279 9.62438L38.56 14.6924L43.0959 12.3124L47.6318 14.6924L46.7639 9.62438L50.4598 6.04036L45.3638 5.31236L43.0959 0.692383Z" fill="#FECC00"/>
<path d="M60.8237 0.692383L58.5557 5.31236L53.4597 6.04036L57.1557 9.62438L56.2878 14.6924L60.8237 12.3124L65.3596 14.6924L64.4916 9.62438L68.1876 6.04036L63.0916 5.31236L60.8237 0.692383Z" fill="#FECC00"/>
<path d="M78.5517 0.692383L76.2837 5.31236L71.1877 6.04036L74.8837 9.62438L74.0158 14.6924L78.5517 12.3124L83.0876 14.6924L82.2197 9.62438L85.9156 6.04036L80.8196 5.31236L78.5517 0.692383Z" fill="#FECC00"/>
</svg>
