<svg width="86" height="15" viewBox="0 0 86 15" fill="none" xmlns="http://www.w3.org/2000/svg">
<path d="M7.63982 0.692383L5.37187 5.31236L0.275879 6.04036L3.97183 9.62438L3.10392 14.6924L7.63982 12.3124L12.1757 14.6924L11.3078 9.62438L15.0038 6.04036L9.90777 5.31236L7.63982 0.692383Z" fill="#FECC00"/>
<path d="M25.3676 0.692383L23.0997 5.31236L18.0037 6.04036L21.6996 9.62438L20.8317 14.6924L25.3676 12.3124L29.9035 14.6924L29.0356 9.62438L32.7315 6.04036L27.6356 5.31236L25.3676 0.692383Z" fill="#FECC00"/>
<path d="M43.0956 0.692383L40.8277 5.31236L35.7317 6.04036L39.4276 9.62438L38.5597 14.6924L43.0956 12.3124L47.6315 14.6924L46.7636 9.62438L50.4596 6.04036L45.3636 5.31236L43.0956 0.692383Z" fill="#FECC00"/>
<path d="M60.8234 0.692383L58.5555 5.31236L53.4595 6.04036L57.1554 9.62438L56.2875 14.6924L60.8234 12.3124L65.3593 14.6924L64.4914 9.62438L68.1874 6.04036L63.0914 5.31236L60.8234 0.692383Z" fill="#FECC00"/>
<path d="M78.5514 0.692383L76.2835 5.31236L71.1875 6.04036L74.8834 9.62438L74.0155 14.6924L78.5514 12.3124L83.0873 14.6924L82.2194 9.62438L85.9154 6.04036L80.8194 5.31236L78.5514 0.692383Z" fill="#FECC00"/>
</svg>
