<svg width="86" height="15" viewBox="0 0 86 15" fill="none" xmlns="http://www.w3.org/2000/svg">
<path d="M7.63982 0.692261L5.37187 5.31224L0.275879 6.04024L3.97183 9.62426L3.10392 14.6923L7.63982 12.3122L12.1757 14.6923L11.3078 9.62426L15.0038 6.04024L9.90777 5.31224L7.63982 0.692261Z" fill="#FECC00"/>
<path d="M25.3676 0.692261L23.0997 5.31224L18.0037 6.04024L21.6996 9.62426L20.8317 14.6923L25.3676 12.3122L29.9035 14.6923L29.0356 9.62426L32.7315 6.04024L27.6356 5.31224L25.3676 0.692261Z" fill="#FECC00"/>
<path d="M43.0956 0.692261L40.8277 5.31224L35.7317 6.04024L39.4276 9.62426L38.5597 14.6923L43.0956 12.3122L47.6315 14.6923L46.7636 9.62426L50.4596 6.04024L45.3636 5.31224L43.0956 0.692261Z" fill="#FECC00"/>
<path d="M60.8234 0.692261L58.5555 5.31224L53.4595 6.04024L57.1554 9.62426L56.2875 14.6923L60.8234 12.3122L65.3593 14.6923L64.4914 9.62426L68.1874 6.04024L63.0914 5.31224L60.8234 0.692261Z" fill="#FECC00"/>
<path d="M78.5514 0.692261L76.2835 5.31224L71.1875 6.04024L74.8834 9.62426L74.0155 14.6923L78.5514 12.3122L83.0873 14.6923L82.2194 9.62426L85.9154 6.04024L80.8194 5.31224L78.5514 0.692261Z" fill="#FECC00"/>
</svg>
