<svg width="35" height="35" viewBox="0 0 35 35" fill="none" xmlns="http://www.w3.org/2000/svg">
<path d="M16.3435 12.8334C17.3743 12.8334 18.2177 11.99 18.2177 10.9591C18.2177 9.92831 17.3743 9.0849 16.3435 9.0849C15.3126 9.0849 14.4692 9.92831 14.4692 10.9591C14.4692 11.99 15.3126 12.8334 16.3435 12.8334ZM16.3435 14.7076C15.3126 14.7076 14.4692 15.551 14.4692 16.5819C14.4692 17.6127 15.3126 18.4561 16.3435 18.4561C17.3743 18.4561 18.2177 17.6127 18.2177 16.5819C18.2177 15.551 17.3743 14.7076 16.3435 14.7076ZM16.3435 20.3304C15.3126 20.3304 14.4692 21.1738 14.4692 22.2046C14.4692 23.2354 15.3126 24.0788 16.3435 24.0788C17.3743 24.0788 18.2177 23.2354 18.2177 22.2046C18.2177 21.1738 17.3743 20.3304 16.3435 20.3304Z" fill="white"/>
</svg>
