<svg width="11" height="6" viewBox="0 0 11 6" fill="none" xmlns="http://www.w3.org/2000/svg">
<path d="M10.7211 2.98181C10.7211 3.03971 10.7004 3.08935 10.6591 3.13071L8.27659 5.32705C8.21041 5.38496 8.13803 5.39737 8.05944 5.36428C7.98085 5.32705 7.94156 5.26707 7.94156 5.18435V3.79458H0.198539C0.140632 3.79458 0.0930651 3.77596 0.0558391 3.73874C0.018613 3.70151 0 3.65394 0 3.59604V2.4048C0 2.3469 0.018613 2.29933 0.0558391 2.2621C0.0930651 2.22488 0.140632 2.20626 0.198539 2.20626H7.94156V0.816492C7.94156 0.729631 7.98085 0.669656 8.05944 0.636566C8.13803 0.603476 8.21041 0.613817 8.27659 0.667588L10.6591 2.83911C10.7004 2.88047 10.7211 2.92804 10.7211 2.98181Z" fill="#FECC00"/>
</svg>
