<svg width="36" height="40" viewBox="0 0 36 40" fill="none" xmlns="http://www.w3.org/2000/svg">
<g filter="url(#filter0_d_2275_1073)">
<path fill-rule="evenodd" clip-rule="evenodd" d="M20.3286 39.353L33.1698 31.7915C35.4106 30.3949 35.431 30.3898 35.4566 27.6476V12.1104C35.4208 10.023 35.3952 10.0026 33.3437 8.68264L20.4412 0.942155C18.1952 -0.321494 18.1441 -0.311262 15.8624 0.947271L2.91889 8.64171C0.82645 9.92582 0.816218 9.95652 0.785522 12.3252V27.7857C0.816218 30.3642 0.846914 30.3642 3.05702 31.7506L15.893 39.3376C17.4006 40.2142 18.8774 40.2193 20.3235 39.353H20.3286Z" fill="#FECC00"/>
<path d="M8.38843 13.8866V15.4674H11.2865V23.6346C11.2865 24.942 12.3502 26.0057 13.6576 26.0057H14.448H22.3517H24.7228V24.4249H13.6576C13.2218 24.4249 12.8672 24.0704 12.8672 23.6346V22.8442H24.7387L27.6208 15.3507V13.8866H8.38843ZM23.6531 21.2635H12.8672V15.4674H25.8823L23.6531 21.2635Z" fill="#3C291E"/>
<path d="M14.448 26.0057C13.8669 26.0057 13.3941 26.4784 13.3941 27.0595C13.3941 27.6406 13.8668 28.1133 14.448 28.1133C15.0291 28.1133 15.5018 27.6406 15.5018 27.0595C15.5018 26.4784 15.029 26.0057 14.448 26.0057Z" fill="#3C291E"/>
<path d="M22.3517 26.0057C21.7706 26.0057 21.2978 26.4784 21.2978 27.0595C21.2978 27.6406 21.7706 28.1133 22.3517 28.1133C22.9328 28.1133 23.4055 27.6406 23.4055 27.0595C23.4055 26.4784 22.9328 26.0057 22.3517 26.0057Z" fill="#3C291E"/>
</g>
<defs>
<filter id="filter0_d_2275_1073" x="-26.9513" y="-20.8038" width="90.1447" height="95.4737" filterUnits="userSpaceOnUse" color-interpolation-filters="sRGB">
<feFlood flood-opacity="0" result="BackgroundImageFix"/>
<feColorMatrix in="SourceAlpha" type="matrix" values="0 0 0 0 0 0 0 0 0 0 0 0 0 0 0 0 0 0 127 0" result="hardAlpha"/>
<feOffset dy="6.93421"/>
<feGaussianBlur stdDeviation="13.8684"/>
<feColorMatrix type="matrix" values="0 0 0 0 0 0 0 0 0 0 0 0 0 0 0 0 0 0 0.1 0"/>
<feBlend mode="normal" in2="BackgroundImageFix" result="effect1_dropShadow_2275_1073"/>
<feBlend mode="normal" in="SourceGraphic" in2="effect1_dropShadow_2275_1073" result="shape"/>
</filter>
</defs>
</svg>
