<svg width="22" height="20" viewBox="0 0 22 20" fill="none" xmlns="http://www.w3.org/2000/svg">
<rect x="0.277832" y="-0.5" width="21.7368" height="21" stroke="#4A4849"/>
<path d="M8.07607 3.75V6.25C8.07607 6.66422 7.7668 7 7.38528 7H4.46862C4.0871 7 3.77783 6.66422 3.77783 6.25V3.75C3.77783 3.33578 4.0871 3 4.46862 3H7.38528C7.7668 3 8.07607 3.33578 8.07607 3.75ZM13.2954 11.25V8.75C13.2954 8.33578 12.9861 8 12.6046 8H9.68791C9.30639 8 8.99712 8.33578 8.99712 8.75V11.25C8.99712 11.6642 9.30639 12 9.68791 12H12.6046C12.9861 12 13.2954 11.6642 13.2954 11.25ZM14.2164 3.75V6.25C14.2164 6.66422 14.5257 7 14.9072 7H17.8239C18.2054 7 18.5147 6.66422 18.5147 6.25V3.75C18.5147 3.33578 18.2054 3 17.8239 3H14.9072C14.5257 3 14.2164 3.33578 14.2164 3.75ZM13.2954 6.25V3.75C13.2954 3.33578 12.9861 3 12.6046 3H9.68791C9.30639 3 8.99712 3.33578 8.99712 3.75V6.25C8.99712 6.66422 9.30639 7 9.68791 7H12.6046C12.9861 7 13.2954 6.66422 13.2954 6.25ZM7.38528 8H4.46862C4.0871 8 3.77783 8.33578 3.77783 8.75V11.25C3.77783 11.6642 4.0871 12 4.46862 12H7.38528C7.7668 12 8.07607 11.6642 8.07607 11.25V8.75C8.07607 8.33578 7.7668 8 7.38528 8ZM3.77783 13.75V16.25C3.77783 16.6642 4.0871 17 4.46862 17H7.38528C7.7668 17 8.07607 16.6642 8.07607 16.25V13.75C8.07607 13.3358 7.7668 13 7.38528 13H4.46862C4.0871 13 3.77783 13.3358 3.77783 13.75ZM14.9072 12H17.8239C18.2054 12 18.5147 11.6642 18.5147 11.25V8.75C18.5147 8.33578 18.2054 8 17.8239 8H14.9072C14.5257 8 14.2164 8.33578 14.2164 8.75V11.25C14.2164 11.6642 14.5257 12 14.9072 12ZM14.9072 17H17.8239C18.2054 17 18.5147 16.6642 18.5147 16.25V13.75C18.5147 13.3358 18.2054 13 17.8239 13H14.9072C14.5257 13 14.2164 13.3358 14.2164 13.75V16.25C14.2164 16.6642 14.5257 17 14.9072 17ZM8.99712 13.75V16.25C8.99712 16.6642 9.30639 17 9.68791 17H12.6046C12.9861 17 13.2954 16.6642 13.2954 16.25V13.75C13.2954 13.3358 12.9861 13 12.6046 13H9.68791C9.30639 13 8.99712 13.3358 8.99712 13.75Z" fill="#111111"/>
</svg>
