<svg width="14" height="10" viewBox="0 0 14 10" fill="none" xmlns="http://www.w3.org/2000/svg">
<path d="M13.7197 4.69636L9.62882 0.150909C9.54155 0.0545454 9.41973 0 9.29064 0H6.56337C6.38428 0 6.22155 0.105455 6.14791 0.269091C6.07518 0.433636 6.10518 0.625454 6.22518 0.758182L10.0425 5L6.22518 9.24091C6.10518 9.37455 6.07428 9.56636 6.14791 9.73C6.22155 9.89455 6.38428 10 6.56337 10H9.29064C9.41973 10 9.54155 9.94455 9.62882 9.85L13.7197 5.30455C13.8752 5.13182 13.8752 4.86818 13.7197 4.69636Z" fill="#079600"/>
<path d="M7.81064 4.69636L3.71973 0.150909C3.63246 0.0545454 3.51064 0 3.38155 0H0.654275C0.475184 0 0.312457 0.105455 0.238821 0.269091C0.166094 0.433636 0.196094 0.625454 0.316094 0.758182L4.13337 5L0.316094 9.24091C0.196094 9.37455 0.165184 9.56636 0.238821 9.73C0.312457 9.89455 0.475184 10 0.654275 10H3.38155C3.51064 10 3.63246 9.94455 3.71973 9.85L7.81064 5.30455C7.96609 5.13182 7.96609 4.86818 7.81064 4.69636Z" fill="#079600"/>
</svg>
