<svg width="30" height="32" viewBox="0 0 30 32" fill="none" xmlns="http://www.w3.org/2000/svg">
<rect width="29.9336" height="31" transform="translate(0.0664062 0.377197)" fill="#111111"/>
<path d="M20.3937 15.859C20.3937 15.9169 20.3731 15.9665 20.3317 16.0079L17.9492 18.2042C17.8831 18.2622 17.8107 18.2746 17.7321 18.2415C17.6535 18.2042 17.6142 18.1443 17.6142 18.0615V16.6718H9.87118C9.81327 16.6718 9.7657 16.6532 9.72848 16.6159C9.69125 16.5787 9.67264 16.5311 9.67264 16.4732V15.282C9.67264 15.2241 9.69125 15.1765 9.72848 15.1393C9.7657 15.1021 9.81327 15.0835 9.87118 15.0835H17.6142V13.6937C17.6142 13.6068 17.6535 13.5469 17.7321 13.5138C17.8107 13.4807 17.8831 13.491 17.9492 13.5448L20.3317 15.7163C20.3731 15.7577 20.3937 15.8052 20.3937 15.859Z" fill="white"/>
</svg>
