<svg width="21" height="20" viewBox="0 0 21 20" fill="none" xmlns="http://www.w3.org/2000/svg">
<rect x="-0.5" y="-0.5" width="21.7778" height="21" stroke="#D6D5D6"/>
<path d="M7.31018 8.75V11.25C7.31018 11.6642 7.00004 12 6.61747 12H3.69271C3.31013 12 3 11.6642 3 11.25V8.75C3 8.33578 3.31013 8 3.69271 8H6.61747C7.00004 8 7.31018 8.33578 7.31018 8.75ZM3 13.75V16.25C3 16.6642 3.31013 17 3.69271 17H6.61747C7.00004 17 7.31018 16.6642 7.31018 16.25V13.75C7.31018 13.3358 7.00004 13 6.61747 13H3.69271C3.31013 13 3 13.3358 3 13.75ZM6.61747 3H3.69271C3.31013 3 3 3.33578 3 3.75V6.25C3 6.66422 3.31013 7 3.69271 7H6.61747C7.00004 7 7.31018 6.66422 7.31018 6.25V3.75C7.31018 3.33578 7.00004 3 6.61747 3ZM8.92649 17H17.0851C17.4676 17 17.7778 16.6642 17.7778 16.25V13.75C17.7778 13.3358 17.4676 13 17.0851 13H8.92649C8.54392 13 8.23379 13.3358 8.23379 13.75V16.25C8.23379 16.6642 8.54392 17 8.92649 17ZM8.23379 3.75V6.25C8.23379 6.66422 8.54392 7 8.92649 7H17.0851C17.4676 7 17.7778 6.66422 17.7778 6.25V3.75C17.7778 3.33578 17.4676 3 17.0851 3H8.92649C8.54392 3 8.23379 3.33578 8.23379 3.75ZM8.92649 12H17.0851C17.4676 12 17.7778 11.6642 17.7778 11.25V8.75C17.7778 8.33578 17.4676 8 17.0851 8H8.92649C8.54392 8 8.23379 8.33578 8.23379 8.75V11.25C8.23379 11.6642 8.54392 12 8.92649 12Z" fill="#D6D5D6"/>
</svg>
