<svg width="65" height="11" viewBox="0 0 65 11" fill="none" xmlns="http://www.w3.org/2000/svg">
<path d="M6.31315 0.220642L4.62853 3.65233L0.843262 4.19308L3.58859 6.85527L2.94391 10.6198L6.31315 8.85189L9.68239 10.6198L9.03771 6.85527L11.783 4.19308L7.99777 3.65233L6.31315 0.220642Z" fill="#FECC00"/>
<path d="M19.4811 0.220642L17.7965 3.65233L14.0112 4.19308L16.7566 6.85527L16.1119 10.6198L19.4811 8.85189L22.8504 10.6198L22.2057 6.85527L24.951 4.19308L21.1657 3.65233L19.4811 0.220642Z" fill="#FECC00"/>
<path d="M32.6496 0.220642L30.965 3.65233L27.1797 4.19308L29.925 6.85527L29.2803 10.6198L32.6496 8.85189L36.0188 10.6198L35.3741 6.85527L38.1195 4.19308L34.3342 3.65233L32.6496 0.220642Z" fill="#FECC00"/>
<path d="M45.8175 0.220642L44.1329 3.65233L40.3477 4.19308L43.093 6.85527L42.4483 10.6198L45.8175 8.85189L49.1868 10.6198L48.5421 6.85527L51.2874 4.19308L47.5022 3.65233L45.8175 0.220642Z" fill="#FECC00"/>
<path d="M58.9858 0.220642L57.3011 3.65233L53.5159 4.19308L56.2612 6.85527L55.6165 10.6198L58.9858 8.85189L62.355 10.6198L61.7103 6.85527L64.4556 4.19308L60.6704 3.65233L58.9858 0.220642Z" fill="#FECC00"/>
</svg>
