<svg width="38" height="36" viewBox="0 0 38 36" fill="none" xmlns="http://www.w3.org/2000/svg">
<path d="M10.5923 13.1736C10.477 13.5286 10.5472 13.9177 10.7792 14.21L13.5348 17.6812L13.3458 22.109C13.3298 22.4819 13.5018 22.8379 13.8037 23.0572C14.1057 23.2767 14.4974 23.33 14.8471 23.1997L18.9998 21.6517L23.1526 23.1997C23.2788 23.2468 23.4105 23.2699 23.5414 23.2699C23.7733 23.2699 24.0029 23.1974 24.1959 23.0572C24.4978 22.8379 24.6698 22.4819 24.6538 22.109L24.4648 17.6812L27.2204 14.21C27.4524 13.9177 27.5225 13.5286 27.4073 13.1737C27.2919 12.8188 27.0065 12.5452 26.6469 12.4452L22.3774 11.2566L19.9276 7.56328C19.7213 7.25227 19.3729 7.06529 18.9998 7.06529C18.6266 7.06529 18.2782 7.25227 18.0719 7.56328L15.6222 11.2566L11.3526 12.4452C10.9932 12.5452 10.7077 12.8188 10.5923 13.1736ZM16.6193 13.2906C16.8772 13.2188 17.1006 13.0565 17.2486 12.8334L18.9999 10.193L20.7512 12.8333C20.8992 13.0564 21.1226 13.2187 21.3805 13.2905L24.4328 14.1402L22.4629 16.6217C22.2964 16.8313 22.211 17.0939 22.2225 17.3614L22.3576 20.5269L19.3889 19.4202C19.2635 19.3735 19.1317 19.3501 19 19.3501C18.8683 19.3501 18.7365 19.3735 18.6111 19.4202L15.6424 20.5269L15.7775 17.3614C15.7889 17.0939 15.7035 16.8313 15.5371 16.6217L13.5672 14.1402L16.6193 13.2906Z" fill="white"/>
<path d="M37.9302 13.2455C38.2718 11.2016 37.3812 9.13662 35.6059 7.85641C35.3245 7.65361 34.9646 7.59327 34.6325 7.69377C34.5793 7.70988 34.5268 7.72703 34.4744 7.74447C34.9905 5.84712 34.5368 3.87785 33.2348 2.49832C31.8125 0.991192 29.629 0.453484 27.5363 1.09459C27.2045 1.19621 26.9392 1.44666 26.8185 1.772C26.0574 3.82411 26.4682 6.03507 27.8905 7.5422C28.9163 8.62912 30.3379 9.21181 31.8358 9.21181C31.9313 9.21181 32.0273 9.20854 32.1233 9.20379C31.3727 9.97621 30.863 10.9517 30.682 12.0342C30.3877 13.7957 31.0091 15.5723 32.3226 16.8492C31.6207 17.1782 30.9926 17.6567 30.4865 18.2708C29.3294 19.6752 28.9872 21.5685 29.5284 23.3608C27.6587 23.8176 26.1737 25.2668 25.5867 27.2107C25.2292 27.4117 24.8613 27.5975 24.4885 27.7644C20.6109 29.4999 16.11 29.2893 12.4124 27.2092C11.8252 25.2662 10.3404 23.8175 8.47113 23.3608C9.01232 21.5685 8.67013 19.6752 7.51299 18.2708C7.0069 17.6566 6.37886 17.1781 5.67696 16.8491C6.99042 15.5722 7.61186 13.7956 7.31747 12.0341C7.1365 10.9517 6.62678 9.97621 5.87618 9.20379C5.97224 9.20854 6.06821 9.21181 6.16374 9.21181C7.66159 9.21181 9.08329 8.6289 10.109 7.5422C11.5313 6.035 11.9421 3.82404 11.181 1.772C11.0604 1.44666 10.795 1.19621 10.4633 1.09459C8.37032 0.453187 6.18713 0.991341 4.76469 2.49832C3.46273 3.87778 3.00905 5.84705 3.52516 7.74447C3.47275 7.7271 3.4202 7.70988 3.36705 7.69377C3.03503 7.59334 2.67517 7.65354 2.39362 7.85641C0.61853 9.13654 -0.272059 11.2016 0.0695385 13.2455C0.283761 14.5273 0.959015 15.659 1.94929 16.4813C1.94009 16.4833 1.93096 16.4851 1.92183 16.4872C1.58409 16.5663 1.30247 16.7983 1.16017 17.1147C0.262829 19.111 0.524037 21.3446 1.84188 22.9439C2.38041 23.5974 3.0573 24.0964 3.81413 24.4259C3.44195 24.7221 3.09886 25.0683 2.79512 25.4621C2.58327 25.7369 2.51157 26.0946 2.60124 26.4298C3.16678 28.5442 4.78028 30.1106 6.81213 30.5177C7.15595 30.5867 7.50134 30.6203 7.84457 30.6203C9.15744 30.6203 10.4378 30.1276 11.4647 29.2295C13.1216 30.1386 14.9122 30.728 16.7447 30.9937L13.7659 33.9211C13.3273 34.3521 13.3212 35.0571 13.7522 35.4956C13.9702 35.7174 14.2581 35.8286 14.5463 35.8286C14.828 35.8286 15.1099 35.7223 15.3267 35.5093L18.9999 31.8993L22.6732 35.5093C22.89 35.7223 23.1719 35.8286 23.4536 35.8286C23.7418 35.8286 24.0298 35.7174 24.2477 35.4956C24.6788 35.0571 24.6727 34.3521 24.234 33.9211L21.257 30.9954C22.6722 30.7907 24.0669 30.3927 25.3983 29.7968C25.7834 29.6245 26.1638 29.4338 26.5356 29.2298C27.5624 30.1277 28.8425 30.6202 30.1552 30.6202C30.4984 30.6202 30.8441 30.5866 31.1877 30.5177C33.2195 30.1105 34.833 28.5441 35.3986 26.4297C35.4882 26.0945 35.4165 25.7368 35.2047 25.4621C34.901 25.0683 34.5579 24.7219 34.1857 24.4258C34.9425 24.0963 35.6194 23.5974 36.1579 22.9439C37.4758 21.3445 37.7369 19.1109 36.8396 17.1147C36.6973 16.7982 36.4157 16.5662 36.078 16.4871C36.0688 16.485 36.0597 16.4833 36.0505 16.4812C37.0407 15.659 37.716 14.5272 37.9302 13.2455ZM6.38435 4.02683C7.09924 3.2694 8.16137 2.93456 9.25238 3.0969C9.47751 4.17625 9.20457 5.25634 8.48983 6.01377C7.77487 6.77126 6.71236 7.10626 5.62188 6.94362C5.3966 5.8642 5.66953 4.78418 6.38435 4.02683ZM3.25764 10.0313C4.25378 10.504 4.94952 11.374 5.12121 12.4012C5.2929 13.4285 4.91782 14.4776 4.12952 15.2483C3.13338 14.7757 2.43757 13.9057 2.26595 12.8784C2.09419 11.8512 2.46926 10.8021 3.25764 10.0313ZM3.56041 21.5278C2.89808 20.7241 2.6984 19.6281 2.99569 18.5663C4.09567 18.4777 5.13234 18.8833 5.79461 19.687C6.45694 20.4908 6.65662 21.5868 6.35934 22.6485C5.26024 22.7369 4.22275 22.3316 3.56041 21.5278ZM7.24963 28.3343C6.22847 28.1297 5.3813 27.4063 4.94091 26.3954C5.73686 25.6323 6.7975 25.2913 7.81851 25.4959C8.83982 25.7006 9.68698 26.4241 10.1273 27.4349C9.33136 28.198 8.27101 28.5393 7.24963 28.3343ZM34.7421 10.0313C35.5305 10.8021 35.9056 11.8512 35.7338 12.8784C35.5621 13.9057 34.8663 14.7757 33.8702 15.2483C33.0819 14.4775 32.7068 13.4284 32.8785 12.4013C33.0502 11.374 33.746 10.504 34.7421 10.0313ZM29.5101 6.01377C28.7952 5.25627 28.5222 4.17617 28.7474 3.09682C29.8383 2.93419 30.9006 3.26933 31.6154 4.02668C32.3303 4.7841 32.6032 5.8642 32.3779 6.94355C31.2873 7.10618 30.2248 6.77112 29.5101 6.01377ZM30.75 28.3344C29.729 28.5389 28.6683 28.198 27.8724 27.4349C28.3128 26.4241 29.1599 25.7006 30.1812 25.4959C31.202 25.2913 32.2628 25.6323 33.0588 26.3954C32.6184 27.4063 31.7713 28.1297 30.75 28.3344ZM34.4393 21.5279C33.7769 22.3317 32.7393 22.737 31.6404 22.6485C31.3431 21.5867 31.5429 20.4908 32.2051 19.687C32.8675 18.8832 33.9044 18.4775 35.0041 18.5663C35.3013 19.6281 35.1017 20.7241 34.4393 21.5279Z" fill="white"/>
</svg>
