<svg width="53" height="60" viewBox="0 0 53 60" fill="none" xmlns="http://www.w3.org/2000/svg">
<g filter="url(#filter0_d_2178_1240)">
<path fill-rule="evenodd" clip-rule="evenodd" d="M22.6985 59.0311L3.43684 47.689C0.0756302 45.594 0.0449371 45.5863 0.00656891 41.4731V18.1672C0.0602837 15.0362 0.0986519 15.0055 3.17592 13.0256L22.5297 1.4149C25.8986 -0.48057 25.9753 -0.465222 29.3979 1.42258L48.8131 12.9642C51.9518 14.8904 51.9671 14.9365 52.0132 18.4895V41.6803C51.9671 45.5479 51.9211 45.5479 48.6059 47.6276L29.3519 59.0081C27.0906 60.3229 24.8754 60.3306 22.7062 59.0311H22.6985Z" fill="white"/>
<path fill-rule="evenodd" clip-rule="evenodd" d="M19.0518 29.9039L24.4813 24.4744L22.6426 22.6356L14.0742 31.204L22.6426 39.7724L24.4813 37.9337L19.0518 32.5042L36.5065 32.5042L36.5065 29.9039L19.0518 29.9039Z" fill="#111111"/>
</g>
<defs>
<filter id="filter0_d_2178_1240" x="-41.5989" y="-31.204" width="135.217" height="143.211" filterUnits="userSpaceOnUse" color-interpolation-filters="sRGB">
<feFlood flood-opacity="0" result="BackgroundImageFix"/>
<feColorMatrix in="SourceAlpha" type="matrix" values="0 0 0 0 0 0 0 0 0 0 0 0 0 0 0 0 0 0 127 0" result="hardAlpha"/>
<feOffset dy="10.4013"/>
<feGaussianBlur stdDeviation="20.8026"/>
<feColorMatrix type="matrix" values="0 0 0 0 0 0 0 0 0 0 0 0 0 0 0 0 0 0 0.1 0"/>
<feBlend mode="normal" in2="BackgroundImageFix" result="effect1_dropShadow_2178_1240"/>
<feBlend mode="normal" in="SourceGraphic" in2="effect1_dropShadow_2178_1240" result="shape"/>
</filter>
</defs>
</svg>
