<svg width="52" height="60" viewBox="0 0 52 60" fill="none" xmlns="http://www.w3.org/2000/svg">
<g filter="url(#filter0_d_2178_1243)">
<path fill-rule="evenodd" clip-rule="evenodd" d="M29.3146 59.0311L48.5763 47.689C51.9376 45.594 51.9682 45.5863 52.0066 41.4731V18.1672C51.9529 15.0362 51.9145 15.0055 48.8373 13.0256L29.4835 1.4149C26.1146 -0.48057 26.0378 -0.465222 22.6152 1.42258L3.20005 12.9642C0.0613918 14.8904 0.0460439 14.9365 0 18.4895V41.6803C0.0460439 45.5479 0.0920878 45.5479 3.40725 47.6276L22.6613 59.0081C24.9226 60.3229 27.1378 60.3306 29.307 59.0311H29.3146Z" fill="white"/>
<path fill-rule="evenodd" clip-rule="evenodd" d="M32.9614 29.9039L27.5319 24.4744L29.3706 22.6356L37.939 31.204L29.3706 39.7724L27.5319 37.9337L32.9614 32.5042L15.5067 32.5042L15.5067 29.9039L32.9614 29.9039Z" fill="#111111"/>
</g>
<defs>
<filter id="filter0_d_2178_1243" x="-41.6053" y="-31.204" width="135.217" height="143.211" filterUnits="userSpaceOnUse" color-interpolation-filters="sRGB">
<feFlood flood-opacity="0" result="BackgroundImageFix"/>
<feColorMatrix in="SourceAlpha" type="matrix" values="0 0 0 0 0 0 0 0 0 0 0 0 0 0 0 0 0 0 127 0" result="hardAlpha"/>
<feOffset dy="10.4013"/>
<feGaussianBlur stdDeviation="20.8026"/>
<feColorMatrix type="matrix" values="0 0 0 0 0 0 0 0 0 0 0 0 0 0 0 0 0 0 0.1 0"/>
<feBlend mode="normal" in2="BackgroundImageFix" result="effect1_dropShadow_2178_1243"/>
<feBlend mode="normal" in="SourceGraphic" in2="effect1_dropShadow_2178_1243" result="shape"/>
</filter>
</defs>
</svg>
