<svg width="53" height="61" viewBox="0 0 53 61" fill="none" xmlns="http://www.w3.org/2000/svg">
<g filter="url(#filter0_d_2178_1419)">
<path fill-rule="evenodd" clip-rule="evenodd" d="M22.6985 59.4633L3.43684 48.1211C0.0756302 46.0261 0.0449371 46.0184 0.00656891 41.9052V18.5993C0.0602837 15.4683 0.0986519 15.4376 3.17592 13.4578L22.5297 1.84703C25.8986 -0.0484408 25.9753 -0.0330929 29.3979 1.85471L48.8131 13.3964C51.9518 15.3225 51.9671 15.3686 52.0132 18.9216V42.1124C51.9671 45.9801 51.9211 45.9801 48.6059 48.0597L29.3519 59.4402C27.0906 60.755 24.8754 60.7627 22.7062 59.4633H22.6985Z" fill="white"/>
<path fill-rule="evenodd" clip-rule="evenodd" d="M19.0518 30.3359L24.4813 24.9064L22.6426 23.0677L14.0742 31.6361L22.6426 40.2045L24.4813 38.3658L19.0518 32.9363L36.5065 32.9363L36.5065 30.336L19.0518 30.3359Z" fill="#111111"/>
</g>
<defs>
<filter id="filter0_d_2178_1419" x="-41.5989" y="-30.7718" width="135.217" height="143.211" filterUnits="userSpaceOnUse" color-interpolation-filters="sRGB">
<feFlood flood-opacity="0" result="BackgroundImageFix"/>
<feColorMatrix in="SourceAlpha" type="matrix" values="0 0 0 0 0 0 0 0 0 0 0 0 0 0 0 0 0 0 127 0" result="hardAlpha"/>
<feOffset dy="10.4013"/>
<feGaussianBlur stdDeviation="20.8026"/>
<feColorMatrix type="matrix" values="0 0 0 0 0 0 0 0 0 0 0 0 0 0 0 0 0 0 0.1 0"/>
<feBlend mode="normal" in2="BackgroundImageFix" result="effect1_dropShadow_2178_1419"/>
<feBlend mode="normal" in="SourceGraphic" in2="effect1_dropShadow_2178_1419" result="shape"/>
</filter>
</defs>
</svg>
