<svg width="50" height="20" viewBox="0 0 50 20" fill="none" xmlns="http://www.w3.org/2000/svg">
<rect x="0.505163" y="0.378698" width="48.1733" height="19.2426" rx="9.6213" stroke="#111111" stroke-width="0.757396"/>
<path d="M15.2155 7.08765C13.6096 7.08765 12.3031 8.39413 12.3031 10C12.3031 11.6059 13.6096 12.9124 15.2155 12.9124C16.8213 12.9124 18.1278 11.6059 18.1278 10C18.1278 8.39413 16.8213 7.08765 15.2155 7.08765ZM15.2155 11.9416C14.1449 11.9416 13.2739 11.0706 13.2739 10C13.2739 8.92942 14.1449 8.05844 15.2155 8.05844C16.286 8.05844 17.157 8.92942 17.157 10C17.157 11.0706 16.286 11.9416 15.2155 11.9416Z" fill="#111111"/>
<path d="M15.7009 3.78699H14.7301V6.11687H15.7009V3.78699Z" fill="#111111"/>
<path d="M11.3323 9.51461H9.00244V10.4854H11.3323V9.51461Z" fill="#111111"/>
<path d="M15.7009 13.8831H14.7301V16.213H15.7009V13.8831Z" fill="#111111"/>
<path d="M21.4285 9.51461H19.0986V10.4854H21.4285V9.51461Z" fill="#111111"/>
<path d="M19.2654 5.26346L17.618 6.9109L18.3044 7.59734L19.9519 5.9499L19.2654 5.26346Z" fill="#111111"/>
<path d="M11.1654 5.26339L10.479 5.94983L12.1264 7.59728L12.8128 6.91083L11.1654 5.26339Z" fill="#111111"/>
<path d="M12.1263 12.4025L10.4788 14.0499L11.1653 14.7363L12.8127 13.0889L12.1263 12.4025Z" fill="#111111"/>
<path d="M18.3044 12.4025L17.618 13.089L19.2654 14.7364L19.9518 14.05L18.3044 12.4025Z" fill="#111111"/>
<path d="M39.7905 8.00633C39.2576 6.68828 38.2431 5.65654 36.9339 5.10116H36.9338C35.9101 4.66692 34.7552 4.5599 33.6819 4.79983L33.4733 4.84647L33.2189 5.44546L33.8701 5.7217C35.2074 6.28892 36.0673 7.58313 36.0608 9.01889C36.0587 9.48329 35.9618 9.94459 35.7726 10.3901C35.0064 12.1944 32.9063 13.0359 31.0909 12.2658L30.44 11.9897L30.1855 12.5889L30.2975 12.7716C30.873 13.7107 31.7523 14.4664 32.7734 14.8996C33.4425 15.1834 34.1474 15.3254 34.853 15.3254C35.5281 15.3254 36.2038 15.1953 36.8485 14.9349C38.1672 14.4023 39.1995 13.3883 39.7552 12.0797C40.3109 10.7711 40.3234 9.32444 39.7905 8.00633ZM38.9893 11.7545C38.0215 14.0337 35.3788 15.1009 33.0983 14.1336C32.6402 13.9393 32.216 13.6683 31.8461 13.3382C32.6133 13.454 33.3989 13.3652 34.1347 13.071C35.2249 12.635 36.0786 11.7984 36.5385 10.7153C36.7711 10.1676 36.8904 9.59814 36.8929 9.02264C36.8992 7.62893 36.2454 6.34384 35.1648 5.51881C35.6592 5.55538 36.1495 5.67235 36.6089 5.86721C37.7136 6.33579 38.5695 7.20625 39.0191 8.31824C39.4687 9.43018 39.4581 10.6505 38.9893 11.7545Z" fill="#D6D5D6"/>
</svg>
