<svg width="70" height="60" viewBox="0 0 70 60" fill="none" xmlns="http://www.w3.org/2000/svg">
<rect width="70" height="60" fill="#EDEDED"/>
<path d="M35 22.5146C36.345 22.5146 37.5146 23.6257 37.5146 25.0292C37.5146 26.3743 36.345 27.4854 35 27.4854C33.655 27.4854 32.4854 26.3743 32.4854 25.0292C32.4854 23.6257 33.655 22.5146 35 22.5146ZM35 33.7427C38.3918 33.7427 42.2515 35.3801 42.4854 36.2573V37.4854H27.5146V36.2573C27.7485 35.3801 31.6082 33.7427 35 33.7427ZM35 20C32.2515 20 30.0292 22.2807 30.0292 25.0292C30.0292 27.7778 32.2515 30 35 30C37.7485 30 39.9708 27.7778 39.9708 25.0292C39.9708 22.2807 37.7485 20 35 20ZM35 31.2281C31.6667 31.2281 25 32.924 25 36.2573V40H45V36.2573C45 32.924 38.3333 31.2281 35 31.2281Z" fill="#111111"/>
</svg>
