<svg width="36" height="36" viewBox="0 0 36 36" fill="none" xmlns="http://www.w3.org/2000/svg">
<path d="M10.4121 17.2349H5.62695C5.06066 17.2349 4.60156 17.694 4.60156 18.2603C4.60156 18.8265 5.06066 19.2856 5.62695 19.2856H10.4121C10.9784 19.2856 11.4375 18.8265 11.4375 18.2603C11.4375 17.694 10.9784 17.2349 10.4121 17.2349Z" fill="white"/>
<path d="M10.4121 13.1333H5.62695C5.06066 13.1333 4.60156 13.5924 4.60156 14.1587C4.60156 14.725 5.06066 15.1841 5.62695 15.1841H10.4121C10.9784 15.1841 11.4375 14.725 11.4375 14.1587C11.4375 13.5924 10.9784 13.1333 10.4121 13.1333Z" fill="white"/>
<path d="M34.4746 24.2075H33.4492V21.8149C33.4492 19.9804 32.5937 18.3428 31.2617 17.2772V4.58838C31.2617 2.51524 29.5751 0.828613 27.502 0.828613H4.25977C2.18663 0.828613 0.5 2.51524 0.5 4.58838V19.6274C0.5 21.7006 2.18663 23.3872 4.25977 23.3872H21.8281V24.2075H20.8027C20.2364 24.2075 19.7773 24.6666 19.7773 25.2329V34.8032C19.7773 35.3695 20.2364 35.8286 20.8027 35.8286H34.4746C35.0409 35.8286 35.5 35.3695 35.5 34.8032V25.2329C35.5 24.6666 35.0409 24.2075 34.4746 24.2075ZM31.3984 21.8149V24.2075H23.8789V21.8149C23.8789 19.7418 25.5655 18.0552 27.6387 18.0552C29.7118 18.0552 31.3984 19.7418 31.3984 21.8149ZM2.55078 4.58838C2.55078 3.64604 3.31743 2.87939 4.25977 2.87939H27.502C28.4443 2.87939 29.2109 3.64604 29.2109 4.58838V4.93018H2.55078V4.58838ZM2.55078 6.98096H29.2109V9.03174H2.55078V6.98096ZM4.25977 21.3364C3.31743 21.3364 2.55078 20.5698 2.55078 19.6274V11.0825H29.2109V16.2223C28.7105 16.0814 28.1836 16.0044 27.6387 16.0044C24.596 16.0044 22.0938 18.3557 21.8495 21.3364H4.25977ZM33.4492 33.7778H21.8281V26.2583H33.4492V33.7778Z" fill="white"/>
<path d="M27.6387 32.0688C28.205 32.0688 28.6641 31.6097 28.6641 31.0435V28.9927C28.6641 28.4264 28.205 27.9673 27.6387 27.9673C27.0724 27.9673 26.6133 28.4264 26.6133 28.9927V31.0435C26.6133 31.6097 27.0724 32.0688 27.6387 32.0688Z" fill="white"/>
</svg>
