<svg width="16" height="12" viewBox="0 0 16 12" fill="none" xmlns="http://www.w3.org/2000/svg">
<path d="M14.125 0.328857H1.875C0.841125 0.328857 0 1.11629 0 2.08418V9.57354C0 10.5414 0.841125 11.3289 1.875 11.3289H14.125C15.1589 11.3289 16 10.5414 16 9.57354V2.08418C16 1.11629 15.1589 0.328857 14.125 0.328857ZM14.75 9.57354C14.75 9.89617 14.4696 10.1586 14.125 10.1586H1.875C1.53038 10.1586 1.25 9.89617 1.25 9.57354V2.08418C1.25 1.76155 1.53038 1.49907 1.875 1.49907H14.125C14.4696 1.49907 14.75 1.76155 14.75 2.08418V9.57354Z" fill="#BF9900"/>
<path d="M14.6439 1.0584L8 5.68475L1.35612 1.0584L0.610062 1.99735L8 7.14318L15.3899 1.99735L14.6439 1.0584Z" fill="#BF9900"/>
</svg>
