<svg width="10" height="18" fill="none" xmlns="http://www.w3.org/2000/svg"><path fill-rule="evenodd" clip-rule="evenodd" d="M2.796 9.668H.7c-.338 0-.442-.13-.442-.443V6.66c0-.339.13-.47.442-.47h2.096V4.329c-.026-.82.17-1.654.573-2.396A3.53 3.53 0 0 1 5.256.37 4.572 4.572 0 0 1 6.87.096h2.07c.299 0 .43.13.43.43v2.409c0 .3-.131.43-.43.43-.573 0-1.146 0-1.718.026-.573.026-.873.273-.873.872-.026.639 0 1.25 0 1.902h2.434c.339 0 .469.13.469.469v2.565c0 .339-.104.47-.469.47H6.375v6.889c0 .365-.13.482-.481.482H3.252c-.313 0-.443-.13-.443-.443V9.668h-.013Z" fill="#020001"/></svg>