<svg width="46" height="28" viewBox="0 0 46 28" fill="none" xmlns="http://www.w3.org/2000/svg">
<path fill-rule="evenodd" clip-rule="evenodd" d="M18.4159 20.7873H32.1392C33.6931 16.2126 40.1767 16.2565 41.7155 20.7873H42.8622V14.1931C42.8622 13.3716 42.1889 12.6983 41.3677 12.6983C37.9973 12.6983 34.6269 12.6983 31.2565 12.6983C30.528 12.6983 29.9375 12.1078 29.9375 11.3796V3.46636H7.34131V5.04874H9.7662C11.5024 5.04874 11.5024 7.68649 9.7662 7.68649H7.34131V10.2363H13.6718C15.4084 10.2363 15.4084 12.8741 13.6718 12.8741H7.34131V20.787H8.83992C10.3935 16.2122 16.8774 16.2569 18.4159 20.7873ZM4.70356 7.68649H3.12119C1.38466 7.68649 1.38466 5.04874 3.12119 5.04874H4.70356V2.14732C4.70356 1.41913 5.29408 0.828613 6.02261 0.828613C8.041 0.828613 30.2234 0.837196 30.2234 0.828613C33.8338 0.828613 36.9787 2.61595 38.8292 5.72131L41.4151 10.0609C43.6717 10.0863 45.4999 11.9324 45.4999 14.1928V22.1061C45.4999 22.8342 44.9094 23.4248 44.1812 23.4248H41.882C41.4092 25.7525 39.3524 27.4691 36.9275 27.4691C34.5026 27.4691 32.4458 25.7525 31.973 23.4248H18.5824C18.1096 25.7525 16.0528 27.4691 13.6279 27.4691C11.203 27.4691 9.14616 25.7525 8.6734 23.4248H6.02261C5.29408 23.4248 4.70356 22.8342 4.70356 22.1061V18.1493H1.80214C0.0659539 18.1493 0.0659539 15.5118 1.80214 15.5118H4.70356V12.8741H1.80214C0.0659539 12.8741 0.0659539 10.2363 1.80214 10.2363H4.70356V7.68649ZM38.6373 20.7039C39.5814 21.6481 39.5814 23.1793 38.6373 24.1234C37.1184 25.6423 34.5095 24.5618 34.5095 22.4137C34.5095 20.2655 37.1184 19.1851 38.6373 20.7039ZM38.354 10.0606H32.5752V3.82376C34.2578 4.36312 35.6339 5.4954 36.5725 7.07091L38.354 10.0606ZM15.3376 20.7039C16.2818 21.6481 16.2818 23.1793 15.3376 24.1234C13.8188 25.6423 11.2099 24.5618 11.2099 22.4137C11.2102 20.2655 13.8188 19.1851 15.3376 20.7039Z" fill="white"/>
</svg>
