<svg width="36" height="37" viewBox="0 0 36 37" fill="none" xmlns="http://www.w3.org/2000/svg">
<g filter="url(#filter0_d_2178_973)">
<rect y="0.828857" width="36" height="36" rx="18" fill="white"/>
<path fill-rule="evenodd" clip-rule="evenodd" d="M16.5491 19.6213H15.0403C14.7966 19.6213 14.7216 19.5275 14.7216 19.3025C14.7216 18.6929 14.7216 18.0647 14.7216 17.4551C14.7216 17.2113 14.8154 17.1176 15.0403 17.1176H16.5491V15.7766C16.5304 15.1859 16.6709 14.5857 16.9614 14.0512C17.2707 13.5167 17.758 13.1229 18.3203 12.926C18.7046 12.7853 19.0794 12.729 19.4824 12.729H20.9725C21.188 12.729 21.2817 12.8228 21.2817 13.0385V14.7733C21.2817 14.9889 21.188 15.0827 20.9725 15.0827C20.5601 15.0827 20.1478 15.0827 19.7354 15.1015C19.3231 15.1202 19.1075 15.2984 19.1075 15.7297C19.0888 16.1892 19.1075 16.63 19.1075 17.0988H20.86C21.1037 17.0988 21.1974 17.1926 21.1974 17.4364V19.2837C21.1974 19.5275 21.1224 19.6213 20.86 19.6213H19.1263V24.5818C19.1263 24.8444 19.0326 24.9288 18.7795 24.9288H16.8771C16.6522 24.9288 16.5585 24.835 16.5585 24.61V19.6213H16.5491Z" fill="#111111"/>
</g>
<defs>
<filter id="filter0_d_2178_973" x="-14.4" y="-12.1311" width="64.8" height="64.8" filterUnits="userSpaceOnUse" color-interpolation-filters="sRGB">
<feFlood flood-opacity="0" result="BackgroundImageFix"/>
<feColorMatrix in="SourceAlpha" type="matrix" values="0 0 0 0 0 0 0 0 0 0 0 0 0 0 0 0 0 0 127 0" result="hardAlpha"/>
<feOffset dy="1.44"/>
<feGaussianBlur stdDeviation="7.2"/>
<feColorMatrix type="matrix" values="0 0 0 0 0 0 0 0 0 0 0 0 0 0 0 0 0 0 0.1 0"/>
<feBlend mode="normal" in2="BackgroundImageFix" result="effect1_dropShadow_2178_973"/>
<feBlend mode="normal" in="SourceGraphic" in2="effect1_dropShadow_2178_973" result="shape"/>
</filter>
</defs>
</svg>
