<svg width="76" height="20" viewBox="0 0 76 20" fill="none" xmlns="http://www.w3.org/2000/svg">
<g opacity="0.6">
<path fill-rule="evenodd" clip-rule="evenodd" d="M12.3489 6C12.5283 6 12.6901 6.10788 12.7591 6.2735L15.7221 13.3845C15.8165 13.6111 15.7093 13.8713 15.4828 13.9657C15.2562 14.0601 14.996 13.953 14.9016 13.7264L14.0279 11.6296H10.6699L9.79621 13.7264C9.7018 13.953 9.4416 14.0601 9.21502 13.9657C8.98844 13.8713 8.8813 13.6111 8.97571 13.3845L11.9386 6.2735C12.0076 6.10788 12.1695 6 12.3489 6ZM12.3489 7.59998L13.6575 10.7407H11.0403L12.3489 7.59998ZM21.6821 11.1851V13.5555C21.6821 13.8009 21.4831 13.9999 21.2377 13.9999C20.9922 13.9999 20.7932 13.8009 20.7932 13.5555V13.2379C20.2897 13.7105 19.6123 13.9999 18.8673 13.9999C17.3127 13.9999 16.0525 12.7397 16.0525 11.1851C16.0525 9.63056 17.3127 8.37034 18.8673 8.37034C19.6123 8.37034 20.2897 8.65977 20.7932 9.13233V8.81478C20.7932 8.56932 20.9922 8.37034 21.2377 8.37034C21.4831 8.37034 21.6821 8.56932 21.6821 8.81478V11.1851ZM20.7932 11.1851C20.7932 12.2487 19.9309 13.111 18.8673 13.111C17.8037 13.111 16.9414 12.2487 16.9414 11.1851C16.9414 10.1215 17.8037 9.25922 18.8673 9.25922C19.9309 9.25922 20.7932 10.1215 20.7932 11.1851Z" fill="#111111"/>
<path fill-rule="evenodd" clip-rule="evenodd" d="M31.5155 5.5C31.7174 5.5 31.8994 5.62137 31.9771 5.80769L35.3104 13.8076C35.4166 14.0625 35.296 14.3552 35.0412 14.4614C34.7862 14.5676 34.4935 14.4471 34.3873 14.1922L33.4044 11.8332H29.6267L28.6438 14.1922C28.5376 14.4471 28.2448 14.5676 27.9899 14.4614C27.735 14.3552 27.6145 14.0625 27.7207 13.8076L31.054 5.80769C31.1316 5.62137 31.3137 5.5 31.5155 5.5ZM31.5155 7.29998L32.9877 10.8333H30.0433L31.5155 7.29998ZM42.0154 11.3333V13.9999C42.0154 14.276 41.7915 14.4999 41.5154 14.4999C41.2393 14.4999 41.0154 14.276 41.0154 13.9999V13.6426C40.449 14.1743 39.6869 14.4999 38.8488 14.4999C37.0999 14.4999 35.6822 13.0822 35.6822 11.3333C35.6822 9.58438 37.0999 8.16663 38.8488 8.16663C39.6869 8.16663 40.449 8.49225 41.0154 9.02387V8.66662C41.0154 8.39049 41.2393 8.16663 41.5154 8.16663C41.7915 8.16663 42.0154 8.39049 42.0154 8.66662V11.3333ZM41.0154 11.3333C41.0154 12.5298 40.0454 13.4999 38.8488 13.4999C37.6522 13.4999 36.6821 12.5298 36.6821 11.3333C36.6821 10.1367 37.6522 9.16662 38.8488 9.16662C40.0454 9.16662 41.0154 10.1367 41.0154 11.3333Z" fill="#999598"/>
<path fill-rule="evenodd" clip-rule="evenodd" d="M53.1264 4C53.3955 4 53.6382 4.16182 53.7417 4.41025L58.1861 15.0767C58.3277 15.4166 58.167 15.807 57.8272 15.9486C57.4873 16.0901 57.097 15.9294 56.9554 15.5896L55.6448 12.4443H50.6079L49.2973 15.5896C49.1557 15.9294 48.7654 16.0901 48.4256 15.9486C48.0857 15.807 47.925 15.4166 48.0666 15.0767L52.511 4.41025C52.6145 4.16182 52.8572 4 53.1264 4ZM53.1264 6.39997L55.0893 11.111H51.1634L53.1264 6.39997ZM67.1262 11.7777V15.3332C67.1262 15.7014 66.8277 15.9998 66.4595 15.9998C66.0913 15.9998 65.7929 15.7014 65.7929 15.3332V14.8568C65.0376 15.5657 64.0215 15.9998 62.904 15.9998C60.5721 15.9998 58.6818 14.1096 58.6818 11.7777C58.6818 9.44584 60.5721 7.55551 62.904 7.55551C64.0215 7.55551 65.0376 7.98966 65.7929 8.6985V8.22217C65.7929 7.85398 66.0913 7.55551 66.4595 7.55551C66.8277 7.55551 67.1262 7.85398 67.1262 8.22217V11.7777ZM65.7929 11.7777C65.7929 13.3731 64.4994 14.6665 62.904 14.6665C61.3086 14.6665 60.0152 13.3731 60.0152 11.7777C60.0152 10.1822 61.3086 8.88882 62.904 8.88882C64.4994 8.88882 65.7929 10.1822 65.7929 11.7777Z" fill="#999598"/>
</g>
</svg>
