<svg width="349" height="22" viewBox="0 0 349 22" fill="none" xmlns="http://www.w3.org/2000/svg">
<path fill-rule="evenodd" clip-rule="evenodd" d="M7.12552 10.7436L7.32135 9.97062C8.07377 9.74387 9.60952 9.6408 9.89811 10.4551C10.063 10.9292 9.5889 12.8978 9.49614 13.475L8.76434 13.4853C8.59943 13.2792 8.73342 13.6605 8.62004 13.1555C7.91916 13.7842 6.42464 13.6812 6.53802 12.4134C6.6514 11.1559 7.74394 11.3208 8.92925 11.1353C8.90864 10.3314 7.89855 10.5478 7.11521 10.7333L7.12552 10.7436ZM12.6398 10.62C11.9698 10.62 11.8668 10.4757 11.2793 10.7333C11.3514 11.4651 11.7328 11.1765 12.2584 11.527C13.2582 12.1866 12.1863 14.2274 9.80535 13.3513L9.93934 12.6092C10.6093 12.7432 10.9494 12.8772 11.4648 12.5886C11.5885 11.5476 9.74351 12.2279 10.2589 10.5581C10.5371 9.6511 11.7637 9.77479 12.7738 9.86755L12.6295 10.62H12.6398ZM2.37398 9.04299L3.95095 9.09452L4.11587 11.5682L4.97135 9.58926C5.25995 8.87808 5.06411 9.03268 6.87815 9.0533L6.0639 13.475L5.17749 13.4647L5.66192 10.2901L4.35293 13.4853L3.2913 13.4544C3.26038 12.836 3.20885 10.6612 3.04394 10.2489L2.50797 13.4647L1.58034 13.4544L2.37398 9.04299ZM17.4119 18.4327L17.8448 17.9173C16.979 17.804 16.8244 18.0513 16.4328 17.3505L18.422 17.3298C18.5457 17.1237 18.7519 16.9279 18.8549 16.6908C16.5874 16.5362 15.9483 17.1134 15.5876 16.1239H19.226L19.6279 15.4952L15.1341 15.4746L14.9279 14.9489L19.7722 14.9283C20.0505 14.7737 20.0505 14.5985 20.1227 14.279L15.5361 14.2687C14.7115 14.279 14.66 14.4645 14.5054 13.7121H20.2773L20.4628 13.073L18.7725 13.0524L18.69 13.4853L17.7211 13.4441L18.3293 9.84694L19.2466 9.97062C19.2466 9.99123 19.2672 10.0634 19.2672 10.0943C19.2672 10.1149 19.2775 10.1458 19.2775 10.1561L19.329 10.3417C19.5867 10.0325 19.7516 9.80571 20.3494 9.82632L20.0402 10.6612C19.865 10.8879 19.3497 10.6303 19.1332 11.2487L20.1433 11.2899C20.2567 10.6406 20.3804 10.4447 20.5659 9.91909L20.5762 9.60987L14.258 9.62018L14.2374 9.84694C14.5775 9.84694 14.5672 9.78509 14.763 9.95001L14.6703 10.5581C14.0312 10.7127 14.0518 10.3314 13.99 11.1662C14.0828 11.3208 13.9694 11.2384 14.1652 11.2899L14.5672 11.3002C15.2165 9.18729 17.1543 9.6511 17.5975 10.3108C17.8345 10.6612 18.0716 11.8156 17.4841 11.9083L15.5154 11.929C15.6082 12.97 16.8038 12.7535 17.5769 12.4958C17.5459 12.9287 17.5768 13.2792 17.1749 13.4235C16.8554 13.5369 16.1854 13.5059 15.835 13.4235C14.9692 13.2276 14.5981 12.7947 14.5363 11.8568L14.1652 11.8465C13.8251 11.6919 14.0931 11.8465 13.9179 11.4239C13.7736 12.2897 13.3819 12.8463 14.4538 12.7226C14.392 13.2379 14.4641 13.4132 13.8972 13.475C12.2481 13.6708 12.7841 12.568 13.0521 11.0941C13.4747 8.74408 13.1448 9.03268 14.3404 9.0533L20.4834 9.0636L20.3597 8.42457L14.4229 8.40395L14.5363 7.8886L20.1536 7.85768C20.0093 6.98158 19.9784 7.19803 17.9376 7.19803C16.8966 7.19803 15.8659 7.19803 14.8249 7.19803C15.0413 6.44562 14.9279 6.65176 16.9481 6.65176H19.6795L19.3909 6.00241L15.433 5.99211L15.701 5.45614L19.0095 5.43553C18.5869 4.56974 18.6076 4.8171 16.2679 4.77588C16.5668 4.03377 17.0924 4.2193 18.0097 4.2193C17.7521 3.80701 17.5665 3.83794 17.4119 3.4875C17.0306 3.29166 16.6904 2.94122 16.3091 2.67324C13.3922 0.611834 9.4343 0.395387 6.25973 1.94144C3.40468 3.32258 0.601168 6.51777 0.632089 10.9395C0.673318 17.2577 6.2185 21.8649 12.4955 20.793C15.4433 20.288 16.1854 19.0923 17.4016 18.4224L17.4119 18.4327Z" fill="#E41D2C"/>
<path fill-rule="evenodd" clip-rule="evenodd" d="M24.1424 9.9397C27.3376 9.29036 26.812 10.8673 26.5543 12.1454C26.4718 12.5268 26.4718 13.2792 26.1729 13.4853C26.1008 13.4853 25.6782 13.4956 25.637 13.475C25.3484 13.3616 25.4823 13.7018 25.4411 13.1761C24.5753 13.6708 23.2045 13.7842 23.3694 12.4031C23.5034 11.3002 24.6166 11.125 25.7503 11.1765C25.7091 10.3623 24.967 10.4963 23.9363 10.754L24.1527 9.9397H24.1424ZM27.2964 9.84694L28.1519 9.85724C28.1622 9.87786 28.1725 9.90878 28.1725 9.92939L28.3065 10.3108C28.4611 10.0737 28.7497 9.86755 29.2032 9.85724L29.0795 10.589L28.6569 10.754C27.8117 11.0322 27.8633 12.0939 27.6365 13.4853H26.678L27.2964 9.84694ZM31.8418 9.0636H32.7179L31.9655 13.4956C30.9863 13.5059 31.2234 13.5575 30.9142 13.1864C30.2751 14.1347 28.358 13.2586 28.9455 11.3002C29.3784 9.83663 30.842 9.44496 31.5635 10.3108L31.8521 9.0533L31.8418 9.0636ZM17.4222 3.4978C17.5769 3.84824 17.7727 3.81732 18.0201 4.2296C17.1027 4.2296 16.5771 4.03377 16.2782 4.78618C18.6179 4.82741 18.5972 4.58004 19.0198 5.44583L15.7113 5.46645L15.4433 6.00241L19.4012 6.01272L19.6898 6.66206C18.7828 6.66206 17.8758 6.66206 16.9584 6.66206C14.9486 6.66206 15.0516 6.46623 14.8352 7.20834H17.9479C19.9887 7.20834 20.0196 6.99189 20.1639 7.86799L14.5466 7.89891L14.4332 8.41426L20.3701 8.43487L20.4937 9.07391L14.3508 9.0636L14.2683 9.6408L20.5865 9.63049L20.5762 9.9397C21.0503 9.48619 20.9679 9.24913 21.8543 8.99145C22.5861 8.78531 23.0499 8.93992 23.7714 9.09452L23.6168 10.0428C22.3799 9.67172 21.576 9.76448 21.2874 11.0426C20.9679 12.4134 22.0501 12.9287 23.1942 12.3825C23.0911 13.3822 22.9262 13.6296 21.7512 13.475C20.9369 13.3719 20.6896 12.9803 20.3288 12.4958H18.8549L18.7725 13.0627L20.4628 13.0833L20.2773 13.7224H14.5054C14.66 14.4748 14.7115 14.2893 15.5361 14.279L20.1227 14.2893C20.0402 14.5985 20.0505 14.784 19.7723 14.9386L14.9279 14.9592L15.1341 15.4849L19.628 15.5055L19.226 16.1342H15.5876C15.9483 17.1134 16.5874 16.5465 18.8549 16.7011C18.7519 16.9382 18.5457 17.134 18.422 17.3402L16.4328 17.3608C16.8141 18.0513 16.979 17.8143 17.8448 17.9277L17.4119 18.443C18.8858 19.5252 20.0299 20.4323 22.4109 20.8445C24.5753 21.2156 26.8326 20.8033 28.5745 19.9478C36.1192 16.227 35.9131 5.50768 28.5126 1.96206C25.8534 0.694291 22.3284 0.580914 19.5764 2.0239C18.2468 2.71447 17.9273 3.20921 17.4326 3.50811L17.4222 3.4978Z" fill="#F8B02B"/>
<path fill-rule="evenodd" clip-rule="evenodd" d="M1.58034 13.4647L2.50797 13.475L3.04394 10.2592C3.20885 10.6715 3.26038 12.8463 3.2913 13.4647L4.35293 13.4956L5.66192 10.3004L5.17749 13.475L6.0639 13.4853L6.87815 9.0636C5.06411 9.04299 5.25995 8.88838 4.97135 9.59957L4.11587 11.5785L3.95095 9.10483L2.37398 9.0533L1.58034 13.4647Z" fill="#FEFEFE"/>
<path fill-rule="evenodd" clip-rule="evenodd" d="M30.2957 12.6504C29.5227 11.8568 30.1824 10.5375 30.9038 10.7127C31.615 10.8879 31.481 12.6298 30.2957 12.6504ZM31.5532 10.3108C30.8317 9.44496 29.3784 9.83663 28.9352 11.3002C28.3477 13.2483 30.2648 14.1347 30.9038 13.1864C31.2131 13.5575 30.976 13.4956 31.9552 13.4956L32.7076 9.0636H31.8315L31.5429 10.3211L31.5532 10.3108Z" fill="#FEFEFE"/>
<path fill-rule="evenodd" clip-rule="evenodd" d="M24.4723 12.6608C24.328 11.9702 24.967 11.7022 25.5751 11.8259C25.606 12.5268 25.1113 12.9081 24.4723 12.6608ZM24.1424 9.95L23.926 10.7643C24.9567 10.5169 25.7091 10.3829 25.74 11.1868C24.6062 11.1353 23.4931 11.3105 23.3591 12.4134C23.1839 13.7945 24.565 13.6812 25.4308 13.1864C25.472 13.7121 25.338 13.3719 25.6266 13.4853C25.6679 13.5059 26.0905 13.4956 26.1626 13.4956C26.4718 13.2998 26.4718 12.5371 26.544 12.1557C26.812 10.8673 27.3273 9.30066 24.1321 9.95H24.1424Z" fill="#FEFEFE"/>
<path fill-rule="evenodd" clip-rule="evenodd" d="M8.76434 11.795C8.78495 12.1454 8.72311 12.4134 8.49636 12.5886C8.34175 12.702 7.87793 12.836 7.69241 12.6608C7.11521 12.1351 8.19745 11.7847 8.75403 11.795H8.76434ZM7.12552 10.7436C7.90885 10.5581 8.91894 10.3417 8.93956 11.1456C7.75425 11.3312 6.6617 11.1662 6.54833 12.4237C6.42464 13.6915 7.91916 13.7945 8.63035 13.1658C8.74372 13.6708 8.60973 13.2895 8.77464 13.4956L9.50644 13.4853C9.59921 12.8978 10.0733 10.9395 9.90842 10.4654C9.61982 9.6408 8.09438 9.74387 7.33166 9.98093L7.13583 10.754L7.12552 10.7436Z" fill="#FEFEFE"/>
<path fill-rule="evenodd" clip-rule="evenodd" d="M15.67 11.259C15.804 10.7333 16.0308 10.5169 16.6389 10.5994C16.8554 10.9086 16.8554 10.8158 16.8966 11.259H15.67ZM14.5775 11.3105L14.5363 11.8671C14.5981 12.8051 14.9795 13.2276 15.835 13.4338C16.1854 13.5162 16.8554 13.5472 17.1749 13.4338C17.5769 13.2998 17.5459 12.939 17.5769 12.5062C16.8038 12.7638 15.6082 12.9803 15.5154 11.9393L17.4841 11.9187C18.0716 11.8259 17.8345 10.6818 17.5975 10.3211C17.1543 9.66141 15.2165 9.19759 14.5672 11.3105H14.5775Z" fill="#FEFEFE"/>
<path fill-rule="evenodd" clip-rule="evenodd" d="M20.5762 9.9397C20.3907 10.4654 20.267 10.6612 20.1536 11.3105V11.8774L20.3288 12.5062C20.6896 12.9906 20.9369 13.3823 21.7512 13.4853C22.9262 13.6399 23.0911 13.3926 23.1942 12.3928C22.0398 12.939 20.9679 12.4237 21.2874 11.0529C21.5863 9.76448 22.3902 9.68203 23.6168 10.0531L23.7714 9.10483C23.0499 8.96053 22.5861 8.80593 21.8543 9.00176C20.9679 9.24913 21.0503 9.4965 20.5762 9.95001V9.9397Z" fill="#FEFEFE"/>
<path fill-rule="evenodd" clip-rule="evenodd" d="M12.7738 9.86755C11.7637 9.78509 10.5371 9.6511 10.2589 10.5581C9.74351 12.2279 11.5782 11.5476 11.4648 12.5886C10.9391 12.8772 10.6093 12.7432 9.93934 12.6092L9.80535 13.3513C12.1863 14.2274 13.2479 12.1969 12.2584 11.527C11.7328 11.1765 11.3514 11.4754 11.2793 10.7333C11.8668 10.4654 11.9595 10.62 12.6398 10.62L12.7841 9.86755L12.7738 9.86755Z" fill="#FEFEFE"/>
<path fill-rule="evenodd" clip-rule="evenodd" d="M13.9282 11.4342L14.0003 11.1869C14.0622 10.352 14.0415 10.7333 14.6806 10.5787L14.7733 9.97062C14.5775 9.80571 14.5878 9.86755 14.2477 9.86755L14.2683 9.6408L14.3508 9.0636C13.1551 9.04299 13.485 8.75439 13.0624 11.1044C12.7944 12.5783 12.2584 13.6812 13.9075 13.4853C14.4641 13.4235 14.4023 13.2483 14.4641 12.7329C13.4025 12.8566 13.7942 12.3 13.9282 11.4342Z" fill="#FEFEFE"/>
<path fill-rule="evenodd" clip-rule="evenodd" d="M18.7725 13.073L18.8549 12.5062L18.958 11.8877L19.1435 11.2693C19.3703 10.6509 19.8856 10.9086 20.0505 10.6818L20.3598 9.84694C19.7516 9.82632 19.5867 10.0531 19.3394 10.3623L19.2878 10.1768C19.2878 10.1665 19.2775 10.1355 19.2775 10.1149C19.2775 10.0943 19.2569 10.0118 19.2569 9.99123L18.3396 9.86755L17.7315 13.4647L18.7003 13.5059L18.7828 13.073H18.7725Z" fill="#FEFEFE"/>
<path fill-rule="evenodd" clip-rule="evenodd" d="M26.678 13.4853H27.6365C27.8633 12.0939 27.8117 11.0322 28.6569 10.754L29.0795 10.589L29.2032 9.85724C28.7497 9.86755 28.4611 10.0737 28.3065 10.3108L28.1725 9.92939C28.1622 9.90878 28.1622 9.87786 28.1519 9.85724L27.2964 9.84694L26.678 13.4853Z" fill="#FEFEFE"/>
<path fill-rule="evenodd" clip-rule="evenodd" d="M30.2957 12.6504C31.4913 12.6298 31.6253 10.8879 30.9038 10.7127C30.172 10.5375 29.5227 11.8568 30.2957 12.6504Z" fill="#F8B02B"/>
<path fill-rule="evenodd" clip-rule="evenodd" d="M8.76434 11.795C8.20776 11.7847 7.12552 12.1351 7.70271 12.6608C7.88824 12.8257 8.35206 12.6917 8.50666 12.5886C8.73342 12.4237 8.78495 12.1454 8.77465 11.795L8.76434 11.795Z" fill="#E41D2C"/>
<path fill-rule="evenodd" clip-rule="evenodd" d="M18.8549 12.4958L20.3288 12.5062L20.1536 11.8774L18.958 11.8774L18.8549 12.4958Z" fill="#E41D2C"/>
<path fill-rule="evenodd" clip-rule="evenodd" d="M24.4723 12.6608C25.1216 12.8978 25.606 12.5268 25.5751 11.8259C24.9567 11.7125 24.328 11.9805 24.4723 12.6608Z" fill="#F8B02B"/>
<path fill-rule="evenodd" clip-rule="evenodd" d="M18.958 11.8774L20.1536 11.8774V11.3105L19.1435 11.259L18.958 11.8774Z" fill="#F8B02B"/>
<path fill-rule="evenodd" clip-rule="evenodd" d="M15.67 11.259H16.8966C16.8657 10.8261 16.8554 10.9086 16.6389 10.5994C16.0308 10.5169 15.804 10.7333 15.67 11.259Z" fill="#E41D2C"/>
<path fill-rule="evenodd" clip-rule="evenodd" d="M13.9282 11.4342C14.1034 11.8568 13.8354 11.7022 14.1755 11.8568L14.5466 11.8671L14.5878 11.3105L14.1858 11.3002C13.9797 11.259 14.0931 11.3312 14.0106 11.1765L13.9385 11.4239L13.9282 11.4342Z" fill="#F8B02B"/>
<path fill-rule="evenodd" clip-rule="evenodd" d="M86.9711 2.51666L84.2227 19.4071H88.6199L91.3686 2.51666H86.9711ZM80.5231 2.51666L76.3307 14.1337L75.8348 11.6322L75.8352 11.633L75.7259 11.0723C75.2185 9.97882 74.0434 7.90055 71.8245 6.12692C71.1684 5.60267 70.5072 5.15525 69.8679 4.77307L73.6781 19.4071H78.2596L85.2558 2.51666H80.5231ZM97.6844 7.20576C97.6844 5.29615 101.967 5.54153 103.849 6.57844L104.476 2.95084C104.476 2.95084 102.539 2.21436 100.521 2.21436C98.3387 2.21436 93.1567 3.16869 93.1567 7.8058C93.1567 12.1699 99.2388 12.2241 99.2388 14.5153C99.2388 16.8065 93.7838 16.397 91.9836 14.9517L91.3293 18.7434C91.3293 18.7434 93.2927 19.6978 96.2933 19.6978C99.2936 19.6978 103.821 18.1434 103.821 13.9153C103.821 9.52391 97.6844 9.1149 97.6844 7.20576ZM115.628 2.51666H112.093C110.46 2.51666 110.063 3.7754 110.063 3.7754L103.505 19.4071H108.088L109.005 16.8983H114.595L115.111 19.4071H119.148L115.628 2.51666ZM110.272 13.4323L112.583 7.11148L113.883 13.4323H110.272Z" fill="#005BAC"/>
<path fill-rule="evenodd" clip-rule="evenodd" d="M74.4157 4.10687C74.4157 4.10687 74.2337 2.58248 72.2906 2.58248H65.2311L65.1484 2.86897C65.1484 2.86897 68.5418 3.56071 71.7973 6.15234C74.9084 8.6293 75.9233 11.717 75.9233 11.717L74.4157 4.10687Z" fill="#F6AC1D"/>
<path fill-rule="evenodd" clip-rule="evenodd" d="M167.074 18.4627C169.122 16.6096 170.402 13.9315 170.402 10.9549C170.402 7.97868 169.122 5.30269 167.074 3.44933C165.282 1.82023 162.888 0.828857 160.283 0.828857C154.681 0.828857 150.148 5.36226 150.148 10.9549C150.148 16.5498 154.681 21.0832 160.283 21.0832C162.888 21.0835 165.282 20.0899 167.074 18.4627Z" fill="#4186CD"/>
<path fill-rule="evenodd" clip-rule="evenodd" d="M167.074 18.4627C169.122 16.6096 170.402 13.9315 170.402 10.9549C170.402 7.97868 169.122 5.30269 167.074 3.44933V18.4627Z" fill="#4487CA"/>
<path fill-rule="evenodd" clip-rule="evenodd" d="M173.881 0.829127C171.26 0.829127 168.866 1.82023 167.074 3.44933C166.713 3.78248 166.366 4.1407 166.05 4.52318H168.098C168.384 4.86253 168.641 5.22048 168.866 5.59487H165.282C165.072 5.93826 164.876 6.29621 164.695 6.66656H169.453C169.619 7.01427 169.755 7.37195 169.875 7.74014H164.273C164.153 8.08785 164.047 8.4458 163.972 8.81183H170.176C170.327 9.50293 170.402 10.2204 170.402 10.9549C170.402 12.0797 170.221 13.1622 169.875 14.1722H164.273C164.394 14.5401 164.529 14.898 164.695 15.2455H169.453C169.273 15.6161 169.092 15.9738 168.866 16.3174H165.282C165.508 16.6918 165.779 17.0498 166.05 17.3894H168.098C167.782 17.7716 167.436 18.1296 167.074 18.4627C168.866 20.0899 171.26 21.0835 173.881 21.0835C179.467 21.0835 184 16.5501 184 10.9552C184 5.36252 179.467 0.829127 173.881 0.829127Z" fill="#CA4638"/>
<path fill-rule="evenodd" clip-rule="evenodd" d="M182.931 16.5808H182.976C182.991 16.5808 183.006 16.5829 183.006 16.5765C183.021 16.5684 183.036 16.556 183.036 16.5439C183.036 16.5312 183.021 16.5191 183.006 16.5129C183.006 16.5067 182.976 16.5086 182.976 16.5086H182.931V16.5808ZM182.931 16.7452H182.871V16.4573H182.991C183.021 16.4573 183.036 16.4573 183.066 16.4719C183.081 16.4883 183.096 16.515 183.096 16.5441C183.096 16.5767 183.081 16.6059 183.051 16.6177L183.096 16.7455H183.021L182.991 16.6304H182.93L182.931 16.7452ZM182.976 16.8503C183.112 16.8503 183.232 16.7393 183.232 16.6013C183.232 16.4633 183.112 16.3522 182.976 16.3522C182.841 16.3522 182.735 16.4633 182.735 16.6013C182.735 16.7393 182.841 16.8503 182.976 16.8503ZM182.645 16.6013C182.645 16.4201 182.795 16.2743 182.976 16.2743C183.157 16.2743 183.307 16.4201 183.307 16.6013C183.307 16.7824 183.157 16.9282 182.976 16.9282C182.795 16.9282 182.645 16.7824 182.645 16.6013Z" fill="#231F20"/>
<path fill-rule="evenodd" clip-rule="evenodd" d="M158.701 13.7733H157.421L158.174 9.82584L156.442 13.7733H155.388L155.178 9.84848L154.334 13.7733H153.175L154.154 8.63933H156.156L156.186 11.8172L157.572 8.63933H159.695L158.701 13.7733Z" fill="#231F20"/>
<path fill-rule="evenodd" clip-rule="evenodd" d="M172.781 13.7215C172.435 13.8164 172.164 13.8574 171.878 13.8574C171.23 13.8574 170.884 13.5344 170.884 12.9401C170.884 12.8229 170.884 12.6975 170.914 12.5654L171.636 8.63879H172.886L172.706 9.59727H173.353L173.173 10.6113H172.525L172.194 12.3536C172.179 12.4315 172.179 12.4873 172.179 12.5264C172.179 12.7423 172.299 12.8369 172.6 12.8369C172.751 12.8369 172.856 12.8247 172.947 12.7978L172.781 13.7215Z" fill="#231F20"/>
<path fill-rule="evenodd" clip-rule="evenodd" d="M167.782 10.9161C167.782 11.4447 168.068 11.807 168.746 12.0803C169.258 12.2902 169.348 12.352 169.348 12.5412C169.348 12.8026 169.122 12.9194 168.61 12.9194C168.234 12.9194 167.872 12.8684 167.466 12.753L167.3 13.7175L167.345 13.7258L167.586 13.7689C167.662 13.7813 167.767 13.7937 167.918 13.8059C168.219 13.8285 168.46 13.8412 168.625 13.8412C169.966 13.8412 170.583 13.3989 170.583 12.4466C170.583 11.8746 170.327 11.5374 169.694 11.2841C169.152 11.0722 169.092 11.0269 169.092 10.8318C169.092 10.6054 169.303 10.4903 169.71 10.4903C169.966 10.4903 170.312 10.5151 170.628 10.5541L170.809 9.5873C170.478 9.54202 169.981 9.50509 169.694 9.50509C168.264 9.50509 167.767 10.1469 167.782 10.9161Z" fill="#231F20"/>
<path fill-rule="evenodd" clip-rule="evenodd" d="M161.924 11.9137C161.789 11.8991 161.728 11.8954 161.638 11.8954C160.93 11.8954 160.569 12.1091 160.569 12.5307C160.569 12.7897 160.749 12.9566 161.021 12.9566C161.532 12.9568 161.909 12.5309 161.924 11.9137ZM162.782 13.7733H161.728L161.758 13.3393C161.427 13.6827 161.006 13.8452 160.433 13.8452C159.74 13.8452 159.273 13.3803 159.273 12.7056C159.273 11.6876 160.087 11.0951 161.487 11.0951C161.638 11.0951 161.818 11.1051 161.999 11.1277C162.044 10.99 162.059 10.9304 162.059 10.8563C162.059 10.5787 161.833 10.4757 161.246 10.4757C160.884 10.4757 160.478 10.521 160.192 10.593L160.026 10.6361L159.906 10.6628L160.086 9.72503C160.718 9.56439 161.125 9.50293 161.592 9.50293C162.676 9.50293 163.248 9.92665 163.248 10.7288C163.248 10.9345 163.233 11.0908 163.143 11.5558L162.887 13.0366L162.842 13.3018L162.812 13.5137L162.782 13.6598V13.7733H162.782Z" fill="#231F20"/>
<path fill-rule="evenodd" clip-rule="evenodd" d="M166.306 11.1978C166.306 11.1115 166.321 11.0396 166.321 10.9859C166.321 10.6466 166.096 10.4469 165.719 10.4469C165.313 10.4469 165.026 10.7142 164.921 11.1954L166.306 11.1978ZM166.924 13.6827C166.487 13.7981 166.065 13.8533 165.628 13.8512C164.213 13.8512 163.49 13.2094 163.49 11.9816C163.49 10.5479 164.424 9.49269 165.689 9.49269C166.728 9.49269 167.39 10.083 167.39 11.0105C167.39 11.3194 167.345 11.6172 167.225 12.0409H164.725C164.71 12.1045 164.71 12.1336 164.71 12.1725C164.71 12.6557 165.086 12.9026 165.824 12.9026C166.276 12.9026 166.683 12.8226 167.134 12.6393L166.924 13.6827Z" fill="#231F20"/>
<path fill-rule="evenodd" clip-rule="evenodd" d="M179.091 11.3811C179.091 10.945 178.91 10.5315 178.398 10.5315C177.751 10.5315 177.36 11.2927 177.36 11.963C177.36 12.5288 177.63 12.9094 178.083 12.9008C178.353 12.9008 178.941 12.5285 179.046 11.8784C179.076 11.7285 179.091 11.5622 179.091 11.3811ZM180.371 11.8805C180.19 13.2689 179.211 13.8843 177.916 13.8843C176.501 13.8843 175.929 13.0204 175.929 11.9611C175.929 10.48 176.892 9.4784 178.398 9.4784C179.708 9.4784 180.401 10.3032 180.401 11.3628C180.401 11.6196 180.401 11.638 180.371 11.8805Z" fill="#231F20"/>
<path fill-rule="evenodd" clip-rule="evenodd" d="M180.792 13.1315H180.837C180.837 13.1315 180.853 13.1315 180.868 13.1253C180.882 13.1191 180.883 13.1048 180.883 13.0924C180.883 13.0822 180.883 13.0698 180.868 13.0638C180.868 13.0576 180.837 13.0576 180.823 13.0576H180.792V13.1315ZM180.792 13.294H180.732V13.0061H180.853C180.868 13.0061 180.898 13.0083 180.928 13.0229C180.943 13.0371 180.958 13.066 180.958 13.0948C180.958 13.1256 180.943 13.1566 180.913 13.1687L180.958 13.2943H180.882L180.837 13.1811H180.792V13.294ZM180.837 13.3989C180.973 13.3989 181.079 13.2878 181.079 13.1498C181.079 13.014 180.973 12.9029 180.837 12.9029C180.702 12.9029 180.582 13.014 180.582 13.1498C180.582 13.2878 180.702 13.3989 180.837 13.3989ZM180.506 13.1498C180.506 12.9708 180.657 12.825 180.838 12.825C181.019 12.825 181.169 12.9708 181.169 13.1498C181.169 13.3309 181.018 13.4768 180.838 13.4768C180.657 13.4768 180.506 13.3309 180.506 13.1498Z" fill="white"/>
<path fill-rule="evenodd" clip-rule="evenodd" d="M159.018 13.4768H157.753L158.506 9.52962L156.774 13.4768H155.629L155.418 9.55441L154.666 13.4768H153.521L154.5 8.34283H156.472L156.563 11.5229L157.963 8.34283H160.011L159.018 13.4768Z" fill="white"/>
<path fill-rule="evenodd" clip-rule="evenodd" d="M173.098 13.4277C172.751 13.5223 172.48 13.5633 172.194 13.5633C171.546 13.5633 171.2 13.2385 171.2 12.6463C171.2 12.5288 171.215 12.4037 171.23 12.2719L171.305 11.8622L171.365 11.531L171.953 8.34283H173.203L173.022 9.30132H173.67L173.489 10.3175H172.841L172.51 12.0595C172.495 12.1358 172.495 12.1932 172.495 12.2326C172.495 12.4487 172.631 12.5412 172.932 12.5412C173.067 12.5412 173.173 12.5288 173.263 12.5018L173.098 13.4277Z" fill="white"/>
<path fill-rule="evenodd" clip-rule="evenodd" d="M176.335 10.5005L176.305 10.369L176.561 9.71479C176.501 9.70859 176.471 9.7067 176.471 9.70266C176.395 9.68811 176.365 9.68002 176.35 9.68002C176.32 9.67166 176.275 9.66978 176.23 9.66978C175.808 9.66978 175.522 9.8528 175.131 10.3466L175.266 9.60401H173.956L173.188 13.7733H174.438C174.604 12.8167 174.679 12.2719 174.784 11.8191C174.95 11.0684 175.507 10.7269 175.914 10.8029C175.959 10.8113 175.989 10.8113 176.049 10.8339L176.124 10.8625L176.335 10.5005Z" fill="#231F20"/>
<path fill-rule="evenodd" clip-rule="evenodd" d="M176.772 9.33636C176.666 9.29512 176.651 9.29512 176.636 9.29107C176.576 9.27652 176.531 9.26843 176.531 9.26628C176.486 9.26008 176.44 9.25603 176.395 9.25603C175.989 9.25603 175.688 9.44121 175.296 9.93501L175.416 9.30132H174.272L173.504 13.4768H174.769C175.221 10.9242 175.416 10.476 176.019 10.476C176.064 10.476 176.109 10.48 176.169 10.4862L176.32 10.5169L176.772 9.33636Z" fill="white"/>
<path fill-rule="evenodd" clip-rule="evenodd" d="M168.098 10.6221C168.098 11.1485 168.399 11.5126 169.077 11.7862C169.589 11.994 169.664 12.0557 169.664 12.2471C169.664 12.5062 169.438 12.6234 168.941 12.6234C168.55 12.6234 168.203 12.5719 167.797 12.4587L167.616 13.4215L167.676 13.4315L167.902 13.4725C167.977 13.4873 168.098 13.4994 168.249 13.5099C168.55 13.5326 168.776 13.5447 168.941 13.5447C170.296 13.5447 170.914 13.1045 170.914 12.1522C170.914 11.5784 170.658 11.2431 170.01 10.99C169.483 10.7781 169.423 10.731 169.423 10.5353C169.423 10.311 169.634 10.1959 170.04 10.1959C170.296 10.1959 170.628 10.2186 170.959 10.2576L171.139 9.29107C170.808 9.24579 170.311 9.20859 170.01 9.20859C168.595 9.20886 168.098 9.85064 168.098 10.6221Z" fill="white"/>
<path fill-rule="evenodd" clip-rule="evenodd" d="M162.195 11.6175C162.06 11.6032 161.999 11.601 161.909 11.601C161.201 11.601 160.84 11.8148 160.84 12.2363C160.84 12.4956 161.006 12.6622 161.292 12.6622C161.804 12.6625 162.165 12.2345 162.195 11.6175ZM163.114 13.4768H162.059L162.09 13.045C161.773 13.3881 161.337 13.5487 160.764 13.5487C160.087 13.5487 159.62 13.0838 159.62 12.4091C159.62 11.3927 160.433 10.7986 161.833 10.7986C161.969 10.7986 162.149 10.8107 162.345 10.8315C162.375 10.6935 162.39 10.6361 162.39 10.5601C162.39 10.2843 162.164 10.1816 161.577 10.1816C161.215 10.1816 160.809 10.2248 160.538 10.2967L160.357 10.342L160.252 10.369L160.418 9.42881C161.05 9.26843 161.456 9.20886 161.923 9.20886C163.007 9.20886 163.58 9.63258 163.58 10.4328C163.58 10.6385 163.565 10.7948 163.49 11.2595L163.218 12.7428L163.173 13.008L163.143 13.2199L163.128 13.3636L163.114 13.4768Z" fill="white"/>
<path fill-rule="evenodd" clip-rule="evenodd" d="M166.577 10.9037V10.6897C166.577 10.3504 166.366 10.1528 165.99 10.1528C165.583 10.1528 165.297 10.418 165.177 10.9016L166.577 10.9037ZM167.24 13.3884C166.818 13.5016 166.397 13.5571 165.96 13.5571C164.544 13.5571 163.806 12.9153 163.806 11.6854C163.806 10.2539 164.74 9.19862 166.005 9.19862C167.044 9.19862 167.706 9.78891 167.706 10.7145C167.706 11.0231 167.661 11.3234 167.555 11.7469H165.056C165.041 11.8107 165.041 11.8396 165.041 11.8784C165.041 12.3619 165.417 12.6088 166.14 12.6088C166.592 12.6088 166.998 12.5264 167.45 12.3433L167.24 13.3884Z" fill="white"/>
<path fill-rule="evenodd" clip-rule="evenodd" d="M179.392 11.0498C179.392 10.6137 179.211 10.2005 178.699 10.2005C178.052 10.2005 177.661 10.9614 177.661 11.632C177.661 12.1997 177.932 12.5805 178.384 12.5719C178.655 12.5719 179.242 12.1997 179.347 11.5496C179.377 11.3973 179.392 11.231 179.392 11.0498ZM180.702 11.5849C180.506 12.973 179.542 13.59 178.248 13.59C176.817 13.59 176.245 12.7239 176.245 11.6646C176.245 10.1857 177.223 9.18218 178.73 9.18218C180.039 9.18218 180.732 10.007 180.732 11.0663C180.732 11.3253 180.732 11.342 180.702 11.5849Z" fill="white"/>
<path d="M262.927 7.16727H259.581C259.384 7.16727 259.187 7.36409 259.089 7.56092L257.711 16.2212C257.711 16.4181 257.81 16.5165 258.006 16.5165H259.778C259.975 16.5165 260.073 16.4181 260.073 16.2212L260.467 13.7609C260.467 13.5641 260.663 13.3673 260.959 13.3673H262.041C264.305 13.3673 265.584 12.2847 265.879 10.1196C266.076 9.23393 265.879 8.44663 265.486 7.95457C264.895 7.46251 264.01 7.16727 262.927 7.16727ZM263.321 10.4149C263.124 11.5958 262.238 11.5958 261.352 11.5958H260.762L261.156 9.33235C261.156 9.23394 261.254 9.13552 261.451 9.13552H261.648C262.238 9.13552 262.829 9.13552 263.124 9.52917C263.321 9.62758 263.321 9.92282 263.321 10.4149Z" fill="#139AD6"/>
<path d="M238.816 7.16727H235.47C235.273 7.16727 235.076 7.36409 234.978 7.56092L233.6 16.2212C233.6 16.4181 233.698 16.5165 233.895 16.5165H235.47C235.667 16.5165 235.863 16.3196 235.962 16.1228L236.356 13.7609C236.356 13.5641 236.552 13.3673 236.848 13.3673H237.93C240.194 13.3673 241.473 12.2847 241.768 10.1196C241.965 9.23393 241.768 8.44663 241.375 7.95457C240.784 7.46251 239.997 7.16727 238.816 7.16727ZM239.21 10.4149C239.013 11.5958 238.127 11.5958 237.241 11.5958H236.749L237.143 9.33235C237.143 9.23394 237.241 9.13552 237.438 9.13552H237.635C238.225 9.13552 238.816 9.13552 239.111 9.52917C239.21 9.62758 239.308 9.92282 239.21 10.4149Z" fill="#263B80"/>
<path d="M248.952 10.3165H247.378C247.279 10.3165 247.083 10.4149 247.083 10.5133L246.984 11.0054L246.886 10.8085C246.492 10.3165 245.803 10.1196 245.016 10.1196C243.244 10.1196 241.67 11.4974 241.375 13.3673C241.178 14.3514 241.473 15.2371 241.965 15.8276C242.457 16.4181 243.146 16.6149 244.032 16.6149C245.508 16.6149 246.295 15.7292 246.295 15.7292L246.197 16.2212C246.197 16.4181 246.295 16.5165 246.492 16.5165H247.968C248.165 16.5165 248.362 16.3196 248.46 16.1228L249.346 10.6117C249.248 10.5133 249.051 10.3165 248.952 10.3165ZM246.689 13.4657C246.492 14.3514 245.803 15.0403 244.819 15.0403C244.327 15.0403 243.933 14.8435 243.737 14.6466C243.54 14.3514 243.441 13.9577 243.441 13.4657C243.54 12.58 244.327 11.8911 245.213 11.8911C245.705 11.8911 246 12.0879 246.295 12.2847C246.59 12.58 246.689 13.072 246.689 13.4657Z" fill="#263B80"/>
<path d="M272.965 10.3165H271.39C271.292 10.3165 271.095 10.4149 271.095 10.5133L270.997 11.0054L270.898 10.8085C270.505 10.3165 269.816 10.1196 269.029 10.1196C267.257 10.1196 265.683 11.4974 265.387 13.3673C265.19 14.3514 265.486 15.2371 265.978 15.8276C266.47 16.4181 267.159 16.6149 268.044 16.6149C269.521 16.6149 270.308 15.7292 270.308 15.7292L270.21 16.2212C270.21 16.4181 270.308 16.5165 270.505 16.5165H271.981C272.178 16.5165 272.375 16.3196 272.473 16.1228L273.359 10.6117C273.26 10.5133 273.162 10.3165 272.965 10.3165ZM270.702 13.4657C270.505 14.3514 269.816 15.0403 268.832 15.0403C268.34 15.0403 267.946 14.8435 267.749 14.6466C267.552 14.3514 267.454 13.9577 267.454 13.4657C267.552 12.58 268.34 11.8911 269.225 11.8911C269.717 11.8911 270.013 12.0879 270.308 12.2847C270.702 12.58 270.8 13.072 270.702 13.4657Z" fill="#139AD6"/>
<path d="M257.514 10.3165H255.841C255.644 10.3165 255.546 10.4149 255.448 10.5133L253.283 13.8593L252.298 10.7101C252.2 10.5133 252.102 10.4149 251.806 10.4149H250.232C250.035 10.4149 249.937 10.6117 249.937 10.8085L251.708 16.0244L250.035 18.3863C249.937 18.5831 250.035 18.8784 250.232 18.8784H251.806C252.003 18.8784 252.102 18.78 252.2 18.6816L257.613 10.907C257.908 10.6117 257.711 10.3165 257.514 10.3165Z" fill="#263B80"/>
<path d="M274.835 7.46251L273.457 16.3196C273.457 16.5165 273.556 16.6149 273.752 16.6149H275.13C275.327 16.6149 275.524 16.4181 275.622 16.2212L277 7.56092C277 7.36409 276.902 7.26568 276.705 7.26568H275.13C275.032 7.16727 274.933 7.26568 274.835 7.46251Z" fill="#139AD6"/>
<path d="M226.317 4.21489C225.629 3.42759 224.349 3.03394 222.578 3.03394H217.657C217.362 3.03394 217.067 3.32917 216.968 3.62441L215 16.5165C215 16.8117 215.197 17.0085 215.394 17.0085H218.444L219.232 12.1863V12.3831C219.33 12.0879 219.625 11.7927 219.921 11.7927H221.397C224.251 11.7927 226.416 10.6117 227.105 7.36409C227.105 7.26568 227.105 7.16727 227.105 7.06885C227.006 7.06885 227.006 7.06885 227.105 7.06885C227.203 5.78949 227.006 5.00219 226.317 4.21489Z" fill="#263B80"/>
<path d="M227.006 7.06885C227.006 7.16727 227.006 7.26568 227.006 7.36409C226.317 10.7101 224.152 11.7927 221.298 11.7927H219.822C219.527 11.7927 219.232 12.0879 219.133 12.3831L218.149 18.3863C218.149 18.5831 218.248 18.78 218.543 18.78H221.102C221.397 18.78 221.692 18.5831 221.692 18.2879V18.1895L222.184 15.1387V14.9419C222.184 14.6466 222.479 14.4498 222.775 14.4498H223.168C225.629 14.4498 227.597 13.4657 228.089 10.5133C228.286 9.33235 228.187 8.24981 227.597 7.56092C227.498 7.36409 227.302 7.16727 227.006 7.06885Z" fill="#139AD6"/>
<path d="M226.317 6.77362C226.219 6.77362 226.121 6.6752 226.022 6.6752C225.924 6.6752 225.825 6.6752 225.727 6.57679C225.333 6.47838 224.94 6.47838 224.448 6.47838H220.61C220.511 6.47838 220.413 6.47838 220.314 6.57679C220.117 6.6752 220.019 6.87203 220.019 7.06885L219.232 12.1863V12.3831C219.33 12.0879 219.625 11.7927 219.921 11.7927H221.397C224.251 11.7927 226.416 10.6117 227.105 7.36409C227.105 7.26568 227.105 7.16727 227.203 7.06885C227.006 6.97044 226.908 6.87203 226.711 6.87203C226.416 6.77362 226.416 6.77362 226.317 6.77362Z" fill="#232C65"/>
<path fill-rule="evenodd" clip-rule="evenodd" d="M349 11.2407C349 8.32522 347.588 6.02466 344.889 6.02466C342.178 6.02466 340.538 8.32522 340.538 11.218C340.538 14.6461 342.474 16.3772 345.253 16.3772C346.608 16.3772 347.633 16.0697 348.408 15.6369V13.3591C347.633 13.7463 346.745 13.9855 345.617 13.9855C344.513 13.9855 343.533 13.5982 343.408 12.2543H348.977C348.977 12.1063 349 11.514 349 11.2407ZM343.374 10.1588C343.374 8.87181 344.16 8.33651 344.877 8.33651C345.572 8.33651 346.312 8.87181 346.312 10.1588H343.374Z" fill="#635BFF"/>
<path fill-rule="evenodd" clip-rule="evenodd" d="M336.142 6.02466C335.026 6.02466 334.308 6.54851 333.91 6.91302L333.762 6.20691H331.256V19.4864L334.103 18.8828L334.115 15.6598C334.525 15.9559 335.128 16.3772 336.13 16.3772C338.169 16.3772 340.026 14.7372 340.026 11.127C340.014 7.82411 338.135 6.02466 336.142 6.02466ZM335.459 13.8716C334.787 13.8716 334.388 13.6324 334.115 13.3363L334.103 9.11099C334.399 8.78068 334.809 8.55295 335.459 8.55295C336.495 8.55295 337.212 9.7146 337.212 11.2066C337.213 12.7327 336.506 13.8716 335.459 13.8716Z" fill="#635BFF"/>
<path fill-rule="evenodd" clip-rule="evenodd" d="M327.338 5.35268L330.197 4.73771V2.42578L327.338 3.02939V5.35268Z" fill="#635BFF"/>
<path d="M330.197 6.21821H327.338V16.1835H330.197V6.21821Z" fill="#635BFF"/>
<path fill-rule="evenodd" clip-rule="evenodd" d="M324.275 7.06101L324.093 6.21822H321.633V16.1835H324.48V9.42987C325.152 8.55289 326.291 8.71239 326.644 8.83763V6.21822C326.279 6.08161 324.947 5.83105 324.275 7.06101Z" fill="#635BFF"/>
<path fill-rule="evenodd" clip-rule="evenodd" d="M318.58 3.74686L315.801 4.33909L315.79 13.4616C315.79 15.1471 317.054 16.3885 318.74 16.3885C319.674 16.3885 320.357 16.2177 320.733 16.0127V13.7007C320.368 13.8488 318.569 14.3726 318.569 12.6871V8.64408H320.733V6.21829H318.569L318.58 3.74686Z" fill="#635BFF"/>
<path fill-rule="evenodd" clip-rule="evenodd" d="M310.881 9.11099C310.881 8.66682 311.246 8.49602 311.849 8.49602C312.715 8.49602 313.808 8.75794 314.674 9.22494V6.54851C313.729 6.17272 312.795 6.02466 311.849 6.02466C309.538 6.02466 308 7.23187 308 9.24768C308 12.391 312.328 11.8899 312.328 13.2452C312.328 13.7691 311.872 13.9399 311.234 13.9399C310.289 13.9399 309.082 13.5527 308.125 13.0288V15.7394C309.184 16.1949 310.255 16.3885 311.234 16.3885C313.603 16.3885 315.232 15.2154 315.232 13.1769C315.221 9.78298 310.881 10.3866 310.881 9.11099Z" fill="#635BFF"/>
</svg>
