<svg width="629" height="446" viewBox="0 0 629 446" fill="none" xmlns="http://www.w3.org/2000/svg">
<path d="M146.546 283.963V331.506L105.319 355.278L64.0913 331.506V283.963L105.319 260.19L146.546 283.963Z" stroke="#FECC00" stroke-width="2"/>
<path d="M251.87 283.963V331.506L210.643 355.278L169.415 331.506V283.963L210.643 260.189L251.87 283.963Z" stroke="#FECC00" stroke-width="2"/>
<path d="M305.506 372.595V420.138L264.278 443.91L223.051 420.138V372.595L264.278 348.821L305.506 372.595Z" stroke="#FECC00" stroke-width="2"/>
<path d="M410.83 372.595V420.138L369.603 443.91L328.375 420.138V372.595L369.603 348.821L410.83 372.595Z" stroke="#FECC00" stroke-width="2"/>
<path d="M516.149 372.595V420.138L474.922 443.91L433.694 420.138V372.595L474.922 348.821L516.149 372.595Z" stroke="#FECC00" stroke-width="2"/>
<path d="M89.9873 197.28V244.823L48.7598 268.595L7.53223 244.823L7.53223 197.28L48.7598 173.506L89.9873 197.28Z" stroke="#FECC00" stroke-width="2"/>
<path d="M195.311 197.281V244.824L154.083 268.596L112.856 244.824V197.281L154.083 173.507L195.311 197.281Z" stroke="#FECC00" stroke-width="2"/>
<path d="M300.63 197.279V244.822L259.403 268.594L218.175 244.822V197.279L259.403 173.505L300.63 197.279Z" stroke="#FECC00" stroke-width="2"/>
<path d="M354.267 285.912V333.455L313.039 357.227L271.812 333.455V285.912L313.039 262.138L354.267 285.912Z" stroke="#FECC00" stroke-width="2"/>
<path d="M459.586 285.909V333.452L418.358 357.225L377.131 333.452V285.909L418.358 262.136L459.586 285.909Z" stroke="#FECC00" stroke-width="2"/>
<path d="M564.91 285.909V333.452L523.682 357.225L482.455 333.452V285.909L523.682 262.136L564.91 285.909Z" stroke="#FECC00" stroke-width="2"/>
<path d="M146.546 112.547V160.09L105.319 183.862L64.0913 160.09V112.547L105.319 88.7736L146.546 112.547Z" stroke="#FECC00" stroke-width="2"/>
<path d="M251.87 112.546V160.089L210.643 183.861L169.415 160.089V112.546L210.643 88.7723L251.87 112.546Z" stroke="#FECC00" stroke-width="2"/>
<path d="M357.189 112.546V160.089L315.962 183.861L274.734 160.089V112.546L315.962 88.7726L357.189 112.546Z" stroke="#FECC00" stroke-width="2"/>
<path d="M410.826 201.183V248.726L369.598 272.499L328.371 248.726V201.183L369.598 177.41L410.826 201.183Z" stroke="#FECC00" stroke-width="2"/>
<path d="M516.149 201.177V248.72L474.922 272.492L433.694 248.72V201.177L474.922 177.403L516.149 201.177Z" stroke="#FECC00" stroke-width="2"/>
<path d="M621.469 201.177V248.72L580.241 272.492L539.014 248.72V201.177L580.241 177.403L621.469 201.177Z" stroke="#FECC00" stroke-width="2"/>
<path d="M195.307 25.8625V73.4055L154.079 97.178L112.852 73.4055V25.8625L154.079 2.08911L195.307 25.8625Z" stroke="#FECC00" stroke-width="2"/>
<path d="M300.63 25.8616V73.4045L259.403 97.177L218.175 73.4045V25.8616L259.403 2.08813L300.63 25.8616Z" stroke="#FECC00" stroke-width="2"/>
<path d="M405.95 25.8616V73.4045L364.722 97.177L323.495 73.4045V25.8616L364.722 2.08813L405.95 25.8616Z" stroke="#FECC00" stroke-width="2"/>
<path d="M459.586 114.493V162.036L418.358 185.809L377.131 162.036V114.493L418.358 90.72L459.586 114.493Z" stroke="#FECC00" stroke-width="2"/>
<path d="M564.91 114.491V162.034L523.682 185.807L482.455 162.034V114.491L523.682 90.7177L564.91 114.491Z" stroke="#FECC00" stroke-width="2"/>
</svg>
