<svg width="576" height="407" viewBox="0 0 576 407" fill="none" xmlns="http://www.w3.org/2000/svg">
<g opacity="0.3">
<path d="M134.361 259.607V302.969L96.7588 324.652L59.1572 302.969L59.1572 259.607L96.7588 237.925L134.361 259.607Z" stroke="#FECC00" stroke-width="2"/>
<path d="M230.64 259.607V302.969L193.038 324.652L155.436 302.969V259.607L193.038 237.924L230.64 259.607Z" stroke="#FECC00" stroke-width="2"/>
<path d="M279.671 340.63V383.992L242.068 405.675L204.467 383.992V340.63L242.068 318.947L279.671 340.63Z" stroke="#FECC00" stroke-width="2"/>
<path d="M375.95 340.629V383.992L338.347 405.674L300.746 383.992V340.629L338.347 318.947L375.95 340.629Z" stroke="#FECC00" stroke-width="2"/>
<path d="M472.229 340.629V383.992L434.626 405.674L397.025 383.992V340.629L434.626 318.947L472.229 340.629Z" stroke="#FECC00" stroke-width="2"/>
<path d="M82.6558 180.366V223.728L45.0532 245.411L7.45166 223.728L7.45166 180.366L45.0532 158.683L82.6558 180.366Z" stroke="#FECC00" stroke-width="2"/>
<path d="M178.935 180.366V223.729L141.332 245.411L103.73 223.729V180.366L141.332 158.684L178.935 180.366Z" stroke="#FECC00" stroke-width="2"/>
<path d="M275.214 180.365V223.727L237.611 245.41L200.01 223.727V180.365L237.611 158.682L275.214 180.365Z" stroke="#FECC00" stroke-width="2"/>
<path d="M324.245 261.388V304.751L286.643 326.433L249.041 304.751V261.388L286.643 239.706L324.245 261.388Z" stroke="#FECC00" stroke-width="2"/>
<path d="M420.524 261.387V304.749L382.921 326.432L345.32 304.749V261.387L382.921 239.704L420.524 261.387Z" stroke="#FECC00" stroke-width="2"/>
<path d="M516.803 261.387V304.749L479.201 326.432L441.599 304.749V261.387L479.201 239.704L516.803 261.387Z" stroke="#FECC00" stroke-width="2"/>
<path d="M134.361 102.908V146.271L96.7583 167.953L59.1567 146.271V102.908L96.7583 81.2256L134.361 102.908Z" stroke="#FECC00" stroke-width="2"/>
<path d="M230.64 102.907V146.269L193.038 167.952L155.436 146.269V102.907L193.038 81.2241L230.64 102.907Z" stroke="#FECC00" stroke-width="2"/>
<path d="M326.919 102.907V146.269L289.317 167.952L251.715 146.269V102.907L289.317 81.2241L326.919 102.907Z" stroke="#FECC00" stroke-width="2"/>
<path d="M375.951 183.935V227.297L338.348 248.98L300.747 227.297V183.935L338.348 162.252L375.951 183.935Z" stroke="#FECC00" stroke-width="2"/>
<path d="M472.229 183.928V227.291L434.627 248.973L397.025 227.291V183.928L434.627 162.246L472.229 183.928Z" stroke="#FECC00" stroke-width="2"/>
<path d="M568.508 183.928V227.291L530.906 248.973L493.304 227.291V183.928L530.906 162.246L568.508 183.928Z" stroke="#FECC00" stroke-width="2"/>
<path d="M178.935 23.6655V67.0278L141.332 88.7104L103.73 67.0278V23.6655L141.332 1.98291L178.935 23.6655Z" stroke="#FECC00" stroke-width="2"/>
<path d="M275.213 23.6648V67.0271L237.61 88.7097L200.009 67.0271V23.6648L237.61 1.98218L275.213 23.6648Z" stroke="#FECC00" stroke-width="2"/>
<path d="M371.493 23.6648V67.0271L333.89 88.7097L296.289 67.0271V23.6648L333.89 1.98218L371.493 23.6648Z" stroke="#FECC00" stroke-width="2"/>
<path d="M420.524 104.687V148.049L382.921 169.732L345.32 148.049V104.687L382.921 83.0042L420.524 104.687Z" stroke="#FECC00" stroke-width="2"/>
<path d="M516.803 104.685V148.047L479.201 169.73L441.599 148.047V104.685L479.201 83.0024L516.803 104.685Z" stroke="#FECC00" stroke-width="2"/>
</g>
</svg>
