<svg width="53" height="53" viewBox="0 0 53 53" fill="none" xmlns="http://www.w3.org/2000/svg">
<path fill-rule="evenodd" clip-rule="evenodd" d="M32.451 44.9575L45.3709 37.396C47.6255 35.9994 47.6461 35.9943 47.6718 33.2521V17.7149C47.6358 15.6275 47.61 15.6071 45.5459 14.2871L32.5643 6.54665C30.3046 5.28301 30.2531 5.29324 27.9574 6.55177L14.9345 14.2462C12.8293 15.5303 12.819 15.561 12.7881 17.9297V33.3902C12.819 35.9687 12.8499 35.9687 15.0735 37.3551L27.9883 44.9421C29.505 45.8187 30.9909 45.8238 32.4459 44.9575H32.451Z" fill="#FECC00"/>
<path d="M45.4334 28.0713H50.928C51.5492 28.0713 52.1092 27.6971 52.3469 27.1232C52.5805 26.5592 52.4576 25.9114 52.0364 25.4723C52.0288 25.4643 52.021 25.4563 52.013 25.4485C49.2248 22.7732 49.225 17.9598 52.013 15.2845C52.0209 15.2766 52.0287 15.2687 52.0364 15.2607C52.4576 14.8216 52.5805 14.1738 52.3469 13.6098C52.1092 13.0359 51.5492 12.6617 50.928 12.6617H45.4334C43.0391 9.93718 43.2209 5.46645 45.845 2.94552C46.2842 2.50627 46.4156 1.84566 46.178 1.27177C45.9402 0.698078 45.3802 0.323845 44.7591 0.323845H5.43194C2.45917 0.323845 0.0405273 2.74248 0.0405273 5.71526V10.342C0.0405273 13.3148 2.45917 15.7334 5.43194 15.7334H6.73484C6.39829 16.4364 6.20938 17.2231 6.20938 18.0532V22.6799C6.20938 23.51 6.39829 24.2967 6.73484 24.9997H5.43194C2.45917 24.9997 0.0405273 27.4183 0.0405273 30.3911V35.0178C0.0405273 37.9906 2.45917 40.4093 5.43194 40.4093H6.73484C6.39829 41.1123 6.20938 41.8989 6.20938 42.729V47.3558C6.20938 50.3286 8.62802 52.7472 11.6008 52.7472H50.928C51.5492 52.7472 52.1092 52.3729 52.3469 51.799C52.5805 51.235 52.4576 50.5873 52.0364 50.1481C52.0288 50.1401 52.021 50.1321 52.013 50.1244C49.2248 47.449 49.225 42.6356 52.013 39.9603C52.0209 39.9524 52.0287 39.9445 52.0364 39.9365C52.4576 39.4974 52.5805 38.8497 52.3469 38.2856C52.1092 37.7117 51.5492 37.3375 50.928 37.3375H45.4334C43.1883 34.7822 43.1883 30.6267 45.4334 28.0713ZM3.11221 10.342V5.71526C3.11221 4.43621 4.15289 3.39552 5.43194 3.39552H41.7674C40.3069 6.20683 40.3069 9.85055 41.7674 12.6618H5.43194C4.15289 12.6618 3.11221 11.6211 3.11221 10.342ZM18.5346 15.7334H21.6319V18.7261L20.7327 18.3065C20.1753 18.0464 19.672 18.1953 19.4337 18.3065L18.5345 18.7261V15.7334H18.5346ZM9.28116 22.6799V18.0532C9.28116 16.774 10.3218 15.7334 11.6009 15.7334H15.4629V21.1376C15.4629 21.6625 15.731 22.1511 16.1737 22.4331C16.6164 22.715 17.1724 22.7513 17.6482 22.5293L20.0832 21.393L22.5183 22.5293C22.7175 22.6223 23.3443 22.8459 23.9928 22.4331C24.4355 22.1511 24.7036 21.6625 24.7036 21.1376V15.7334H47.9364C46.4758 18.5447 46.4758 22.1885 47.9364 24.9997H11.6009C10.3218 24.9997 9.28116 23.959 9.28116 22.6799ZM30.8725 28.0713H33.9698V31.064L33.0707 30.6444C32.8324 30.5333 32.3292 30.3843 31.7716 30.6444L30.8725 31.064V28.0713ZM47.9364 49.6755H11.6009C10.3217 49.6755 9.28116 48.6348 9.28116 47.3558V42.729C9.28116 41.4498 10.3218 40.4093 11.6009 40.4093H47.9364C46.4758 43.2206 46.4758 46.8643 47.9364 49.6755ZM5.43194 37.3376C4.15289 37.3376 3.11221 36.2969 3.11221 35.0178V30.3911C3.11221 29.112 4.15289 28.0713 5.43194 28.0713H27.8008V33.4756C27.8008 34.0004 28.0689 34.489 28.5116 34.771C28.9542 35.0529 29.5103 35.0892 29.9861 34.8672L32.421 33.7309L34.856 34.8672C35.0553 34.9602 35.682 35.1838 36.3305 34.771C36.7732 34.489 37.0413 34.0004 37.0413 33.4756V28.0713H41.7672C40.3067 30.8826 40.3067 34.5264 41.7672 37.3376H5.43194Z" fill="black"/>
</svg>
