<svg width="50" height="61" viewBox="0 0 50 61" fill="none" xmlns="http://www.w3.org/2000/svg">
<path fill-rule="evenodd" clip-rule="evenodd" d="M34.0214 48.9575L46.9412 41.396C49.1958 39.9994 49.2164 39.9943 49.2421 37.2521V21.7148C49.2061 19.6275 49.1804 19.6071 47.1163 18.2871L34.1346 10.5466C31.8749 9.283 31.8234 9.29323 29.5277 10.5518L16.5049 18.2462C14.3996 19.5303 14.3893 19.561 14.3584 21.9297V37.3902C14.3893 39.9687 14.4202 39.9687 16.6438 41.3551L29.5586 48.9421C31.0753 49.8187 32.5612 49.8238 34.0162 48.9575H34.0214Z" fill="#FECC00"/>
<path d="M43.7652 10.0276H2.51514C1.54436 10.0276 0.757324 10.8146 0.757324 11.7854V19.2854C0.757324 20.2562 1.54436 21.0432 2.51514 21.0432H3.56983V55.848C3.56983 56.8188 4.35686 57.6058 5.32765 57.6058H6.38234V58.7777C6.38234 59.7485 7.16937 60.5355 8.14015 60.5355C9.11093 60.5355 9.89797 59.7485 9.89797 58.7777V57.6058H36.3824V58.7777C36.3824 59.7485 37.1694 60.5355 38.1402 60.5355C39.111 60.5355 39.898 59.7485 39.898 58.7777V57.6058H40.9527C41.9235 57.6058 42.7105 56.8188 42.7105 55.848V21.0432H43.7652C44.736 21.0432 45.523 20.2562 45.523 19.2854V11.7854C45.523 10.8146 44.736 10.0276 43.7652 10.0276ZM39.1949 54.0902H7.08546V43.5433H15.7574V44.598C15.7574 47.635 18.2281 50.1058 21.2652 50.1058H25.0152C28.0522 50.1058 30.523 47.635 30.523 44.598V43.5433H39.1949V54.0902ZM19.2729 44.598V43.5433H27.0073V44.598C27.0073 45.6965 26.1136 46.5902 25.0151 46.5902H21.2651C20.1667 46.5902 19.2729 45.6965 19.2729 44.598ZM39.1949 40.0277H7.08546V28.5433H15.7574V29.5979C15.7574 32.635 18.2281 35.1058 21.2652 35.1058H25.0152C28.0522 35.1058 30.523 32.635 30.523 29.5979V28.5433H39.1949V40.0277ZM19.2729 29.5979V28.5433H27.0073V29.5979C27.0073 30.6965 26.1136 31.5901 25.0151 31.5901H21.2651C20.1667 31.5901 19.2729 30.6965 19.2729 29.5979ZM39.1949 25.0276H7.08546V21.0432H39.1949V25.0276ZM42.0074 17.5276H4.27296V13.5432H42.0074V17.5276Z" fill="black"/>
<path d="M10.0151 6.98881C10.9859 6.98881 11.7729 6.20181 11.7729 5.23099C11.7729 4.26018 10.9859 3.47317 10.0151 3.47317C9.04425 3.47317 8.25725 4.26018 8.25725 5.23099C8.25725 6.20181 9.04425 6.98881 10.0151 6.98881Z" fill="black"/>
<path d="M23.1401 6.98881C24.1109 6.98881 24.8979 6.20181 24.8979 5.23099C24.8979 4.26018 24.1109 3.47317 23.1401 3.47317C22.1693 3.47317 21.3823 4.26018 21.3823 5.23099C21.3823 6.20181 22.1693 6.98881 23.1401 6.98881Z" fill="black"/>
<path d="M16.5776 4.05114C17.5484 4.05114 18.3354 3.26414 18.3354 2.29332C18.3354 1.32251 17.5484 0.535507 16.5776 0.535507C15.6068 0.535507 14.8198 1.32251 14.8198 2.29332C14.8198 3.26414 15.6068 4.05114 16.5776 4.05114Z" fill="black"/>
<path d="M29.7028 4.05114C30.6736 4.05114 31.4606 3.26414 31.4606 2.29332C31.4606 1.32251 30.6736 0.535507 29.7028 0.535507C28.7319 0.535507 27.9449 1.32251 27.9449 2.29332C27.9449 3.26414 28.7319 4.05114 29.7028 4.05114Z" fill="black"/>
<path d="M36.2653 6.98881C37.2361 6.98881 38.0231 6.20181 38.0231 5.23099C38.0231 4.26018 37.2361 3.47317 36.2653 3.47317C35.2945 3.47317 34.5075 4.26018 34.5075 5.23099C34.5075 6.20181 35.2945 6.98881 36.2653 6.98881Z" fill="black"/>
</svg>
