<svg width="56" height="56" viewBox="0 0 56 56" fill="none" xmlns="http://www.w3.org/2000/svg">
<path fill-rule="evenodd" clip-rule="evenodd" d="M34.663 45.9575L47.5829 38.396C49.8374 36.9994 49.858 36.9943 49.8837 34.2521V18.7148C49.8477 16.6275 49.822 16.6071 47.7579 15.2871L34.7762 7.54665C32.5165 6.283 32.465 6.29323 30.1693 7.55176L17.1465 15.2462C15.0412 16.5303 15.0309 16.561 15 18.9297V34.3902C15.0309 36.9687 15.0618 36.9687 17.2854 38.3551L30.2002 45.9421C31.7169 46.8187 33.2028 46.8238 34.6578 45.9575H34.663Z" fill="#FECC00"/>
<path d="M53.7681 12.7553L42.7832 1.77225C40.4618 -0.55075 36.7094 -0.53614 34.4025 1.77214C33.6443 2.53076 33.1368 3.44599 32.8765 4.41451C30.6247 3.1899 27.7541 3.53709 25.8591 5.43352C23.9645 7.3293 23.6259 10.2005 24.8408 12.4465C23.8739 12.7074 22.9604 13.2155 22.2031 13.9733C19.8755 16.2905 19.8794 20.0436 22.201 22.3572L24.1071 24.2644L1.9797 46.3919C0.00678536 48.3659 0.00678536 51.5777 1.97959 53.5516C3.95605 55.5293 7.16539 55.5309 9.14303 53.552L31.2667 31.4282L31.3594 31.5209V49.1094C31.3594 52.4179 34.0327 55.0355 37.2856 55.0355C40.5532 55.0355 43.2117 52.377 43.2117 49.1094V42.5804C43.2117 41.0897 44.4244 39.8769 45.9151 39.8769C49.1828 39.8769 51.8412 37.2185 51.8412 33.9508V25.4887C51.8412 24.4861 51.5929 23.5222 51.127 22.6664C52.1172 22.4003 53.0249 21.88 53.7687 21.1357C56.0772 18.8255 56.0772 15.0662 53.7681 12.7553ZM6.86385 51.2737C6.1467 51.9913 4.97699 51.9919 4.25909 51.2736C3.54172 50.5558 3.54172 49.3878 4.25876 48.6703L26.3852 26.5438L28.9886 29.1487L6.86385 51.2737ZM24.4798 20.0781C24.4787 20.0772 24.4777 20.0762 24.4769 20.0753C23.432 19.035 23.4022 17.3271 24.4798 16.2543C25.5349 15.1986 27.2476 15.1999 28.3014 16.2543L39.2811 27.2408C40.326 28.2812 40.3558 29.9891 39.2782 31.0618C38.2253 32.1154 36.5125 32.1185 35.4567 31.0618L24.4798 20.0781ZM48.6185 33.9508C48.6185 35.4415 47.4057 36.6542 45.915 36.6542C42.6473 36.6542 39.9889 39.3127 39.9889 42.5804V49.1094C39.9889 50.6001 38.7761 51.8129 37.2854 51.8129C35.8164 51.8129 34.582 50.6385 34.582 49.1094V34.3816C36.8245 35.5773 39.6713 35.2275 41.5548 33.3427C42.3185 32.5824 42.8291 31.668 43.0912 30.7014C44.8095 31.6321 46.8885 31.6496 48.6185 30.7608V33.9508ZM47.8216 27.4007C46.7668 28.4561 45.0536 28.4552 43.9996 27.4005L28.1385 11.5351L28.1387 11.5354C27.0851 10.4811 27.0851 8.76564 28.1387 7.71129C29.1918 6.65748 30.9045 6.6548 31.9604 7.71161L47.8244 23.5795C48.8693 24.6199 48.8991 26.3278 47.8216 27.4007ZM51.4891 18.8577C50.438 19.9095 48.7255 19.9164 47.667 18.8573L36.6821 7.87414C35.6283 6.8198 35.6283 5.10437 36.6821 4.05003C37.737 2.99439 39.4497 2.99547 40.5041 4.05056L51.489 15.0337C52.5425 16.0881 52.5425 17.8036 51.4891 18.8577Z" fill="black"/>
</svg>
