<svg width="56" height="61" viewBox="0 0 56 61" fill="none" xmlns="http://www.w3.org/2000/svg">
<path fill-rule="evenodd" clip-rule="evenodd" d="M35.4344 51.9575L48.3543 44.396C50.6089 42.9994 50.6295 42.9943 50.6552 40.2521V24.7148C50.6192 22.6275 50.5934 22.6071 48.5293 21.2871L35.5477 13.5466C33.288 12.283 33.2365 12.2932 30.9408 13.5518L17.9179 21.2462C15.8127 22.5303 15.8024 22.561 15.7715 24.9297V40.3902C15.8024 42.9687 15.8333 42.9687 18.0569 44.3551L30.9717 51.9421C32.4884 52.8187 33.9743 52.8238 35.4293 51.9575H35.4344Z" fill="#FECC00"/>
<path fill-rule="evenodd" clip-rule="evenodd" d="M23.4507 19.2355C22.3764 19.7383 21.8736 19.6926 22.3307 18.3669C23.2222 15.4869 24.3422 12.8126 25.9422 10.1155C28.7079 5.52118 32.2736 2.48118 35.245 1.93261C36.4793 1.77261 37.2793 2.59547 36.7993 4.14976C35.6107 7.82976 32.7079 11.5326 29.5307 14.6869C28.2964 15.8755 25.485 18.3212 23.4507 19.2355ZM21.2564 22.2983C20.1593 22.8926 19.0164 23.5326 19.9079 20.3555C21.4164 15.3269 22.765 12.2412 24.2964 9.5669C25.9422 6.54976 28.0222 3.98976 30.1936 2.2069C32.3879 0.469755 34.7879 -0.147388 36.6164 0.0811837C38.1707 0.149755 39.1764 0.538327 39.1079 2.5269C39.0622 4.69833 37.965 7.1669 36.6393 9.13261C34.9707 11.5555 32.8679 13.9098 30.5136 16.1498C28.4793 18.0926 23.9307 20.9498 21.2793 22.2983H21.2564Z" fill="#111111"/>
<path fill-rule="evenodd" clip-rule="evenodd" d="M26.3536 22.2755C27.1536 21.3612 30.285 20.6755 32.1593 20.0126C34.2164 19.3955 39.7022 17.9326 44.5936 17.6583C48.9593 17.2698 52.1136 18.1155 53.5536 19.944C54.605 21.1326 52.8222 22.8926 52.045 23.4183C45.5765 28.0126 22.285 26.9155 26.3536 22.2983V22.2755ZM24.2964 21.704C25.2336 20.5155 30.0793 18.984 31.3593 18.5955C34.7879 17.384 39.7707 16.1726 43.4965 16.1726C45.7136 16.2183 48.7536 15.784 52.205 16.9498C53.645 17.3612 55.0393 17.9555 55.6336 19.8983C56.1136 22.0469 54.1936 24.0812 52.525 25.0183C47.7479 27.8298 36.2736 28.904 29.0736 26.9612C27.2679 26.504 22.4222 24.0126 24.3193 21.6812L24.2964 21.704Z" fill="#111111"/>
<path fill-rule="evenodd" clip-rule="evenodd" d="M30.8336 23.8298C27.1764 22.6869 24.1136 23.0526 22.7422 23.784C21.4622 24.5612 25.6907 27.7612 28.9593 28.9498C32.2736 30.0926 36.3422 29.2469 36.8679 27.7383C37.3022 26.2069 34.445 24.9726 30.8564 23.8298H30.8336ZM31.245 22.5269C26.2622 20.9269 23.0164 21.7498 21.1879 22.984C19.3136 24.264 23.7707 28.6298 28.7536 30.2526C33.7364 31.8526 37.8279 30.6183 38.445 28.1955C39.0622 25.7498 36.205 24.0812 31.245 22.5498V22.5269Z" fill="#111111"/>
<path fill-rule="evenodd" clip-rule="evenodd" d="M6.8793 21.3383C7.13073 21.4297 7.40501 21.9783 7.26787 22.4126C6.83358 24.2412 4.86787 25.4298 4.06787 27.3726L3.90787 27.304C4.02215 25.9783 4.77644 20.6526 6.90215 21.3383H6.8793ZM7.93073 17.2012C9.37072 17.4755 10.8793 18.2983 10.8564 19.2812C10.765 20.3555 9.5993 22.4126 9.32501 23.5783C9.14215 24.1955 7.0393 27.2812 6.3993 28.2412C5.5993 29.5898 3.10787 31.9669 1.98787 38.0012C1.85072 38.8698 1.18787 38.6183 1.14215 37.9555C0.685009 31.8755 0.250725 25.4983 2.83358 20.9955C3.67929 19.464 6.35358 16.9955 7.90787 17.224L7.93073 17.2012Z" fill="#111111"/>
<path fill-rule="evenodd" clip-rule="evenodd" d="M17.485 26.0241C14.925 24.7212 11.3821 26.8012 10.1936 29.9098C8.95929 32.9498 9.98786 37.0412 12.525 38.3441C15.1307 39.6012 18.5821 37.7269 19.7936 34.6869C21.0507 31.5555 20.045 27.3041 17.485 26.0241ZM18.445 23.4184C14.3536 21.3841 9.37072 23.7841 7.38215 28.6527C5.41644 33.5898 7.15358 39.2127 11.2679 41.3155C15.405 43.3269 20.4336 41.0412 22.3536 36.1269C24.3422 31.2355 22.605 25.4755 18.445 23.4184Z" fill="#111111"/>
<path fill-rule="evenodd" clip-rule="evenodd" d="M24.2736 41.8641C28.0679 41.2926 32.0222 39.9212 33.0736 36.3784C33.4164 34.9612 32.1593 33.7726 31.4964 33.5212C26.445 32.1726 21.3707 38.2526 20.5022 41.6126C19.3364 46.4812 21.5993 49.9098 25.5307 49.7955C25.4164 51.6926 28.1821 54.1612 30.3079 54.0241C30.605 55.6469 32.8222 57.1098 36.0907 56.7212C36.7536 58.1155 39.8164 59.4412 41.5307 60.0355L40.8679 58.9384C39.9307 58.2755 39.2679 57.7727 38.765 56.8355C40.8679 56.0584 41.6222 54.8698 41.7593 52.5841C41.7593 51.1669 40.7536 50.3212 39.7707 50.7327C37.9422 51.3955 36.8679 53.1555 36.1822 54.8927C35.1764 55.2355 32.7993 54.4355 33.0736 53.4298C35.9079 53.0184 39.5422 48.9726 39.885 46.8241C40.045 45.8641 38.1707 44.6755 36.9136 44.9269C34.4679 45.5898 31.8622 49.2012 30.7422 51.7384C29.1193 51.7841 27.9993 50.4584 28.3193 49.1326C31.6336 47.9898 36.0679 43.4869 36.4793 41.8641C37.0507 39.4412 35.4507 38.5726 33.4622 38.8698C31.405 39.1898 27.1536 43.0984 25.7136 47.1212C22.7421 46.6869 23.3593 43.8069 24.2964 41.8869L24.2736 41.8641ZM38.4679 55.0298C40.1593 54.6641 40.6393 52.9498 40.2736 52.9041C39.565 52.8812 38.1936 54.5727 38.4679 55.0298ZM33.7593 50.9841C35.2679 50.6869 37.1422 48.5384 37.2107 47.6926C37.1879 46.5041 34.0336 49.6584 33.7593 50.9841ZM29.5764 45.7269C31.085 44.6984 33.5536 43.2355 33.8964 41.7955C34.0336 41.2241 33.5079 41.5441 32.7993 41.9555C31.7022 42.5498 30.6507 43.5098 29.5764 45.7269ZM25.5536 39.0755C27.5879 38.9841 30.7879 36.6298 29.805 36.2869C28.7079 36.0126 26.1707 38.0469 25.5536 39.0755Z" fill="#111111"/>
</svg>
