<svg width="47" height="57" viewBox="0 0 47 57" fill="none" xmlns="http://www.w3.org/2000/svg">
<path fill-rule="evenodd" clip-rule="evenodd" d="M31.3046 46.9574L44.2245 39.396C46.479 37.9993 46.4996 37.9942 46.5253 35.2521V19.7148C46.4893 17.6275 46.4636 17.607 44.3995 16.2871L31.4178 8.54662C29.1581 7.28297 29.1066 7.2932 26.8109 8.55173L13.7881 16.2462C11.6828 17.5303 11.6725 17.561 11.6416 19.9297V35.3902C11.6725 37.9686 11.7034 37.9686 13.927 39.3551L26.8418 46.9421C28.3585 47.8186 29.8444 47.8237 31.2994 46.9574H31.3046Z" fill="#FECC00"/>
<path d="M39.9965 21.2714C40.3146 20.9406 40.7073 20.5663 40.8684 20.5663C41.5169 20.5663 42.1027 20.1784 42.3557 19.5813C42.6089 18.9843 42.4802 18.2937 42.0293 17.8276L36.8364 12.4615C38.3086 11.2761 39.253 9.46067 39.253 7.42787C39.253 3.865 36.3544 0.966362 32.7915 0.966362H10.1762C6.61334 0.966362 3.7147 3.865 3.7147 7.42787C3.7147 9.46067 4.65927 11.2762 6.13142 12.4616L0.938515 17.8276C0.487501 18.2937 0.358917 18.9842 0.611993 19.5813C0.865069 20.1784 1.4508 20.5663 2.09933 20.5663C2.26043 20.5663 2.65297 20.9406 2.9712 21.2714C1.3429 25.0114 0.483947 29.21 0.483947 33.4893C0.483947 42.1524 4.06998 50.8908 10.8976 55.8007C11.1724 55.9982 11.5023 56.1046 11.8407 56.1046H31.127C31.4655 56.1046 31.7954 55.9983 32.0702 55.8007C38.9085 50.8829 42.4838 42.1363 42.4838 33.4893C42.4838 29.21 41.6248 25.0114 39.9965 21.2714ZM10.1762 4.19712H32.7915C34.5729 4.19712 36.0223 5.64644 36.0223 7.42787C36.0223 9.20931 34.5729 10.6586 32.7915 10.6586H10.1762C8.39478 10.6586 6.94546 9.20931 6.94546 7.42787C6.94546 5.64644 8.39478 4.19712 10.1762 4.19712ZM9.30402 13.8289C9.58951 13.8675 9.88028 13.8894 10.1762 13.8894H32.7915C33.0874 13.8894 33.3782 13.8676 33.6637 13.8289L38.1946 18.5108C37.8493 18.8242 37.5395 19.1628 37.2531 19.4763C36.9806 19.7744 36.2566 20.5663 36.0223 20.5663C35.7878 20.5663 35.0639 19.7744 34.7913 19.4762C33.9195 18.5225 32.8344 17.3355 31.1761 17.3355C29.5179 17.3355 28.4327 18.5225 27.5608 19.4763C27.2883 19.7744 26.5643 20.5663 26.33 20.5663C26.0956 20.5663 25.3716 19.7744 25.0991 19.4763C24.2272 18.5225 23.142 17.3355 21.4839 17.3355C19.8257 17.3355 18.7405 18.5225 17.8685 19.4763C17.596 19.7744 16.8721 20.5663 16.6377 20.5663C16.4034 20.5663 15.6795 19.7744 15.4069 19.4763C14.5349 18.5225 13.4497 17.3355 11.7916 17.3355C10.1335 17.3355 9.04825 18.5225 8.17627 19.4763C7.9037 19.7744 7.1798 20.5663 6.94546 20.5663C6.71112 20.5663 5.98722 19.7744 5.71465 19.4763C5.42808 19.1629 5.11847 18.8243 4.7731 18.5109L9.30402 13.8289ZM30.5937 52.8738H12.3739C7.02052 48.7826 3.7147 41.4106 3.7147 33.4893C3.7147 30.0048 4.34642 26.5885 5.54913 23.4932C5.966 23.6814 6.42778 23.797 6.94546 23.797C8.60359 23.797 9.6888 22.6101 10.5608 21.6562C10.8332 21.3581 11.5571 20.5663 11.7916 20.5663C12.026 20.5663 12.7498 21.3581 13.0224 21.6562C13.8944 22.6101 14.9795 23.797 16.6377 23.797C18.296 23.797 19.3811 22.6101 20.2531 21.6562C20.5255 21.3581 21.2494 20.5663 21.4839 20.5663C21.7183 20.5663 22.4421 21.3581 22.7147 21.6562C23.5867 22.6101 24.6719 23.797 26.33 23.797C27.9881 23.797 29.0733 22.6101 29.9452 21.6563C30.2178 21.3581 30.9417 20.5663 31.1761 20.5663C31.4105 20.5663 32.1344 21.3581 32.4069 21.6562C33.2789 22.6101 34.3641 23.797 36.0223 23.797C36.5398 23.797 37.0016 23.6814 37.4185 23.4932C38.6213 26.5886 39.253 30.0048 39.253 33.4893C39.253 41.4105 35.9472 48.7825 30.5937 52.8738Z" fill="black"/>
<path d="M31.6869 36.803L27.9454 35.5557V30.2586C27.9454 29.5632 27.5004 28.946 26.8408 28.7261L21.9946 27.1107C21.6632 27.0002 21.3046 27.0002 20.973 27.1107L16.1268 28.7261C15.4672 28.946 15.0224 29.5632 15.0224 30.2586V35.5557L11.2808 36.8029C10.6211 37.0229 10.1762 37.6401 10.1762 38.3354V44.797C10.1762 45.4923 10.6211 46.1095 11.2808 46.3294L16.1269 47.9448C16.2927 48 16.4652 48.0277 16.6377 48.0277C16.8102 48.0277 16.9828 48.0001 17.1485 47.9448L21.4839 46.4998L25.8192 47.9449C25.985 48.0001 26.1576 48.0278 26.33 48.0278C26.5024 48.0278 26.675 48.0002 26.8408 47.9449L31.6869 46.3295C32.3465 46.1095 32.7915 45.4923 32.7915 44.797V38.3354C32.7915 37.6401 32.3465 37.0229 31.6869 36.803ZM18.2531 31.4229L21.4839 30.346L24.7146 31.4229V35.5558L21.4839 36.6327L18.2531 35.5558V31.4229ZM16.6377 44.7095L13.407 43.6326V39.4997L16.6377 38.4228L19.8685 39.4997V43.6326L16.6377 44.7095ZM29.5608 43.6326L26.33 44.7095L23.0992 43.6326V39.4997L26.33 38.4228L29.5608 39.4997V43.6326Z" fill="black"/>
</svg>
