<svg width="53" height="59" viewBox="0 0 53 59" fill="none" xmlns="http://www.w3.org/2000/svg">
<path fill-rule="evenodd" clip-rule="evenodd" d="M32.8251 47.9576L45.745 40.3961C47.9995 38.9995 48.0201 38.9943 48.0458 36.2522V20.7149C48.0098 18.6276 47.9841 18.6071 45.92 17.2872L32.9383 9.54674C30.6786 8.28309 30.6271 8.29332 28.3314 9.55185L15.3086 17.2463C13.2033 18.5304 13.193 18.5611 13.1621 20.9298V36.3903C13.193 38.9688 13.2239 38.9688 15.4475 40.3552L28.3623 47.9422C29.8791 48.8187 31.3649 48.8239 32.8199 47.9576H32.8251Z" fill="#FECC00"/>
<path d="M51.9604 30.9234L51.6393 29.318C51.4825 28.5337 50.794 27.9693 49.9944 27.9693H44.83L50.3701 7.52534C51.0935 4.85615 49.6085 2.06998 46.9893 1.1823C44.3697 0.294395 41.4969 1.60383 40.4485 4.16274L33.3054 21.595L31.2794 20.3794C31.9493 18.3135 31.5865 17.3113 31.6902 11C31.6902 10.0735 30.939 9.3224 30.0126 9.3224H23.2264C19.1321 9.3224 15.7158 12.2716 14.985 16.1569C13.5579 15.0335 11.7603 14.3608 9.8073 14.3608H3.02114C2.09466 14.3608 1.34353 15.1119 1.34353 16.0384V22.8247C1.34353 24.7626 2.00585 26.5475 3.11364 27.9694H3.01555C2.21567 27.9694 1.52706 28.5342 1.37049 29.3185L1.04738 30.9368C-0.938016 40.8804 2.61024 51.158 10.3119 57.7625C10.6159 58.0231 11.0032 58.1664 11.4037 58.1664H41.6007C42.0011 58.1664 42.3882 58.0232 42.6922 57.7627C50.3994 51.1594 53.9508 40.8752 51.9604 30.9234ZM18.1955 27.7993L26.6066 21.4884C27.4 21.9782 37.1817 27.8337 37.408 27.9693H18.1955V27.7993ZM43.5532 5.43493C43.9314 4.51213 44.9677 4.04016 45.9123 4.36003C46.8569 4.68012 47.3925 5.68512 47.1316 6.64773L41.7137 26.64L36.2157 23.3413L43.5532 5.43493ZM23.2265 12.6775H28.3351C28.3135 17.8923 28.3839 17.8566 28.2706 18.5741L27.3652 18.0309C26.7802 17.6798 26.041 17.7182 25.4952 18.1275L18.1954 23.6047C18.1923 21.8797 18.194 19.7151 18.1936 17.7105C18.1937 14.9352 20.4514 12.6775 23.2265 12.6775ZM4.69876 17.7159H9.80741C12.5587 17.7159 14.8001 19.9353 14.8385 22.6777C14.8388 23.1158 14.84 25.0471 14.8402 25.4849L10.9558 21.6005C10.3007 20.9454 9.23848 20.9454 8.58332 21.6005C7.92816 22.2555 7.92816 23.3178 8.58332 23.973L12.4678 27.8574H9.73159C6.95648 27.8574 4.69876 25.5997 4.69876 22.8246V17.7159ZM40.9686 54.811H12.0358C0.910376 44.7856 4.39354 31.3584 4.39131 31.3245H48.6189C48.6182 31.3369 51.631 45.2093 40.9686 54.811Z" fill="black"/>
</svg>
