<svg width="55" height="56" viewBox="0 0 55 56" fill="none" xmlns="http://www.w3.org/2000/svg">
<path fill-rule="evenodd" clip-rule="evenodd" d="M30.663 45.9575L43.5829 38.396C45.8374 36.9994 45.858 36.9943 45.8837 34.2521V18.7148C45.8477 16.6275 45.822 16.6071 43.7579 15.2871L30.7762 7.54665C28.5165 6.283 28.465 6.29323 26.1693 7.55176L13.1465 15.2462C11.0412 16.5303 11.0309 16.561 11 18.9297V34.3902C11.0309 36.9687 11.0618 36.9687 13.2854 38.3551L26.2002 45.9421C27.7169 46.8187 29.2028 46.8238 30.6578 45.9575H30.663Z" fill="#FECC00"/>
<path d="M21.862 37.0973L29.4578 14.3096C29.7391 13.4654 29.2829 12.5528 28.4386 12.2714C27.5945 11.99 26.6819 12.4463 26.4004 13.2905L18.8046 36.0782C18.5233 36.9225 18.9795 37.835 19.8237 38.1164C19.9927 38.1727 20.1646 38.1995 20.3335 38.1995C21.0081 38.1996 21.6368 37.7726 21.862 37.0973Z" fill="black"/>
<path d="M33.2462 30.028C35.9117 30.028 38.0802 27.8595 38.0802 25.194C38.0802 22.5286 35.9117 20.36 33.2462 20.36C30.5807 20.36 28.4122 22.5286 28.4122 25.194C28.4122 27.8595 30.5807 30.028 33.2462 30.028ZM33.2462 23.5827C34.1347 23.5827 34.8575 24.3055 34.8575 25.194C34.8575 26.0825 34.1347 26.8053 33.2462 26.8053C32.3577 26.8053 31.6349 26.0825 31.6349 25.194C31.6349 24.3055 32.3577 23.5827 33.2462 23.5827Z" fill="black"/>
<path d="M15.0161 20.36C12.3506 20.36 10.1821 22.5286 10.1821 25.194C10.1821 27.8595 12.3506 30.028 15.0161 30.028C17.6815 30.028 19.8501 27.8595 19.8501 25.194C19.8501 22.5286 17.6816 20.36 15.0161 20.36ZM15.0161 26.8053C14.1276 26.8053 13.4047 26.0825 13.4047 25.194C13.4047 24.3055 14.1276 23.5827 15.0161 23.5827C15.9046 23.5827 16.6274 24.3055 16.6274 25.194C16.6274 26.0825 15.9047 26.8053 15.0161 26.8053Z" fill="black"/>
<path d="M54.6733 20.016L49.0544 12.524L49.2737 10.9897C49.3453 10.4876 49.1766 9.98103 48.8179 9.62246L45.3997 6.20429L48.8178 2.78613C49.447 2.15696 49.447 1.13666 48.8178 0.507385C48.1886 -0.121785 47.1683 -0.121785 46.539 0.507385L43.121 3.92555L39.7028 0.507385C39.3442 0.148703 38.8376 -0.0195197 38.3355 0.0515936L22.3841 2.33034C22.039 2.37964 21.7192 2.53959 21.4727 2.78613L1.72335 22.5354C-0.58031 24.839 -0.58031 28.5874 1.72335 30.8909L18.4342 47.6019C18.776 47.9437 19.1503 48.2337 19.5464 48.474V49.1273C19.5464 52.3851 22.1968 55.0355 25.4546 55.0355H49.0874C52.3452 55.0355 54.9956 52.3851 54.9956 49.1273V20.9828C54.9956 20.6342 54.8825 20.2948 54.6733 20.016ZM4.00209 28.6122C2.95495 27.565 2.95495 25.8613 4.00209 24.8142L23.3716 5.44471L37.9936 3.35589L40.8421 6.2044L38.5634 8.48314L37.424 7.34372C36.7948 6.71455 35.7745 6.71455 35.1452 7.34372C34.5159 7.97289 34.5159 8.99318 35.1452 9.62246L39.7028 14.18C40.0174 14.4947 40.4298 14.6521 40.8421 14.6521C41.2544 14.6521 41.6669 14.4947 41.9814 14.18C42.6107 13.5509 42.6107 12.5306 41.9814 11.9013L40.842 10.7619L43.1208 8.48314L45.9693 11.3316L43.8803 25.9537L24.511 45.3232C24.0037 45.8304 23.3293 46.1097 22.612 46.1097C21.8946 46.1097 21.2202 45.8303 20.713 45.3232L4.00209 28.6122ZM51.7729 49.1273C51.7729 50.6081 50.5682 51.8129 49.0874 51.8129H25.4546C24.0405 51.8129 22.879 50.7141 22.7771 49.3256C24.2345 49.2852 25.6798 48.7118 26.7896 47.6019L46.5389 27.8526C46.7855 27.6061 46.9454 27.2863 46.9947 26.9411L48.4098 17.0358L51.7729 21.5199V49.1273Z" fill="black"/>
</svg>
