<svg width="56" height="56" viewBox="0 0 56 56" fill="none" xmlns="http://www.w3.org/2000/svg">
<path fill-rule="evenodd" clip-rule="evenodd" d="M31.163 46.9575L44.0829 39.396C46.3374 37.9994 46.358 37.9943 46.3837 35.2521V19.7148C46.3477 17.6275 46.322 17.6071 44.2579 16.2871L31.2762 8.54665C29.0165 7.283 28.965 7.29323 26.6693 8.55176L13.6465 16.2462C11.5412 17.5303 11.5309 17.561 11.5 19.9297V35.3902C11.5309 37.9687 11.5618 37.9687 13.7854 39.3551L26.7002 46.9421C28.2169 47.8187 29.7028 47.8238 31.1578 46.9575H31.163Z" fill="#FECC00"/>
<path d="M53.2105 28.1292C53.2105 28.1292 46.8363 17.562 45.5433 15.4184V10.218C46.4324 10.218 47.1532 9.49706 47.1532 8.60792V2.16783C47.1532 1.2787 46.4323 0.557785 45.5432 0.557785H32.6631C31.774 0.557785 31.053 1.2787 31.053 2.16783V8.60792C31.053 9.49706 31.774 10.218 32.6631 10.218V15.4182L24.9943 28.1298C23.6621 30.3408 22.9579 32.8556 22.9579 35.4023C22.9579 35.936 22.9892 36.4766 23.0506 37.0093L24.6947 51.2375C24.9716 53.6351 27.0793 55.513 29.4927 55.513H48.7131C51.1265 55.513 53.234 53.6349 53.5111 51.2376L55.1556 37.0093C55.217 36.4773 55.248 35.9366 55.248 35.4024C55.2484 32.8545 54.5437 30.3395 53.2105 28.1292ZM34.273 3.77788H43.9331V6.99787H34.273V3.77788ZM51.957 36.6396L50.3127 50.8678C50.225 51.6271 49.4775 52.293 48.7133 52.293H29.4929C28.7286 52.293 27.9813 51.627 27.8935 50.8678L26.2495 36.6397C26.2021 36.2294 26.1781 35.813 26.1781 35.4023C26.1781 33.4411 26.7225 31.501 27.7521 29.7924L35.652 16.6978C35.8035 16.4469 35.8834 16.1592 35.8834 15.866V10.218H42.3236L42.3235 15.8664C42.3235 16.161 42.4043 16.4499 42.557 16.7017C42.6889 16.9201 50.4401 29.7703 50.4535 29.7924C51.4841 31.5009 52.0287 33.4408 52.0287 35.4024C52.0283 35.8135 52.0043 36.2299 51.957 36.6396Z" fill="black"/>
<path d="M48.1747 31.3148C48.1728 31.311 48.1708 31.3073 48.1687 31.3035C46.3265 27.991 42.9641 26.0135 39.1738 26.0135C35.3836 26.0135 32.021 27.991 30.178 31.3052C29.4764 32.5704 29.1206 33.9488 29.1206 35.402C29.1206 35.6901 29.1365 35.9939 29.169 36.3131C29.4155 38.6273 30.094 44.9963 30.3749 47.6335C30.4621 48.452 31.1527 49.0729 31.9759 49.0729H46.3717C47.1949 49.0729 47.8855 48.452 47.9727 47.6335L49.178 36.3205C49.2111 35.9944 49.2271 35.694 49.2271 35.402C49.2269 33.9512 48.8729 32.5761 48.1747 31.3148ZM44.9242 45.8529H33.4236L32.7099 38.9836H45.6379L44.9242 45.8529ZM45.9794 35.7634H32.3682C32.3506 35.5771 32.3407 35.398 32.3407 35.2321C32.3407 34.3318 32.5605 33.6484 32.9931 32.8685C34.2589 30.5923 36.5694 29.2335 39.1738 29.2335C41.7757 29.2335 44.0845 30.5899 45.3511 32.8622C45.3526 32.8648 45.3539 32.8674 45.3554 32.8699C45.7878 33.6495 46.007 34.3316 46.007 35.2321C46.007 35.3983 45.997 35.5757 45.9794 35.7634Z" fill="black"/>
<path d="M17.9582 32.9729H1.85817C0.917046 32.9729 0.175508 33.7782 0.253712 34.7167C0.61347 39.0335 1.26219 46.8177 1.61776 51.0842C1.82455 53.5678 3.93884 55.5132 6.43105 55.5132H13.3856C15.8778 55.5132 17.9921 53.5678 18.1989 51.0843C18.2126 50.9201 19.5629 34.7168 19.5629 34.7168C19.6409 33.7785 18.9 32.9729 17.9582 32.9729ZM14.9899 50.8167C14.9209 51.6445 14.2162 52.293 13.3855 52.293H6.43094C5.60024 52.293 4.89555 51.6445 4.82658 50.8167L4.13081 42.5155H15.6857L14.9899 50.8167ZM15.9603 39.1982H3.85613L3.60787 36.1929H16.2085L15.9603 39.1982Z" fill="black"/>
</svg>
