<svg width="55" height="56" viewBox="0 0 55 56" fill="none" xmlns="http://www.w3.org/2000/svg">
<path fill-rule="evenodd" clip-rule="evenodd" d="M34.663 45.9575L47.5829 38.396C49.8374 36.9994 49.858 36.9942 49.8837 34.2521V18.7148C49.8477 16.6275 49.822 16.607 47.7579 15.2871L34.7762 7.54663C32.5165 6.28298 32.465 6.29322 30.1693 7.55175L17.1465 15.2462C15.0412 16.5303 15.0309 16.561 15 18.9297V34.3902C15.0309 36.9687 15.0618 36.9687 17.2854 38.3551L30.2002 45.9421C31.7169 46.8186 33.2028 46.8238 34.6578 45.9575H34.663Z" fill="#FECC00"/>
<path d="M28.5457 18.487C26.128 18.0606 23.6119 18.4561 21.2577 19.6029C21.1359 18.8622 20.9645 18.1382 20.7488 17.4335C26.8851 17.3366 31.8475 12.3154 31.8475 6.15641V4.00798C31.8475 3.11809 31.1261 2.39665 30.2362 2.39665H28.0877C22.7673 2.39665 18.296 6.09969 17.1145 11.0637C14.0683 7.72015 9.6898 5.6193 4.831 5.6193C3.94112 5.6193 3.21968 6.34075 3.21968 7.23063C3.21968 8.12051 3.94112 8.84196 4.831 8.84196C11.2136 8.84196 16.5688 13.3401 17.9251 19.3469C15.7338 18.3992 13.4223 18.0939 11.1944 18.4869C7.35703 19.1635 4.12374 21.7465 2.09024 25.7602C0.134842 29.6193 -0.478215 34.3745 0.363865 39.1499C1.20584 43.9252 3.40831 48.1839 6.56565 51.1416C9.84922 54.2176 13.7712 55.5391 17.6083 54.8625C18.3741 54.7274 19.1321 54.508 19.8701 54.2081C20.6081 54.5081 21.3659 54.7274 22.1318 54.8625C22.7885 54.9783 23.4473 55.0355 24.1054 55.0355C27.2924 55.0354 30.4528 53.6912 33.1746 51.1416C36.3318 48.1839 38.5344 43.9252 39.3764 39.1499C40.2183 34.3745 39.6052 29.6193 37.6499 25.7602C35.6163 21.7467 32.383 19.1636 28.5457 18.487ZM20.0312 13.6759C20.0312 9.23351 23.6454 5.6193 28.0878 5.6193H28.6249V6.15641C28.6249 10.5988 25.0107 14.2131 20.5683 14.2131H20.0312V13.6759ZM4.96496 27.2167C6.52891 24.13 8.93989 22.1568 11.754 21.6606C14.1491 21.2383 16.6221 21.9172 18.9052 23.6243C19.4773 24.052 20.2628 24.052 20.8349 23.6243C23.1181 21.9172 25.5907 21.2384 27.9862 21.6606C30.8001 22.1568 33.2113 24.1299 34.7752 27.2167C36.028 29.6892 36.6192 32.6263 36.5092 35.6974H18.7958C16.7227 35.6974 15.0361 37.3841 15.0361 39.4572V42.6798C15.0361 43.5683 14.3132 44.2912 13.4248 44.2912C12.5363 44.2912 11.8134 43.5683 11.8134 42.6798V39.4572C11.8134 37.3841 10.1268 35.6974 8.05366 35.6974H3.23096C3.12096 32.6263 3.7122 29.6893 4.96496 27.2167ZM30.9713 48.7897C28.4459 51.1553 25.5055 52.185 22.6914 51.6888C21.9736 51.5622 21.2609 51.3289 20.573 50.9954C20.3511 50.8877 20.1105 50.8339 19.8701 50.8339C19.6297 50.8339 19.389 50.8877 19.1671 50.9954C18.4793 51.3289 17.7665 51.5622 17.0487 51.6888C14.2345 52.1849 11.2941 51.1553 8.76877 48.7897C6.18849 46.3726 4.36039 42.8777 3.59877 38.9201H8.05366C8.34982 38.9201 8.59077 39.161 8.59077 39.4572V42.6798C8.59077 45.3453 10.7593 47.5138 13.4248 47.5138C16.0902 47.5138 18.2587 45.3453 18.2587 42.6798V39.4572C18.2587 39.161 18.4997 38.9201 18.7958 38.9201H36.1414C35.3796 42.8777 33.5515 46.3727 30.9713 48.7897Z" fill="black"/>
<path d="M53.7608 8.09213C54.5279 7.23619 54.9956 6.10665 54.9956 4.86948C54.9956 2.20402 52.8271 0.0354919 50.1616 0.0354919H43.7163C41.0508 0.0354919 38.8823 2.20402 38.8823 4.86948C38.8823 6.10665 39.35 7.23619 40.1171 8.09213C39.35 8.94807 38.8823 10.0776 38.8823 11.3148C38.8823 12.552 39.35 13.6815 40.1171 14.5374C39.35 15.3934 38.8823 16.5229 38.8823 17.7601C38.8823 19.8607 40.2295 21.6518 42.105 22.3169V53.4242C42.105 54.314 42.8264 55.0355 43.7163 55.0355H50.1616C51.0515 55.0355 51.7729 54.314 51.7729 53.4242V22.3169C53.6484 21.6518 54.9956 19.8607 54.9956 17.7601C54.9956 16.5229 54.5279 15.3934 53.7608 14.5374C54.5279 13.6815 54.9956 12.552 54.9956 11.3148C54.9956 10.0776 54.5279 8.94807 53.7608 8.09213ZM42.105 11.3148C42.105 10.4263 42.8278 9.70346 43.7163 9.70346H50.1616C51.0501 9.70346 51.7729 10.4263 51.7729 11.3148C51.7729 12.2033 51.0501 12.9261 50.1616 12.9261H43.7163C42.8278 12.9261 42.105 12.2033 42.105 11.3148ZM43.7163 3.25815H50.1616C51.0501 3.25815 51.7729 3.98099 51.7729 4.86948C51.7729 5.75796 51.0501 6.4808 50.1616 6.4808H43.7163C42.8278 6.4808 42.105 5.75796 42.105 4.86948C42.105 3.98099 42.8278 3.25815 43.7163 3.25815ZM45.3276 51.8128V22.5941H48.5503V51.8128H45.3276ZM50.1616 19.3714H43.7163C42.8278 19.3714 42.105 18.6486 42.105 17.7601C42.105 16.8716 42.8278 16.1488 43.7163 16.1488H50.1616C51.0501 16.1488 51.7729 16.8716 51.7729 17.7601C51.7729 18.6486 51.0501 19.3714 50.1616 19.3714Z" fill="black"/>
</svg>
