<svg width="49" height="61" viewBox="0 0 49 61" fill="none" xmlns="http://www.w3.org/2000/svg">
<path fill-rule="evenodd" clip-rule="evenodd" d="M33.7528 48.9575L46.6727 41.396C48.9272 39.9994 48.9478 39.9943 48.9736 37.2521V21.7148C48.9375 19.6275 48.9118 19.6071 46.8477 18.2871L33.866 10.5466C31.6063 9.283 31.5549 9.29323 29.2591 10.5518L16.2363 18.2462C14.131 19.5303 14.1207 19.561 14.0898 21.9297V37.3902C14.1207 39.9687 14.1516 39.9687 16.3753 41.3551L29.29 48.9421C30.8068 49.8187 32.2927 49.8238 33.7476 48.9575H33.7528Z" fill="#FECC00"/>
<path d="M26.6635 11.7387L19.1947 0.535385H7.99134L0.522461 11.7387L7.99134 22.942M26.6635 11.7387L19.1947 22.942M26.6635 11.7387H37.8669L45.3357 22.942L41.6013 28.5437V37.8798C41.6013 39.9423 39.9294 41.6142 37.8669 41.6142C35.8044 41.6142 34.1324 39.9423 34.1324 37.8798V34.1453H26.6635M19.1947 22.942H7.99134M19.1947 22.942L26.6635 34.1453M7.99134 22.942L0.522461 34.1453L7.99146 45.3487H19.1947L26.6635 34.1453M41.6013 56.8009C41.6013 58.8635 39.9294 60.5354 37.8669 60.5354C35.8044 60.5354 34.1324 58.8635 34.1324 56.8009C34.1324 54.7384 37.8669 49.3321 37.8669 49.3321C37.8669 49.3321 41.6013 54.7384 41.6013 56.8009Z" stroke="#111111" stroke-width="3.73444" stroke-miterlimit="10"/>
</svg>
