<svg width="18" height="18" fill="none" xmlns="http://www.w3.org/2000/svg"><path fill-rule="evenodd" clip-rule="evenodd" d="M15.904 12.044c0 2.159-1.76 3.945-3.945 3.945H5.562a3.953 3.953 0 0 1-3.945-3.945V5.633c0-2.16 1.759-3.945 3.945-3.945h6.437c2.16 0 3.945 1.76 3.945 3.945v6.41h-.04ZM12.652.169H4.869A4.75 4.75 0 0 0 .097 4.94v7.797A4.758 4.758 0 0 0 4.87 17.51h7.796a4.758 4.758 0 0 0 4.772-4.772V4.94A4.77 4.77 0 0 0 12.652.17Z" fill="#020001"/><path fill-rule="evenodd" clip-rule="evenodd" d="M8.758 11.772c-1.626.027-2.945-1.28-2.972-2.905-.027-1.626 1.28-2.946 2.906-2.972 1.626-.027 2.945 1.28 2.972 2.905v.04c0 1.586-1.306 2.906-2.906 2.932Zm3.16-6.065-.04-.04-.04-.04a4.35 4.35 0 0 0-3.08-1.28 4.46 4.46 0 0 0-4.424 4.479c0 1.186.48 2.319 1.306 3.159a4.366 4.366 0 0 0 3.118 1.306c2.466-.04 4.439-2.106 4.399-4.598a4.405 4.405 0 0 0-1.24-2.986ZM14.476 4.153c0 .588-.453 1.068-1.04 1.068a.995.995 0 0 1-.732-.307 1.065 1.065 0 0 1 .027-1.521c.2-.2.453-.307.733-.307.24 0 .48.093.666.24l.026.027c.04.027.067.067.094.093l.026.027c.107.187.2.427.2.68Z" fill="#020001"/></svg>