<svg width="36" height="37" viewBox="0 0 36 37" fill="none" xmlns="http://www.w3.org/2000/svg">
<g filter="url(#filter0_d_2178_974)">
<rect y="0.828857" width="36" height="36" rx="18" fill="white"/>
<path fill-rule="evenodd" clip-rule="evenodd" d="M23.1388 21.1364C23.1388 22.691 21.8721 23.9769 20.2983 23.9769H15.6922C14.1377 23.9769 12.8518 22.7102 12.8518 21.1364V16.5207C12.8518 14.9662 14.1185 13.6803 15.6922 13.6803H20.3271C21.8817 13.6803 23.1676 14.947 23.1676 16.5207V21.1364H23.1388ZM20.7973 12.5867H15.1932C13.2836 12.5867 11.7578 14.1125 11.7578 16.0221V21.6358C11.7578 23.5358 13.2836 25.0712 15.1932 25.0712H20.8069C22.7069 25.0712 24.2423 23.5454 24.2423 21.6358V16.0221C24.2327 14.1125 22.7069 12.5867 20.7973 12.5867Z" fill="#111111"/>
<path fill-rule="evenodd" clip-rule="evenodd" d="M17.9938 20.941C16.8231 20.9602 15.8731 20.0198 15.8539 18.849C15.8347 17.6783 16.7751 16.7283 17.9458 16.7091C19.1166 16.6899 20.0666 17.6303 20.0858 18.8011V18.8298C20.0858 19.9718 19.1453 20.9218 17.9938 20.941ZM20.2683 16.574L20.2107 16.5165C19.6158 15.9215 18.8193 15.5952 17.994 15.5952C16.2283 15.6048 14.7985 17.0538 14.8081 18.8195C14.8081 19.6736 15.1536 20.4892 15.7485 21.0938C16.3435 21.6983 17.1496 22.0342 17.994 22.0342C19.7693 22.0054 21.1895 20.518 21.1607 18.7235C21.1415 17.9271 20.8345 17.1498 20.2683 16.574Z" fill="#111111"/>
<path fill-rule="evenodd" clip-rule="evenodd" d="M22.1106 15.4553C22.1106 15.878 21.7845 16.2239 21.3624 16.2239C21.1609 16.2239 20.9691 16.147 20.8348 16.0029C20.5374 15.7051 20.5374 15.2055 20.854 14.9077C20.9979 14.7636 21.1801 14.6868 21.3816 14.6868C21.5542 14.6868 21.7269 14.754 21.8612 14.8597L21.8804 14.8789C21.9092 14.8981 21.9283 14.9269 21.9475 14.9461L21.9667 14.9654C22.0434 15.0999 22.1106 15.2728 22.1106 15.4553Z" fill="#111111"/>
</g>
<defs>
<filter id="filter0_d_2178_974" x="-14.4" y="-12.1311" width="64.8" height="64.8" filterUnits="userSpaceOnUse" color-interpolation-filters="sRGB">
<feFlood flood-opacity="0" result="BackgroundImageFix"/>
<feColorMatrix in="SourceAlpha" type="matrix" values="0 0 0 0 0 0 0 0 0 0 0 0 0 0 0 0 0 0 127 0" result="hardAlpha"/>
<feOffset dy="1.44"/>
<feGaussianBlur stdDeviation="7.2"/>
<feColorMatrix type="matrix" values="0 0 0 0 0 0 0 0 0 0 0 0 0 0 0 0 0 0 0.1 0"/>
<feBlend mode="normal" in2="BackgroundImageFix" result="effect1_dropShadow_2178_974"/>
<feBlend mode="normal" in="SourceGraphic" in2="effect1_dropShadow_2178_974" result="shape"/>
</filter>
</defs>
</svg>
