<svg width="14" height="11" viewBox="0 0 14 11" fill="none" xmlns="http://www.w3.org/2000/svg">
<path d="M13.5205 5.0251L9.4296 0.479644C9.34233 0.383281 9.22051 0.328735 9.09142 0.328735H6.36415C6.18506 0.328735 6.02233 0.43419 5.94869 0.597826C5.87597 0.762372 5.90597 0.95419 6.02597 1.08692L9.84324 5.32874L6.02597 9.56964C5.90597 9.70328 5.87506 9.8951 5.94869 10.0587C6.02233 10.2233 6.18506 10.3287 6.36415 10.3287H9.09142C9.22051 10.3287 9.34233 10.2733 9.4296 10.1787L13.5205 5.63328C13.676 5.46055 13.676 5.19692 13.5205 5.0251Z" fill="#079600"/>
<path d="M7.61142 5.0251L3.52051 0.479644C3.43324 0.383281 3.31142 0.328735 3.18233 0.328735H0.455057C0.275966 0.328735 0.113238 0.43419 0.0396021 0.597826C-0.0331252 0.762372 -0.00312521 0.95419 0.116875 1.08692L3.93415 5.32874L0.116875 9.56964C-0.00312521 9.70328 -0.0340343 9.8951 0.0396021 10.0587C0.113238 10.2233 0.275966 10.3287 0.455057 10.3287H3.18233C3.31142 10.3287 3.43324 10.2733 3.52051 10.1787L7.61142 5.63328C7.76688 5.46055 7.76688 5.19692 7.61142 5.0251Z" fill="#079600"/>
</svg>
