<svg width="18" height="13" viewBox="0 0 18 13" fill="none" xmlns="http://www.w3.org/2000/svg">
<path d="M16.9238 6.06777L12.0147 0.61322C11.91 0.497583 11.7638 0.432129 11.6089 0.432129H8.3362C8.12129 0.432129 7.92601 0.558674 7.83765 0.755038C7.75038 0.952493 7.78638 1.18267 7.93038 1.34195L12.5111 6.43213L7.93038 11.5212C7.78638 11.6816 7.74929 11.9118 7.83765 12.1081C7.92601 12.3056 8.12129 12.4321 8.3362 12.4321H11.6089C11.7638 12.4321 11.91 12.3656 12.0147 12.2521L16.9238 6.79758C17.1104 6.59031 17.1104 6.27395 16.9238 6.06777Z" fill="#388D50"/>
<path d="M9.83292 6.06777L4.92383 0.61322C4.8191 0.497583 4.67292 0.432129 4.51801 0.432129H1.24529C1.03038 0.432129 0.835105 0.558674 0.746741 0.755038C0.659469 0.952493 0.695469 1.18267 0.839469 1.34195L5.4202 6.43213L0.839469 11.5212C0.695469 11.6816 0.658378 11.9118 0.746741 12.1081C0.835105 12.3056 1.03038 12.4321 1.24529 12.4321H4.51801C4.67292 12.4321 4.8191 12.3656 4.92383 12.2521L9.83292 6.79758C10.0195 6.59031 10.0195 6.27395 9.83292 6.06777Z" fill="#388D50"/>
</svg>
