<svg width="17" height="16" fill="none" xmlns="http://www.w3.org/2000/svg"><path fill-rule="evenodd" clip-rule="evenodd" d="M16.145 15.418V9.857c0-2.734-.584-4.813-3.775-4.813-1.532 0-2.56.829-2.981 1.635h-.035V5.29H6.338v10.129h3.156v-5.012c0-1.332.246-2.594 1.894-2.594s1.636 1.52 1.636 2.687v4.93l3.121-.011ZM1.222 5.295h3.146v10.132H1.222V5.295ZM2.801.238c-1.004 0-1.833.82-1.833 1.827 0 1.007.817 1.838 1.821 1.838 1.005 0 1.834-.82 1.834-1.827v-.023c0-.995-.818-1.815-1.822-1.815Z" fill="#020001"/></svg>