<svg width="15" height="11" viewBox="0 0 15 11" fill="none" xmlns="http://www.w3.org/2000/svg">
<path d="M14.3897 5.68013L10.2987 1.13467C10.2115 1.03831 10.0897 0.983765 9.96056 0.983765H7.23329C7.0542 0.983765 6.89147 1.08922 6.81783 1.25286C6.74511 1.4174 6.77511 1.60922 6.89511 1.74195L10.7124 5.98376L6.89511 10.2247C6.77511 10.3583 6.7442 10.5501 6.81783 10.7138C6.89147 10.8783 7.0542 10.9838 7.23329 10.9838H9.96056C10.0897 10.9838 10.2115 10.9283 10.2987 10.8338L14.3897 6.28831C14.5451 6.11558 14.5451 5.85195 14.3897 5.68013Z" fill="#E53D55"/>
<path d="M8.48056 5.68013L4.38965 1.13467C4.30238 1.03831 4.18056 0.983765 4.05147 0.983765H1.3242C1.14511 0.983765 0.982379 1.08922 0.908743 1.25286C0.836015 1.4174 0.866015 1.60922 0.986015 1.74195L4.80329 5.98376L0.986015 10.2247C0.866015 10.3583 0.835106 10.5501 0.908743 10.7138C0.982379 10.8783 1.14511 10.9838 1.3242 10.9838H4.05147C4.18056 10.9838 4.30238 10.9283 4.38965 10.8338L8.48056 6.28831C8.63602 6.11558 8.63602 5.85195 8.48056 5.68013Z" fill="#E53D55"/>
</svg>
