<svg width="92" height="70" viewBox="0 0 92 70" fill="none" xmlns="http://www.w3.org/2000/svg">
<path fill-rule="evenodd" clip-rule="evenodd" d="M70.043 65.9315C69.6218 67.1339 69.6768 69.6912 71.7641 69.6241C72.6491 69.5935 72.582 68.7574 72.643 67.732C72.759 65.962 73.7172 63.6 74.4802 61.4821C74.6144 61.1281 75.652 61.183 75.707 61.6469C75.8962 63.0202 75.5849 65.2723 76.3417 67.4818C76.7018 68.501 77.0863 69.3189 78.0446 69.5386C78.8563 69.7217 79.9794 69.386 80.1747 68.8001C80.4127 68.0982 79.2653 67.7808 78.8502 66.6944C78.069 64.6742 78.185 61.7323 78.2521 60.0905C80.2357 57.4843 84.6485 55.342 85.9424 53.8528C86.2964 53.4317 84.7217 51.7654 84.3372 51.8326C82.8785 52.15 79.9366 55.5129 77.8798 57.466C77.3793 57.9482 75.8168 58.467 76.0121 58.0153C76.2563 57.4111 76.6835 56.4101 77.2084 55.7754C77.4647 55.458 78.6183 54.2373 78.5878 53.4866C78.5695 53.035 77.477 52.1133 76.5431 52.15C76.1586 52.15 75.0295 52.6993 75.2858 54.1397C73.6013 57.5698 70.7754 63.8197 70.043 65.9254V65.9315Z" fill="white"/>
<path fill-rule="evenodd" clip-rule="evenodd" d="M63.8053 66.1512C63.4879 67.0545 63.4208 68.2386 63.7687 68.9771C63.9701 69.4471 64.5804 70.0452 65.441 69.8316C66.8448 69.4654 66.326 66.8714 66.5762 66.0536C68.1814 61.0732 69.2434 58.7478 71.5688 54.2312C71.6482 54.0786 72.0022 53.8284 71.8008 52.9922C71.7031 52.5711 71.227 51.973 70.281 51.7532C69.4387 51.5518 69.1946 52.1378 68.749 53.1936C66.8631 57.7712 65.5203 61.4333 63.8053 66.1512Z" fill="white"/>
<path fill-rule="evenodd" clip-rule="evenodd" d="M49.4805 66.7738C49.2059 67.1156 48.443 68.3362 50.3289 69.3311C50.9698 69.6729 51.9463 69.0931 52.5017 68.0921C53.3684 66.4808 54.1313 64.784 55.1384 62.7699C55.4375 62.1779 56.591 62.1413 56.6154 62.8859C56.6826 64.1554 56.3591 64.9366 56.4079 67.0423C56.4384 68.1959 57.2075 70.1245 58.6052 69.3982C59.1056 69.1297 59.7343 67.5184 60.9611 65.2296C63.1705 61.0793 64.4156 58.3816 65.3983 53.7552C65.4959 53.2303 65.4288 51.9608 63.9212 51.6373C63.256 51.503 62.548 51.6556 62.5785 52.3331C62.725 55.9768 60.7291 59.4191 59.7953 62.3854C59.6305 62.9469 58.5746 62.776 58.5563 62.3366C58.4709 60.237 58.239 57.8628 58.2451 56.2698C58.2328 55.0979 58.3244 53.1692 58.1596 52.4734C58.0375 51.9791 57.1831 51.3199 56.5178 51.3199C55.6511 51.3199 55.6145 52.034 55.5779 52.388C55.1994 56.0317 52.4102 63.0324 49.4744 66.7799L49.4805 66.7738Z" fill="white"/>
<path fill-rule="evenodd" clip-rule="evenodd" d="M44.4879 55.281C44.6893 55.281 44.671 55.8975 44.5978 56.0684C43.1635 58.6928 41.1066 63.423 40.0568 66.7371C39.77 67.6404 40.008 69.264 41.3447 69.264C41.7292 69.264 42.5593 69.1968 42.5959 68.8611C42.6264 68.5438 42.5226 67.8419 42.6081 67.5245C43.9875 62.6112 45.9467 59.1628 47.9364 55.0003C48.0706 54.7134 48.2843 54.5669 48.6505 54.5669C49.151 54.5486 50.5059 54.2495 52.4407 54.451C53.0449 54.5181 52.5139 51.6922 51.513 51.7776C47.4847 52.1622 44.5612 52.8152 41.6437 52.681C41.2592 52.6626 40.9541 52.8824 40.9052 52.9983C40.8076 53.4012 41.0456 55.0369 41.6498 55.1223C41.9367 55.1528 42.9987 55.2871 44.4818 55.2871L44.4879 55.281Z" fill="white"/>
<path fill-rule="evenodd" clip-rule="evenodd" d="M27.5326 69.441C27.8683 69.441 28.2528 69.0381 28.2894 68.6902C28.4664 66.9508 28.7899 65.4798 29.4857 64.1432C29.7909 63.5267 30.6454 63.9601 31.1092 64.1615C31.2618 64.2286 31.5426 67.7076 33.2454 69.6302C33.6849 70.1306 35.6929 70.1978 35.522 69.3616C35.2473 68.0067 33.3004 63.7587 33.4285 63.6976C34.5088 63.1605 38.2685 61.8605 39.2329 58.9309C39.8432 57.1242 39.8005 55.6533 39.1047 54.2495C38.6836 53.3828 37.1455 52.1927 34.753 52.1622C33.2454 52.1439 31.1458 52.6993 30.4745 53.3462C29.8946 53.8833 30.2914 54.5974 30.8895 55.3359C27.5082 61.1891 24.9997 68.3118 25.6955 68.6963C25.842 69.032 26.3486 69.0809 26.5622 69.0809C27.0321 69.0809 27.3495 69.4471 27.5326 69.4471V69.441ZM33.7276 55.3665C35.0032 55.0674 35.7539 55.1162 36.645 55.519C37.2066 55.7693 37.3835 56.3186 37.0662 57.2585C36.5657 58.8149 33.2332 61.0854 31.4754 61.0854C31.2435 61.0854 30.8285 61.1342 30.9872 60.5361C31.5243 58.528 33.398 55.4397 33.7276 55.3726V55.3665Z" fill="white"/>
<path fill-rule="evenodd" clip-rule="evenodd" d="M17.9747 62.0924C17.9747 62.0924 18.5179 60.9145 20.062 58.9553C20.9165 57.8628 21.7038 56.9595 22.3203 56.9472C21.6489 58.5647 20.9104 60.707 20.6907 62.245C20.0254 62.4098 19.2991 62.2267 18.2554 62.2267C18.0296 62.2267 17.9747 62.1596 17.9747 62.0985V62.0924ZM11.5416 67.8785L11.6637 68.501C11.6698 68.733 12.3107 69.1358 13.037 69.3494C13.629 69.5142 14.2088 68.7146 14.3065 68.3545C14.6178 67.1278 15.4539 65.8216 16.1131 64.7718C17.0714 64.6254 19.2991 64.7413 19.9522 64.7413C20.4099 64.7413 20.355 65.0709 20.2695 66.6517C20.2329 67.4512 20.3428 67.7625 20.8127 68.4522C20.9714 68.6964 21.5452 69.1724 22.009 69.3982C22.3752 69.5752 23.2175 69.3799 23.2053 69.0076C23.071 65.1319 24.0842 56.9595 26.0983 54.0176C26.0983 53.9688 26.3119 53.5415 26.3058 53.511C26.3058 53.3829 24.8349 51.0269 24.194 51.3016C20.7212 52.8213 16.1375 59.413 14.4103 62.6479C13.0065 63.1727 12.8844 64.1493 12.976 65.2967C12.152 66.377 11.7736 67.1583 11.5355 67.8785H11.5416Z" fill="white"/>
<path fill-rule="evenodd" clip-rule="evenodd" d="M3.09451 65.6629C3.28371 64.6437 4.30909 61.8178 5.31615 61.6347C5.59691 61.5858 6.49411 61.4028 6.90304 61.299C8.34345 60.945 9.58855 62.3183 9.24066 63.0385C8.93548 63.6732 8.23969 64.1737 7.83076 64.4239C6.45139 65.3089 4.97436 65.9803 3.57057 65.9803C3.10061 65.9803 3.0762 65.7972 3.0884 65.6629H3.09451ZM0.390689 66.9141C0.427309 67.6832 1.15362 69.3067 2.80765 69.3067C3.9795 69.3067 5.17577 69.1419 7.07394 68.2691C9.30169 67.2681 10.2965 65.9925 11.0229 65.0099C12.6281 62.7882 11.0839 60.0783 10.0158 59.7426C11.2609 59.1933 13.4581 57.9177 14.1783 56.3796C14.8009 54.9941 14.4103 53.035 13.0126 52.4002C12.4816 52.15 11.7125 51.796 10.559 51.796C8.90497 51.796 7.1777 52.1316 5.69457 52.5162C4.8706 52.7176 4.10157 53.1204 3.8025 53.5354C3.56447 53.8711 3.16775 54.6402 4.38843 55.342C3.34475 58.174 1.23907 63.3925 6.9706e-05 66.316C-0.00603372 66.5357 0.390689 66.8531 0.396792 66.9202L0.390689 66.9141ZM6.44529 58.1679C6.28049 58.1679 6.27439 58.0703 6.27439 58.0703C6.50632 56.8984 6.91525 56.6848 7.16549 55.5801C7.1899 55.4458 6.93966 55.0125 7.0068 54.9758C7.31808 54.8599 8.16035 54.3045 9.81438 54.2251C11.1999 54.1397 11.8041 54.9758 11.5966 55.6106C11.4074 56.1782 10.3942 56.7641 8.81342 57.6003C7.7209 58.1679 7.25094 58.1679 6.45139 58.1679H6.44529Z" fill="white"/>
<path fill-rule="evenodd" clip-rule="evenodd" d="M84.7888 64.6559V68.2508H85.2405V66.5907H86.0462L87.0715 68.2508H87.5903L86.5161 66.5907C87.3462 66.5907 87.6453 66.0841 87.6453 65.547C87.6269 64.9733 87.2485 64.6559 86.4307 64.6559H84.7888ZM85.2405 66.2428V64.9733H86.3757C86.8762 64.9733 87.157 65.1503 87.157 65.5836C87.157 66.0169 86.9312 66.2428 86.3635 66.2428H85.2405ZM82.7625 66.4442C82.7625 68.1409 84.0748 69.5874 85.8997 69.6729C87.3035 69.6729 89.1894 68.6536 89.1894 66.4259C89.1894 64.5765 87.6636 63.2338 85.9424 63.2338C84.3067 63.2704 82.7808 64.5399 82.7625 66.4442ZM83.2813 66.493C83.2813 64.4178 84.8743 63.6732 85.9363 63.661C87.572 63.661 88.6828 64.9 88.6828 66.4259C88.6828 68.0799 87.4683 69.2395 85.9363 69.2395C84.3067 69.1907 83.2813 67.9029 83.2813 66.493Z" fill="#231F20"/>
<path fill-rule="evenodd" clip-rule="evenodd" d="M73.5952 46.9498L88.9148 37.929C91.5881 36.2627 91.6125 36.2566 91.643 32.9852V14.4491C91.6003 11.9589 91.5697 11.9345 89.1223 10.3598L73.7294 1.12533C71.05 -0.382216 70.989 -0.37001 68.2669 1.13143L52.8252 10.311C50.335 11.8429 50.3228 11.8796 50.2801 14.7054V33.15C50.3167 36.2261 50.3533 36.2261 52.99 37.8801L68.3035 46.9315C70.102 47.9772 71.8638 47.9834 73.5891 46.9498H73.5952Z" fill="white"/>
<path fill-rule="evenodd" clip-rule="evenodd" d="M72.936 45.8451L88.695 36.5496C89.1467 36.2627 89.6106 35.982 90.0012 35.6158C90.3552 35.2007 90.3124 34.5538 90.3369 34.035L90.3552 32.9852V14.0524C90.3369 13.6618 90.3369 13.2528 90.2392 12.8744C90.1477 12.6364 89.9523 12.5021 89.7631 12.3495C89.3298 12.0383 88.8903 11.7514 88.4387 11.4645L72.6308 1.99202C72.1792 1.74178 71.7214 1.47933 71.227 1.32064C70.7205 1.22298 70.2017 1.55867 69.7744 1.7784L68.9077 2.24836L53.0693 11.6782C52.6543 11.9406 52.221 12.1969 51.867 12.5326C51.574 12.8683 51.6106 13.3993 51.5923 13.8143L51.574 14.7177V33.6688C51.5923 34.1815 51.5923 34.7064 51.7022 35.213C51.7815 35.4388 51.8731 35.5364 52.044 35.6951C52.5567 36.0979 53.1121 36.4397 53.6614 36.7815L69.4265 46.0954C69.8782 46.3517 70.3298 46.6264 70.8242 46.7911C71.0256 46.8339 71.1111 46.8095 71.3064 46.7423C71.874 46.4921 72.405 46.1625 72.936 45.8451Z" fill="#FFCB05"/>
<path fill-rule="evenodd" clip-rule="evenodd" d="M56.7131 19.637C55.7732 19.8018 54.5037 21.7366 54.229 22.7803C53.344 25.8686 54.5586 29.5124 55.7182 32.9364C55.8281 33.3209 56.2675 33.3209 56.2126 32.8265C55.9929 29.1278 57.1525 27.2541 57.4272 26.3142C57.5859 25.8442 58.0497 24.593 58.3 23.769C58.5991 22.8108 59.1117 21.4375 58.7516 20.3023C58.6418 19.753 57.592 19.5272 56.707 19.637H56.7131ZM56.8169 21.822C55.4375 21.822 55.6633 25.4841 55.7793 26.2592H55.8891C56.1089 24.9897 57.2075 23.531 57.2075 22.3713C57.2075 22.0967 56.9877 21.822 56.823 21.822H56.8169Z" fill="#3C291E"/>
<path fill-rule="evenodd" clip-rule="evenodd" d="M66.2589 21.3582C67.1377 21.9624 73.1008 23.6042 74.8586 20.992C73.7172 21.346 72.9482 21.6023 71.813 21.6023C70.9463 21.6023 68.1753 21.5596 67.7054 20.3938C67.5589 20.0337 67.6932 19.6431 68.1509 19.3502C69.0786 18.7581 70.9036 18.1966 73.0214 18.4224C75.1393 18.6483 75.8107 19.2769 75.8107 19.2769C75.8107 19.2769 79.4911 18.4957 81.908 16.6769C84.325 14.8519 84.2884 13.7777 84.2884 13.7777C84.2884 13.7777 81.7982 11.9955 76.4821 14.0768C72.2829 15.7858 66.4908 19.9788 66.2589 21.3643V21.3582ZM63.9212 21.2788C64.1776 21.3155 64.4278 21.3765 64.6659 21.4619C64.6231 21.4314 64.6292 21.4192 64.6964 21.4375C64.6964 21.4375 69.0481 15.8956 75.7375 13.442C82.4329 10.9885 85.2588 12.734 85.4785 13.442C86.1987 15.7247 80.4676 18.5994 79.076 19.2952C77.776 19.9422 76.3417 20.5769 76.3417 20.5769C76.3417 20.5769 75.8656 22.7253 73.2595 23.354C71.105 23.6409 69.4021 23.4028 67.2293 22.7131C66.9607 22.6277 66.4603 22.4019 65.972 22.1638C67.5528 23.3723 68.4622 25.6001 68.1265 27.9255C67.6626 31.142 64.9893 33.4124 62.2306 32.9974C59.4657 32.5824 57.6042 29.6283 58.0681 26.4118C58.5319 23.1953 61.1564 20.8638 63.9212 21.2788ZM69.0298 20.0887C69.0298 20.0887 69.6707 19.3135 71.7519 19.3502C73.8332 19.3868 74.3703 19.7225 74.3642 19.8689C74.3581 20.0215 73.467 20.4305 71.7153 20.5769C69.9697 20.7234 69.0298 20.0887 69.0298 20.0887ZM65.38 18.5506C65.38 17.2079 65.4227 12.5815 67.9373 9.16964C70.4519 5.75783 71.1477 6.36817 71.1477 6.36817C71.1477 6.36817 73.2595 6.97851 70.7449 11.5256C68.2303 16.0726 66.442 18.1417 65.3861 18.5506H65.38ZM71.7519 4.70194C71.3979 4.62259 68.2486 5.178 65.7523 11.4584C65.1602 12.9477 64.8551 14.3759 64.5926 15.9566C63.9518 19.8201 64.318 21.2727 64.318 21.2727C64.318 21.2727 68.9077 16.8783 70.8975 13.265C72.8872 9.65181 74.3459 5.38552 71.7519 4.69583V4.70194ZM63.7259 22.9756C65.4471 23.2319 66.6617 25.5329 66.3687 27.5532C66.0758 29.5673 64.2813 31.3068 62.5602 31.0443C60.839 30.7819 59.6122 28.5968 59.9052 26.5766C60.1982 24.5625 62.0048 22.7192 63.7259 22.9756Z" fill="#3C291E"/>
<path fill-rule="evenodd" clip-rule="evenodd" d="M70.4763 29.0546C70.696 28.3466 71.8923 26.6621 72.5942 26.6621C73.2473 26.6621 71.6726 28.6213 70.4763 29.0546ZM73.8454 32.1551C74.1689 30.6903 74.6572 29.9274 75.2065 29.3842C75.5849 29.0058 75.8595 28.7311 75.8595 29.0607C75.8595 29.9823 74.6083 31.2885 73.8515 32.1612L73.8454 32.1551ZM77.1046 34.4378C77.1046 33.62 78.5145 31.1786 78.6793 31.8866C78.7892 32.3749 77.9713 34.0045 77.1046 34.4378ZM80.5287 35.9026C80.254 35.6829 80.8521 34.4378 81.2916 34.328C81.5113 34.273 81.4564 35.3594 80.5287 35.9026ZM70.0979 30.9039C69.8233 32.2101 69.8782 33.9984 71.7275 33.6749C72.0022 31.0687 73.9553 28.0231 75.1515 27.425C76.2929 26.8818 77.3793 27.1015 77.3793 28.6213C77.3793 29.5978 75.3713 33.0768 73.5769 34.328C73.5769 35.1946 74.4436 35.7379 75.4262 35.4144C75.6947 33.7298 76.7323 31.1237 78.0873 30.3058C78.7953 29.9274 80.0953 30.2509 80.1502 30.849C80.2601 32.1551 78.6854 35.1946 77.0497 35.9576C77.0497 36.6106 78.5695 36.6106 79.1127 36.2261C79.2775 35.0848 79.6559 33.8336 80.6324 33.1317C81.1756 32.7533 81.9385 33.0218 82.0972 33.8397C82.3719 35.2007 82.0972 36.0125 80.9559 36.8853C81.3892 37.3186 81.8775 37.4834 82.5306 37.7032L83.0738 38.1914C81.9324 38.1914 79.9244 37.9717 79.3263 37.3247C77.422 38.1426 75.9023 37.7032 75.4689 36.8365C74.2177 37.3247 72.2097 36.4031 71.99 35.2618C69.6524 36.0796 67.803 34.4989 67.803 31.4593C67.803 29.3415 69.9758 24.886 73.1801 24.7212C73.6135 24.7212 74.5412 25.2094 74.5412 26.0822C74.4313 28.31 72.2585 29.8847 70.0857 30.9161L70.0979 30.9039Z" fill="#3C291E"/>
<path fill-rule="evenodd" clip-rule="evenodd" d="M74.1201 28.0658C74.1201 28.0658 74.175 28.0658 74.175 28.0109C74.175 28.0475 74.1567 28.0658 74.1201 28.0658Z" fill="white"/>
<path d="M0.921687 45.0822H2.39261C2.39261 45.4667 2.53299 45.7597 2.81375 45.9611C3.09451 46.1625 3.4363 46.2602 3.83302 46.2602C4.90112 46.2602 5.43212 45.9611 5.43212 45.3629V45.2836C5.43212 45.0334 5.34057 44.8564 5.15746 44.7587C4.93164 44.6366 4.58374 44.5207 4.11378 44.4108C3.83912 44.3376 3.6133 44.2826 3.41188 44.246C2.64896 44.0995 2.05082 43.8615 1.62968 43.538C1.23907 43.2451 1.04376 42.7873 1.04376 42.1648V42.0488C1.04376 41.707 1.10479 41.3957 1.22686 41.1272C1.34893 40.8586 1.53203 40.6267 1.77617 40.4253C2.24003 40.0347 2.9053 39.8332 3.78419 39.8332C4.79736 39.8332 5.52367 40.0713 5.96922 40.5473C6.18894 40.7915 6.35984 41.0478 6.48191 41.3225C6.60398 41.5971 6.66501 41.884 6.66501 42.1831H5.20629C5.13915 41.4629 4.66309 41.0967 3.7903 41.0967H3.68654C3.28371 41.0967 2.97244 41.1699 2.75882 41.3164C2.53909 41.4629 2.43534 41.6643 2.43534 41.9267C2.43534 42.3051 2.63065 42.5554 3.01516 42.6774L3.56447 42.8056L3.99171 42.9094L4.39454 43.0131L4.75464 43.1108C5.27953 43.239 5.69457 43.3793 5.99974 43.5258C6.30491 43.6723 6.53073 43.8676 6.67722 44.1179C6.8237 44.362 6.89694 44.6977 6.89694 45.131V45.1737C6.89694 45.8085 6.72604 46.3029 6.37815 46.6508C6.03025 46.9987 5.63963 47.2306 5.20019 47.3405C4.76074 47.4564 4.40064 47.5114 4.11988 47.5114C3.0762 47.5114 2.28275 47.3038 1.73955 46.8888C1.19634 46.4738 0.92779 45.8695 0.92779 45.0639L0.921687 45.0822ZM8.17256 47.3221H9.76555L10.2416 45.8024H12.9576L13.5192 47.3221C13.1407 47.6395 12.9515 47.9813 12.9515 48.3475C12.9515 48.5367 13.0065 48.7137 13.1224 48.8785C13.2384 49.0433 13.391 49.1776 13.5924 49.2813C13.7999 49.3729 14.0257 49.4217 14.2699 49.4217C14.5567 49.4217 14.8375 49.3607 15.1183 49.2386V48.2804C14.9718 48.3903 14.8131 48.4452 14.6361 48.4452C14.4835 48.4452 14.3614 48.4025 14.2638 48.317C14.1661 48.2316 14.1173 48.1217 14.1173 47.9935C14.1173 47.7677 14.2638 47.5419 14.5628 47.3283H15.1183L12.567 39.9126H10.7299L8.17866 47.3283L8.17256 47.3221ZM11.682 41.7375L12.5609 44.5268H10.797L11.6759 41.7375H11.682ZM19.885 47.3221H16.6746V40.0347H19.9155C20.9226 40.0347 21.6672 40.3581 22.1433 41.0112C22.6194 41.6643 22.8574 42.4516 22.8574 43.3732V43.4526C22.8574 44.4841 22.6255 45.3813 22.1616 46.1381C21.6794 46.9254 20.9226 47.316 19.8911 47.316L19.885 47.3221ZM18.1639 46.077H19.6653C20.2329 46.077 20.6541 45.8329 20.9287 45.3385C21.179 44.8869 21.301 44.3193 21.301 43.6479V43.5502C21.301 43.2145 21.2705 42.9094 21.2034 42.6347C21.1362 42.3601 21.0447 42.1159 20.9287 41.9084C20.7029 41.5117 20.2818 41.3103 19.6653 41.3103H18.1639V46.0832V46.077ZM24.6335 47.3221V40.0347H29.9923V41.3225H26.1227V42.8728H29.681V44.1484H26.1227V46.0343H30.1571V47.3221H24.6335ZM31.7196 43.5441C31.7196 43.2573 31.744 42.9826 31.7867 42.7385C31.8294 42.4882 31.9027 42.238 31.9942 41.9817C32.1468 41.5544 32.3787 41.1699 32.6839 40.8281C32.983 40.5046 33.3309 40.2605 33.7337 40.0957C34.1365 39.9309 34.5882 39.8455 35.0826 39.8455C35.6685 39.8455 36.1873 39.9553 36.645 40.1872C37.1028 40.4131 37.4629 40.7243 37.7375 41.1089C38.0061 41.4934 38.1709 41.9389 38.2197 42.4394H36.6939C36.4924 41.5971 35.9737 41.176 35.1558 41.176C34.5516 41.176 34.0877 41.4079 33.7581 41.8657C33.5933 42.0976 33.4651 42.3784 33.3797 42.6958C33.2943 43.0131 33.2515 43.3732 33.2515 43.7822C33.2576 43.7883 33.2637 43.8066 33.2698 43.8432C33.2698 44.1728 33.3065 44.4718 33.3858 44.7404C33.4652 45.0151 33.5811 45.2714 33.7459 45.5155C34.0511 45.9733 34.4844 46.2052 35.0337 46.2052C35.9309 46.2052 36.4863 45.7475 36.6939 44.8381H38.2197C38.0671 45.6376 37.7253 46.2846 37.1943 46.7728C36.9258 47.017 36.6145 47.2062 36.2544 47.3405C35.9004 47.4686 35.5098 47.5358 35.0826 47.5358C34.106 47.5358 33.2943 47.2184 32.6534 46.5775C32.0125 45.9367 31.6952 45.0028 31.6952 43.7639C31.7074 43.6967 31.7135 43.6235 31.7135 43.5502L31.7196 43.5441ZM40.1179 47.3221V40.0347H41.6193V43.0009L44.4147 40.0347H46.3678L43.4015 43.0192L46.5509 47.316H44.5856L42.3334 44.1362L41.6132 44.8442V47.316H40.1118L40.1179 47.3221ZM47.8387 47.3221V40.0347H49.3707V47.3221H47.8387Z" fill="white"/>
</svg>
