<svg width="92" height="71" viewBox="0 0 92 71" fill="none" xmlns="http://www.w3.org/2000/svg">
<path fill-rule="evenodd" clip-rule="evenodd" d="M70.2061 66.4315C69.7849 67.6339 69.8399 70.1912 71.9272 70.1241C72.8122 70.0935 72.7451 69.2574 72.8061 68.232C72.9221 66.462 73.8803 64.1 74.6432 61.9821C74.7775 61.6281 75.8151 61.683 75.87 62.1469C76.0592 63.5202 75.748 65.7723 76.5048 67.9818C76.8649 69.001 77.2494 69.8189 78.2077 70.0386C79.0194 70.2217 80.1424 69.886 80.3378 69.3001C80.5758 68.5982 79.4283 68.2808 79.0133 67.1944C78.2321 65.1742 78.348 62.2323 78.4152 60.5905C80.3988 57.9843 84.8116 55.842 86.1055 54.3528C86.4595 53.9317 84.8848 52.2654 84.5003 52.3326C83.0416 52.65 80.0997 56.0129 78.0429 57.966C77.5424 58.4482 75.9799 58.967 76.1752 58.5153C76.4193 57.9111 76.8466 56.9101 77.3715 56.2754C77.6278 55.958 78.7814 54.7373 78.7509 53.9866C78.7325 53.535 77.64 52.6133 76.7062 52.65C76.3217 52.65 75.1926 53.1993 75.4489 54.6397C73.7644 58.0698 70.9385 64.3197 70.2061 66.4254V66.4315Z" fill="#853135"/>
<path fill-rule="evenodd" clip-rule="evenodd" d="M63.9684 66.6512C63.651 67.5545 63.5838 68.7386 63.9317 69.4771C64.1332 69.9471 64.7435 70.5452 65.6041 70.3316C67.0079 69.9654 66.4891 67.3714 66.7393 66.5536C68.3445 61.5732 69.4065 59.2478 71.7319 54.7312C71.8113 54.5786 72.1653 54.3284 71.9638 53.4922C71.8662 53.0711 71.3901 52.473 70.4441 52.2532C69.6018 52.0518 69.3577 52.6378 68.9121 53.6936C67.0262 58.2712 65.6834 61.9333 63.9684 66.6512Z" fill="#853135"/>
<path fill-rule="evenodd" clip-rule="evenodd" d="M49.6436 67.2738C49.369 67.6156 48.606 68.8362 50.492 69.8311C51.1329 70.1729 52.1094 69.5931 52.6648 68.5921C53.5315 66.9808 54.2944 65.284 55.3015 63.2699C55.6006 62.6779 56.7541 62.6413 56.7785 63.3859C56.8457 64.6554 56.5222 65.4366 56.571 67.5423C56.6015 68.6959 57.3706 70.6245 58.7682 69.8982C59.2687 69.6297 59.8974 68.0184 61.1242 65.7296C63.3336 61.5793 64.5787 58.8816 65.5614 54.2552C65.659 53.7303 65.5919 52.4608 64.0843 52.1373C63.4191 52.003 62.7111 52.1556 62.7416 52.8331C62.8881 56.4768 60.8922 59.9191 59.9584 62.8854C59.7936 63.4469 58.7377 63.276 58.7194 62.8366C58.634 60.737 58.402 58.3628 58.4081 56.7698C58.3959 55.5979 58.4875 53.6692 58.3227 52.9734C58.2006 52.4791 57.3461 51.8199 56.6809 51.8199C55.8142 51.8199 55.7776 52.534 55.7409 52.888C55.3625 56.5317 52.5733 63.5324 49.6375 67.2799L49.6436 67.2738Z" fill="#853135"/>
<path fill-rule="evenodd" clip-rule="evenodd" d="M44.651 55.781C44.8524 55.781 44.8341 56.3975 44.7609 56.5684C43.3266 59.1928 41.2697 63.923 40.2199 67.2371C39.9331 68.1404 40.1711 69.764 41.5078 69.764C41.8923 69.764 42.7223 69.6968 42.759 69.3611C42.7895 69.0438 42.6857 68.3419 42.7712 68.0245C44.1505 63.1112 46.1097 59.6628 48.0995 55.5003C48.2337 55.2134 48.4473 55.0669 48.8136 55.0669C49.314 55.0486 50.669 54.7495 52.6038 54.951C53.208 55.0181 52.677 52.1922 51.6761 52.2776C47.6478 52.6622 44.7243 53.3152 41.8068 53.181C41.4223 53.1626 41.1171 53.3824 41.0683 53.4983C40.9707 53.9012 41.2087 55.5369 41.8129 55.6223C42.0998 55.6528 43.1618 55.7871 44.6449 55.7871L44.651 55.781Z" fill="#853135"/>
<path fill-rule="evenodd" clip-rule="evenodd" d="M27.6957 69.941C28.0314 69.941 28.4159 69.5381 28.4525 69.1902C28.6295 67.4508 28.953 65.9798 29.6488 64.6432C29.954 64.0267 30.8085 64.4601 31.2723 64.6615C31.4249 64.7286 31.7057 68.2076 33.4085 70.1302C33.848 70.6306 35.856 70.6978 35.6851 69.8616C35.4104 68.5067 33.4634 64.2587 33.5916 64.1976C34.6719 63.6605 38.4316 62.3605 39.396 59.4309C40.0063 57.6242 39.9636 56.1533 39.2678 54.7495C38.8467 53.8829 37.3086 52.6927 34.9161 52.6622C33.4085 52.6439 31.3089 53.1993 30.6376 53.8462C30.0577 54.3833 30.4545 55.0974 31.0526 55.8359C27.6713 61.6891 25.1628 68.8118 25.8586 69.1963C26.0051 69.532 26.5116 69.5809 26.7253 69.5809C27.1952 69.5809 27.5126 69.9471 27.6957 69.9471V69.941ZM33.8907 55.8665C35.1663 55.5674 35.917 55.6162 36.8081 56.019C37.3696 56.2693 37.5466 56.8186 37.2293 57.7585C36.7288 59.3149 33.3963 61.5854 31.6385 61.5854C31.4066 61.5854 30.9916 61.6342 31.1502 61.0361C31.6873 59.028 33.5611 55.9397 33.8907 55.8726V55.8665Z" fill="#853135"/>
<path fill-rule="evenodd" clip-rule="evenodd" d="M18.1377 62.5924C18.1377 62.5924 18.6809 61.4145 20.2251 59.4553C21.0796 58.3628 21.8669 57.4595 22.4834 57.4472C21.812 59.0647 21.0735 61.207 20.8538 62.745C20.1885 62.9098 19.4622 62.7267 18.4185 62.7267C18.1927 62.7267 18.1377 62.6596 18.1377 62.5985V62.5924ZM11.7047 68.3785L11.8268 69.001C11.8329 69.233 12.4738 69.6358 13.2001 69.8494C13.7921 70.0142 14.3719 69.2147 14.4696 68.8545C14.7809 67.6278 15.617 66.3216 16.2762 65.2718C17.2344 65.1254 19.4622 65.2413 20.1153 65.2413C20.573 65.2413 20.5181 65.5709 20.4326 67.1517C20.396 67.9512 20.5059 68.2625 20.9758 68.9522C21.1345 69.1963 21.7082 69.6724 22.1721 69.8982C22.5383 70.0752 23.3806 69.8799 23.3684 69.5076C23.2341 65.6319 24.2473 57.4595 26.2614 54.5176C26.2614 54.4688 26.475 54.0415 26.4689 54.011C26.4689 53.8829 24.998 51.5269 24.3571 51.8016C20.8843 53.3213 16.3006 59.913 14.5733 63.1479C13.1696 63.6727 13.0475 64.6493 13.139 65.7967C12.3151 66.877 11.9367 67.6583 11.6986 68.3785H11.7047Z" fill="#853135"/>
<path fill-rule="evenodd" clip-rule="evenodd" d="M3.25759 66.1629C3.4468 65.1437 4.47217 62.3178 5.47924 62.1347C5.76 62.0858 6.6572 61.9028 7.06613 61.799C8.50654 61.445 9.75164 62.8183 9.40374 63.5385C9.09857 64.1732 8.40278 64.6737 7.99385 64.9239C6.61448 65.8089 5.13745 66.4803 3.73366 66.4803C3.2637 66.4803 3.23928 66.2972 3.25149 66.1629H3.25759ZM0.553775 67.4141C0.590395 68.1832 1.3167 69.8067 2.97073 69.8067C4.14259 69.8067 5.33886 69.6419 7.23703 68.7691C9.46478 67.7681 10.4596 66.4925 11.1859 65.5099C12.7911 63.2882 11.247 60.5783 10.1789 60.2426C11.424 59.6933 13.6212 58.4177 14.3414 56.8796C14.964 55.4942 14.5733 53.535 13.1757 52.9002C12.6447 52.65 11.8756 52.296 10.7221 52.296C9.06805 52.296 7.34078 52.6316 5.85765 53.0162C5.03369 53.2176 4.26466 53.6204 3.96559 54.0354C3.72756 54.3711 3.33083 55.1402 4.55152 55.842C3.50783 58.674 1.40215 63.8925 0.163156 66.816C0.157052 67.0357 0.553775 67.3531 0.559878 67.4202L0.553775 67.4141ZM6.60837 58.6679C6.44358 58.6679 6.43748 58.5703 6.43748 58.5703C6.66941 57.3984 7.07834 57.1848 7.32858 56.0801C7.35299 55.9458 7.10275 55.5125 7.16989 55.4758C7.48116 55.3599 8.32343 54.8045 9.97746 54.7251C11.3629 54.6397 11.9672 55.4758 11.7597 56.1106C11.5705 56.6782 10.5573 57.2641 8.9765 58.1003C7.88399 58.6679 7.41402 58.6679 6.61448 58.6679H6.60837Z" fill="#853135"/>
<path fill-rule="evenodd" clip-rule="evenodd" d="M84.9519 65.1559V68.7508H85.4036V67.0907H86.2092L87.2346 68.7508H87.7534L86.6792 67.0907C87.5093 67.0907 87.8083 66.5841 87.8083 66.047C87.79 65.4733 87.4116 65.1559 86.5938 65.1559H84.9519ZM85.4036 66.7428V65.4733H86.5388C87.0393 65.4733 87.3201 65.6503 87.3201 66.0836C87.3201 66.5169 87.0942 66.7428 86.5266 66.7428H85.4036ZM82.9256 66.9442C82.9256 68.6409 84.2378 70.0874 86.0628 70.1729C87.4665 70.1729 89.3525 69.1536 89.3525 66.9259C89.3525 65.0765 87.8266 63.7338 86.1055 63.7338C84.4698 63.7704 82.9439 65.0399 82.9256 66.9442ZM83.4444 66.993C83.4444 64.9178 85.0374 64.1732 86.0994 64.161C87.7351 64.161 88.8459 65.4 88.8459 66.9259C88.8459 68.5799 87.6313 69.7395 86.0994 69.7395C84.4698 69.6907 83.4444 68.4029 83.4444 66.993Z" fill="#231F20"/>
<path fill-rule="evenodd" clip-rule="evenodd" d="M73.7583 47.4498L89.0778 38.429C91.7511 36.7627 91.7756 36.7566 91.8061 33.4852V14.9491C91.7634 12.4589 91.7328 12.4345 89.2854 10.8598L73.8925 1.62533C71.2131 0.117784 71.1521 0.12999 68.43 1.63143L52.9883 10.811C50.4981 12.3429 50.4859 12.3796 50.4432 15.2054V33.65C50.4798 36.7261 50.5164 36.7261 53.1531 38.3801L68.4666 47.4315C70.2651 48.4772 72.0269 48.4834 73.7522 47.4498H73.7583Z" fill="#853135"/>
<path fill-rule="evenodd" clip-rule="evenodd" d="M73.0991 46.3451L88.8581 37.0496C89.3098 36.7627 89.7736 36.482 90.1643 36.1158C90.5183 35.7007 90.4755 35.0538 90.4999 34.535L90.5182 33.4852V14.5524C90.4999 14.1618 90.4999 13.7528 90.4023 13.3744C90.3107 13.1364 90.1154 13.0021 89.9262 12.8495C89.4929 12.5383 89.0534 12.2514 88.6018 11.9645L72.7939 2.49202C72.3423 2.24178 71.8845 1.97933 71.3901 1.82064C70.8835 1.72298 70.3648 2.05867 69.9375 2.2784L69.0708 2.74836L53.2324 12.1782C52.8174 12.4406 52.3841 12.6969 52.0301 13.0326C51.7371 13.3683 51.7737 13.8993 51.7554 14.3143L51.7371 15.2177V34.1688C51.7554 34.6815 51.7554 35.2064 51.8653 35.713C51.9446 35.9388 52.0362 36.0364 52.2071 36.1951C52.7197 36.598 53.2752 36.9397 53.8245 37.2815L69.5896 46.5954C70.0413 46.8517 70.4929 47.1264 70.9873 47.2911C71.1887 47.3339 71.2742 47.3095 71.4695 47.2423C72.0371 46.9921 72.5681 46.6625 73.0991 46.3451Z" fill="#FFCB05"/>
<path fill-rule="evenodd" clip-rule="evenodd" d="M56.8762 20.137C55.9363 20.3018 54.6667 22.2366 54.3921 23.2803C53.5071 26.3686 54.7217 30.0124 55.8813 33.4364C55.9912 33.8209 56.4306 33.8209 56.3757 33.3265C56.156 29.6278 57.3156 27.7541 57.5903 26.8142C57.749 26.3442 58.2128 25.093 58.4631 24.269C58.7621 23.3108 59.2748 21.9375 58.9147 20.8023C58.8049 20.253 57.7551 20.0272 56.8701 20.137H56.8762ZM56.9799 22.322C55.6006 22.322 55.8264 25.9841 55.9424 26.7592H56.0522C56.2719 25.4897 57.3706 24.031 57.3706 22.8713C57.3706 22.5967 57.1508 22.322 56.986 22.322H56.9799Z" fill="#853135"/>
<path fill-rule="evenodd" clip-rule="evenodd" d="M66.4219 21.8582C67.3008 22.4624 73.2639 24.1042 75.0217 21.492C73.8803 21.846 73.1113 22.1023 71.9761 22.1023C71.1094 22.1023 68.3384 22.0596 67.8684 20.8938C67.722 20.5337 67.8562 20.1431 68.314 19.8502C69.2417 19.2581 71.0666 18.6966 73.1845 18.9224C75.3024 19.1483 75.9738 19.7769 75.9738 19.7769C75.9738 19.7769 79.6542 18.9957 82.0711 17.1769C84.4881 15.3519 84.4515 14.2777 84.4515 14.2777C84.4515 14.2777 81.9613 12.4955 76.6452 14.5768C72.446 16.2858 66.6539 20.4788 66.4219 21.8643V21.8582ZM64.0843 21.7788C64.3407 21.8155 64.5909 21.8765 64.8289 21.9619C64.7862 21.9314 64.7923 21.9192 64.8595 21.9375C64.8595 21.9375 69.2112 16.3956 75.9006 13.942C82.596 11.4885 85.4219 13.234 85.6416 13.942C86.3618 16.2247 80.6307 19.0994 79.2391 19.7952C77.9391 20.4422 76.5048 21.0769 76.5048 21.0769C76.5048 21.0769 76.0287 23.2253 73.4226 23.854C71.2681 24.1409 69.5652 23.9028 67.3924 23.2131C67.1238 23.1277 66.6234 22.9019 66.1351 22.6638C67.7159 23.8723 68.6253 26.1001 68.2896 28.4255C67.8257 31.642 65.1524 33.9124 62.3937 33.4974C59.6288 33.0824 57.7673 30.1283 58.2311 26.9118C58.695 23.6953 61.3195 21.3638 64.0843 21.7788ZM69.1929 20.5887C69.1929 20.5887 69.8337 19.8135 71.915 19.8502C73.9963 19.8868 74.5334 20.2225 74.5273 20.3689C74.5212 20.5215 73.6301 20.9305 71.8784 21.0769C70.1328 21.2234 69.1929 20.5887 69.1929 20.5887ZM65.543 19.0506C65.543 17.7079 65.5858 13.0815 68.1004 9.66964C70.615 6.25783 71.3108 6.86817 71.3108 6.86817C71.3108 6.86817 73.4226 7.47851 70.908 12.0256C68.3933 16.5726 66.605 18.6417 65.5491 19.0506H65.543ZM71.915 5.20194C71.561 5.12259 68.4117 5.678 65.9154 11.9584C65.3233 13.4477 65.0182 14.8759 64.7557 16.4566C64.1148 20.3201 64.481 21.7727 64.481 21.7727C64.481 21.7727 69.0708 17.3783 71.0605 13.765C73.0503 10.1518 74.509 5.88552 71.915 5.19583V5.20194ZM63.889 23.4756C65.6102 23.7319 66.8248 26.0329 66.5318 28.0532C66.2388 30.0673 64.4444 31.8068 62.7233 31.5443C61.0021 31.2819 59.7753 29.0968 60.0683 27.0766C60.3612 25.0625 62.1679 23.2192 63.889 23.4756Z" fill="#853135"/>
<path fill-rule="evenodd" clip-rule="evenodd" d="M70.6394 29.5546C70.8591 28.8466 72.0554 27.1621 72.7573 27.1621C73.4104 27.1621 71.8357 29.1213 70.6394 29.5546ZM74.0085 32.6551C74.332 31.1903 74.8203 30.4274 75.3696 29.8842C75.748 29.5058 76.0226 29.2311 76.0226 29.5607C76.0226 30.4823 74.7714 31.7885 74.0146 32.6612L74.0085 32.6551ZM77.2677 34.9378C77.2677 34.12 78.6776 31.6786 78.8424 32.3866C78.9523 32.8749 78.1344 34.5045 77.2677 34.9378ZM80.6917 36.4026C80.4171 36.1829 81.0152 34.9378 81.4547 34.828C81.6744 34.773 81.6195 35.8594 80.6917 36.4026ZM70.261 31.4039C69.9863 32.7101 70.0413 34.4984 71.8906 34.1749C72.1653 31.5687 74.1184 28.5231 75.3146 27.925C76.456 27.3818 77.5424 27.6015 77.5424 29.1213C77.5424 30.0978 75.5344 33.5768 73.7399 34.828C73.7399 35.6946 74.6066 36.2379 75.5893 35.9144C75.8578 34.2298 76.8954 31.6237 78.2504 30.8058C78.9584 30.4274 80.2584 30.7509 80.3133 31.349C80.4232 32.6551 78.8485 35.6946 77.2128 36.4576C77.2128 37.1106 78.7325 37.1106 79.2757 36.7261C79.4405 35.5848 79.819 34.3336 80.7955 33.6317C81.3387 33.2533 82.1016 33.5218 82.2603 34.3397C82.535 35.7007 82.2603 36.5125 81.119 37.3853C81.5523 37.8186 82.0406 37.9834 82.6937 38.2032L83.2369 38.6914C82.0955 38.6914 80.0875 38.4717 79.4894 37.8247C77.5851 38.6426 76.0654 38.2032 75.632 37.3365C74.3808 37.8247 72.3728 36.9031 72.1531 35.7618C69.8154 36.5796 67.9661 34.9989 67.9661 31.9593C67.9661 29.8415 70.1389 25.386 73.3432 25.2212C73.7766 25.2212 74.7043 25.7094 74.7043 26.5822C74.5944 28.81 72.4216 30.3847 70.2488 31.4161L70.261 31.4039Z" fill="#853135"/>
<path fill-rule="evenodd" clip-rule="evenodd" d="M74.2831 28.5658C74.2831 28.5658 74.3381 28.5658 74.3381 28.5109C74.3381 28.5475 74.3198 28.5658 74.2831 28.5658Z" fill="#853135"/>
<path d="M1.08477 45.5822H2.5557C2.5557 45.9667 2.69608 46.2597 2.97683 46.4611C3.25759 46.6625 3.59938 46.7602 3.99611 46.7602C5.06421 46.7602 5.5952 46.4611 5.5952 45.8629V45.7836C5.5952 45.5334 5.50365 45.3564 5.32055 45.2587C5.09472 45.1366 4.74683 45.0207 4.27686 44.9108C4.00221 44.8376 3.77638 44.7826 3.57497 44.746C2.81204 44.5995 2.21391 44.3615 1.79277 44.038C1.40215 43.7451 1.20684 43.2873 1.20684 42.6648V42.5488C1.20684 42.207 1.26788 41.8957 1.38994 41.6272C1.51201 41.3586 1.69512 41.1267 1.93925 40.9253C2.40311 40.5347 3.06839 40.3332 3.94728 40.3332C4.96045 40.3332 5.68676 40.5713 6.13231 41.0473C6.35203 41.2915 6.52292 41.5478 6.64499 41.8225C6.76706 42.0971 6.8281 42.384 6.8281 42.6831H5.36938C5.30224 41.9629 4.82617 41.5967 3.95338 41.5967H3.84962C3.4468 41.5967 3.13552 41.6699 2.9219 41.8164C2.70218 41.9629 2.59842 42.1643 2.59842 42.4267C2.59842 42.8051 2.79373 43.0554 3.17825 43.1774L3.72756 43.3056L4.1548 43.4094L4.55762 43.5131L4.91772 43.6108C5.44262 43.739 5.85765 43.8793 6.16282 44.0258C6.46799 44.1723 6.69382 44.3676 6.8403 44.6179C6.98678 44.862 7.06003 45.1977 7.06003 45.631V45.6737C7.06003 46.3085 6.88913 46.8029 6.54123 47.1508C6.19334 47.4987 5.80272 47.7306 5.36327 47.8405C4.92383 47.9564 4.56372 48.0114 4.28297 48.0114C3.23928 48.0114 2.44584 47.8038 1.90263 47.3888C1.35943 46.9738 1.09088 46.3695 1.09088 45.5639L1.08477 45.5822ZM8.33564 47.8221H9.92864L10.4047 46.3024H13.1207L13.6822 47.8221C13.3038 48.1395 13.1146 48.4813 13.1146 48.8475C13.1146 49.0367 13.1696 49.2137 13.2855 49.3785C13.4015 49.5433 13.5541 49.6776 13.7555 49.7813C13.963 49.8729 14.1888 49.9217 14.433 49.9217C14.7198 49.9217 15.0006 49.8607 15.2813 49.7386V48.7804C15.1349 48.8902 14.9762 48.9452 14.7992 48.9452C14.6466 48.9452 14.5245 48.9025 14.4269 48.817C14.3292 48.7316 14.2804 48.6217 14.2804 48.4935C14.2804 48.2677 14.4269 48.0419 14.7259 47.8283H15.2813L12.7301 40.4126H10.893L8.34175 47.8283L8.33564 47.8221ZM11.8451 42.2375L12.724 45.0268H10.9601L11.839 42.2375H11.8451ZM20.0481 47.8221H16.8377V40.5347H20.0786C21.0857 40.5347 21.8303 40.8581 22.3064 41.5112C22.7824 42.1643 23.0205 42.9516 23.0205 43.8732V43.9526C23.0205 44.9841 22.7886 45.8813 22.3247 46.6381C21.8425 47.4254 21.0857 47.816 20.0542 47.816L20.0481 47.8221ZM18.3269 46.577H19.8284C20.396 46.577 20.8171 46.3329 21.0918 45.8385C21.342 45.3869 21.4641 44.8193 21.4641 44.1479V44.0502C21.4641 43.7145 21.4336 43.4094 21.3665 43.1347C21.2993 42.8601 21.2078 42.6159 21.0918 42.4084C20.866 42.0117 20.4448 41.8103 19.8284 41.8103H18.3269V46.5832V46.577ZM24.7966 47.8221V40.5347H30.1554V41.8225H26.2858V43.3728H29.8441V44.6484H26.2858V46.5343H30.3202V47.8221H24.7966ZM31.8827 44.0441C31.8827 43.7573 31.9071 43.4826 31.9498 43.2385C31.9925 42.9882 32.0658 42.738 32.1573 42.4817C32.3099 42.0544 32.5418 41.6699 32.847 41.3281C33.1461 41.0046 33.494 40.7605 33.8968 40.5957C34.2996 40.4309 34.7513 40.3455 35.2456 40.3455C35.8316 40.3455 36.3504 40.4553 36.8081 40.6872C37.2659 40.9131 37.626 41.2243 37.9006 41.6089C38.1692 41.9934 38.334 42.4389 38.3828 42.9394H36.8569C36.6555 42.0971 36.1367 41.676 35.3189 41.676C34.7146 41.676 34.2508 41.9079 33.9212 42.3657C33.7564 42.5976 33.6282 42.8784 33.5428 43.1958C33.4573 43.5131 33.4146 43.8732 33.4146 44.2822C33.4207 44.2883 33.4268 44.3066 33.4329 44.3432C33.4329 44.6728 33.4695 44.9718 33.5489 45.2404C33.6282 45.5151 33.7442 45.7714 33.909 46.0155C34.2142 46.4733 34.6475 46.7052 35.1968 46.7052C36.094 46.7052 36.6494 46.2475 36.8569 45.3381H38.3828C38.2302 46.1376 37.8884 46.7846 37.3574 47.2728C37.0889 47.517 36.7776 47.7062 36.4175 47.8405C36.0635 47.9686 35.6729 48.0358 35.2456 48.0358C34.2691 48.0358 33.4573 47.7184 32.8165 47.0775C32.1756 46.4367 31.8582 45.5028 31.8582 44.2639C31.8704 44.1967 31.8766 44.1235 31.8766 44.0502L31.8827 44.0441ZM40.281 47.8221V40.5347H41.7824V43.5009L44.5778 40.5347H46.5309L43.5646 43.5192L46.714 47.816H44.7487L42.4965 44.6362L41.7763 45.3442V47.816H40.2749L40.281 47.8221ZM48.0018 47.8221V40.5347H49.5338V47.8221H48.0018Z" fill="#853135"/>
</svg>
