<svg width="21" height="21" viewBox="0 0 21 21" fill="none" xmlns="http://www.w3.org/2000/svg">
<path d="M9.94998 0.5C14.9747 0.5 19.0626 4.58789 19.0626 9.61258C19.0626 11.7861 18.2973 13.784 17.0224 15.352L20.8374 19.1669L19.5043 20.5L15.6893 16.685C14.1215 17.9598 12.1235 18.7252 9.95002 18.7252C4.92529 18.7252 0.837402 14.6373 0.837402 9.61258C0.837402 4.58789 4.92529 0.5 9.94998 0.5ZM9.94998 16.8398C13.9351 16.8398 17.1772 13.5977 17.1772 9.61258C17.1772 5.6275 13.9351 2.38535 9.94998 2.38535C5.96486 2.38535 2.72276 5.6275 2.72276 9.61258C2.72276 13.5977 5.9649 16.8398 9.94998 16.8398Z" fill="black"/>
</svg>
