<svg xmlns="http://www.w3.org/2000/svg" xml:space="preserve" style="fill-rule:evenodd;clip-rule:evenodd;stroke-linejoin:round;stroke-miterlimit:2" viewBox="0 0 90 35"><path d="M.107 38.088h89.911v34.107H.107z" style="fill:none" transform="matrix(1.00074 0 0 1 -.107 -38.088)"/><path d="M70.206 66.432c-.421 1.202-.366 3.759 1.721 3.692.885-.03.818-.867.879-1.892.116-1.77 1.074-4.132 1.837-6.25.135-.354 1.172-.299 1.227.165.189 1.373-.122 3.625.635 5.835.36 1.019.744 1.837 1.703 2.057.811.183 1.934-.153 2.13-.739.238-.702-.91-1.019-1.325-2.106-.781-2.02-.665-4.962-.598-6.603 1.984-2.607 6.397-4.749 7.691-6.238.354-.421-1.221-2.088-1.606-2.02-1.458.317-4.4 3.68-6.457 5.633-.501.482-2.063 1.001-1.868.549.244-.604.672-1.605 1.197-2.24.256-.317 1.409-1.538 1.379-2.288-.018-.452-1.111-1.374-2.045-1.337-.384 0-1.513.549-1.257 1.99-1.685 3.43-4.51 9.68-5.243 11.785zM63.968 66.651c-.317.904-.384 2.088-.036 2.826.201.47.811 1.068 1.672.855 1.404-.367.885-2.961 1.135-3.778 1.606-4.981 2.667-7.306 4.993-11.823.079-.152.433-.403.232-1.239-.098-.421-.574-1.019-1.52-1.239-.842-.201-1.086.385-1.532 1.441-1.886 4.577-3.229 8.239-4.944 12.957M49.644 67.274c-.275.342-1.038 1.562.848 2.557.641.342 1.617-.238 2.173-1.239.867-1.611 1.629-3.308 2.636-5.322.3-.592 1.453-.629 1.478.116.067 1.269-.257 2.051-.208 4.156.031 1.154.8 3.083 2.197 2.356.501-.268 1.129-1.88 2.356-4.168 2.21-4.151 3.455-6.848 4.437-11.475.098-.525.031-1.794-1.477-2.118-.665-.134-1.373.019-1.342.696.146 3.644-1.85 7.086-2.784 10.052-.164.562-1.22.391-1.239-.048-.085-2.1-.317-4.474-.311-6.067-.012-1.172.079-3.101-.085-3.797-.122-.494-.977-1.153-1.642-1.153-.867 0-.903.714-.94 1.068-.379 3.644-3.168 10.644-6.103 14.392zM44.651 55.781c.201 0 .183.617.11.787-1.434 2.625-3.491 7.355-4.541 10.669-.287.903-.049 2.527 1.288 2.527.384 0 1.214-.067 1.251-.403.03-.317-.073-1.019.012-1.336 1.38-4.914 3.339-8.362 5.329-12.525.134-.287.347-.433.714-.433.5-.018 1.855-.317 3.79-.116.604.067.073-2.759-.928-2.673-4.028.384-6.952 1.037-9.869.903-.385-.018-.69.201-.739.317-.097.403.141 2.039.745 2.124.287.031 1.349.165 2.832.165zM27.696 69.941c.335 0 .72-.403.757-.751.177-1.739.5-3.21 1.196-4.547.305-.616 1.159-.183 1.623.019.153.067.434 3.546 2.136 5.468.44.501 2.448.568 2.277-.268-.275-1.355-2.222-5.603-2.093-5.664 1.08-.537 4.84-1.837 5.804-4.767.61-1.807.568-3.278-.128-4.681-.421-.867-1.959-2.057-4.352-2.088-1.508-.018-3.607.537-4.278 1.184-.58.537-.183 1.251.415 1.99-3.382 5.853-5.89 12.976-5.194 13.36.146.336.653.385.866.385.47 0 .788.366.971.366zm6.195-14.074c1.275-.3 2.026-.251 2.917.152.562.25.739.8.421 1.74-.5 1.556-3.833 3.826-5.59 3.826-.232 0-.647.049-.489-.549.537-2.008 2.411-5.096 2.741-5.163zM18.138 62.592s.543-1.178 2.087-3.137c.855-1.092 1.642-1.995 2.258-2.008-.671 1.618-1.409 3.76-1.629 5.298-.665.165-1.392-.018-2.435-.018-.226 0-.281-.067-.281-.128zm-6.433 5.787.122.622c.006.232.647.635 1.373.848.592.165 1.172-.634 1.27-.994.311-1.227 1.147-2.533 1.806-3.583.958-.147 3.186-.031 3.839-.031.458 0 .403.33.318 1.911-.037.799.073 1.111.543 1.8.159.244.732.72 1.196.946.366.177 1.209-.018 1.196-.39-.134-3.876.879-12.048 2.893-14.99 0-.049.214-.476.208-.507 0-.128-1.471-2.484-2.112-2.209-3.473 1.519-8.056 8.111-9.784 11.346-1.403.525-1.525 1.501-1.434 2.649-.824 1.08-1.202 1.861-1.44 2.582zM3.258 66.163c.189-1.019 1.214-3.845 2.221-4.028a32 32 0 0 0 1.587-.336c1.441-.354 2.686 1.019 2.338 1.74-.305.634-1.001 1.135-1.41 1.385-1.38.885-2.857 1.556-4.26 1.556-.47 0-.495-.183-.483-.317zM.554 67.414c.036.769.763 2.393 2.417 2.393 1.172 0 2.368-.165 4.266-1.038 2.228-1.001 3.223-2.276 3.949-3.259 1.605-2.222.061-4.932-1.007-5.267 1.245-.55 3.442-1.825 4.162-3.363.623-1.386.232-3.345-1.165-3.98-.531-.25-1.3-.604-2.454-.604-1.654 0-3.381.336-4.864.72-.824.202-1.593.604-1.892 1.019-.238.336-.635 1.105.586 1.807-1.044 2.832-3.15 8.051-4.389 10.974-.006.22.391.537.397.604zm6.054-8.746c-.164 0-.171-.098-.171-.098.232-1.172.641-1.385.892-2.49.024-.134-.226-.567-.159-.604.311-.116 1.153-.672 2.807-.751 1.386-.085 1.99.751 1.783 1.386-.19.567-1.203 1.153-2.783 1.989-1.093.568-1.563.568-2.363.568z" style="fill:#853135" transform="translate(.066 -38)"/><path d="M84.952 65.156v3.595h.452v-1.66h.805l1.026 1.66h.518l-1.074-1.66c.83 0 1.129-.507 1.129-1.044-.018-.574-.396-.891-1.214-.891zm.452 1.587v-1.27h1.135c.5 0 .781.177.781.611 0 .433-.226.659-.793.659zm-2.478.201c0 1.697 1.312 3.143 3.137 3.229 1.404 0 3.29-1.019 3.29-3.247 0-1.85-1.526-3.192-3.247-3.192-1.636.036-3.162 1.306-3.18 3.21m.518.049c0-2.075 1.593-2.82 2.655-2.832 1.636 0 2.747 1.239 2.747 2.765 0 1.654-1.215 2.814-2.747 2.814-1.629-.049-2.655-1.337-2.655-2.747" style="fill:#231f20" transform="translate(.066 -38)"/><path d="M1.085 45.582h1.471q0 .578.421.879.422.301 1.019.299 1.6 0 1.599-.897v-.079q0-.378-.274-.525-.339-.183-1.044-.348a10 10 0 0 0-.702-.165c-.763-.146-1.361-.384-1.782-.708q-.586-.44-.586-1.373v-.116c0-.342.061-.653.183-.922q.183-.4.549-.702c.464-.39 1.129-.592 2.008-.592q1.519 0 2.185.714c.22.245.391.501.513.776q.183.411.183.86H5.369c-.067-.72-.543-1.086-1.416-1.086H3.85q-.606 0-.928.219a.69.69 0 0 0-.324.611c0 .378.196.628.58.75l.55.129.427.103.403.104.36.098q.788.193 1.245.415.458.218.677.592.22.365.22 1.013v.043q.002.954-.519 1.477c-.348.348-.738.58-1.178.69q-.659.171-1.08.17-1.566 0-2.38-.622c-.544-.415-.812-1.019-.812-1.825zm7.251 2.24h1.593l.476-1.52h2.716l.561 1.52q-.567.477-.567 1.025-.002.285.171.532c.116.164.268.299.47.402q.31.14.677.141a2.1 2.1 0 0 0 .848-.183v-.959a.78.78 0 0 1-.482.165.54.54 0 0 1-.372-.128.41.41 0 0 1-.147-.323c0-.226.147-.452.446-.666h.555l-2.551-7.415h-1.837l-2.551 7.415zm3.509-5.585.879 2.79H10.96l.879-2.79zm8.203 5.585h-3.21v-7.287h3.241q1.512-.002 2.227.976.714.98.714 2.362v.08q0 1.548-.695 2.685-.723 1.18-2.271 1.178zm-1.721-1.245h1.501q.852.002 1.264-.738c.25-.452.372-1.02.372-1.691v-.098q.002-.503-.098-.915a3 3 0 0 0-.274-.727q-.339-.596-1.264-.598h-1.501v4.773zm6.47 1.245v-7.287h5.358v1.288h-3.869v1.55h3.558v1.275h-3.558v1.886h4.034v1.288zm7.086-3.778c0-.287.024-.561.067-.805.043-.251.116-.501.207-.757q.231-.641.69-1.154a2.9 2.9 0 0 1 1.05-.732q.605-.249 1.349-.25c.586 0 1.104.109 1.562.341a2.9 2.9 0 0 1 1.093.922c.268.384.433.83.482 1.33h-1.526c-.201-.842-.72-1.263-1.538-1.263q-.904.002-1.398.69a2.6 2.6 0 0 0-.378.83 4.2 4.2 0 0 0-.128 1.086q.009.008.018.061c0 .33.036.629.116.897.079.275.195.531.36.776a1.47 1.47 0 0 0 1.288.689q1.347-.001 1.66-1.367h1.526q-.23 1.202-1.026 1.935a2.9 2.9 0 0 1-.94.568 3.4 3.4 0 0 1-1.171.195q-1.467.001-2.429-.958c-.641-.641-.959-1.575-.959-2.814q.018-.102.019-.214zm8.398 3.778v-7.287h1.501v2.966l2.796-2.966h1.953l-2.966 2.984 3.149 4.297h-1.965l-2.252-3.18-.721.708v2.472h-1.501zm7.721 0v-7.287h1.532v7.287z" style="fill:#853135;fill-rule:nonzero" transform="translate(.066 -38)"/></svg>