<svg width="15" height="16" viewBox="0 0 15 16" fill="none" xmlns="http://www.w3.org/2000/svg">
<path fill-rule="evenodd" clip-rule="evenodd" d="M13.6998 5.10316C13.0387 6.46444 11.8173 8.52033 9.7534 10.5843C7.68942 12.6483 5.63356 13.8696 4.27234 14.5307C3.77607 14.7717 3.17752 14.6686 2.7844 14.2755L1.65612 13.1397L4.02117 10.7889L5.38615 12.1364L5.75134 11.9738C5.81068 11.9473 7.2231 11.3082 8.81334 9.71797C10.4046 8.12667 11.0305 6.72621 11.0563 6.66734L11.2147 6.30704L9.86777 4.91604L12.3067 2.48113L13.4438 3.61431C13.8378 4.0089 13.9408 4.60715 13.6998 5.10316ZM14.2715 2.7857L12.3059 0.826904L8.22388 4.90214L9.80636 6.53646C9.54115 7.00727 8.96573 7.90911 7.98505 8.88976C7.00426 9.87058 6.09582 10.4526 5.62053 10.722L4.01827 9.14017L0 13.1345L1.95485 15.1024C2.70209 15.8496 3.83907 16.0433 4.78409 15.5843C6.22617 14.8839 8.40253 13.5916 10.5816 11.4125C12.7607 9.23342 14.053 7.05703 14.7534 5.61496C14.9194 5.27327 15 4.90652 15 4.54215C15 3.89874 14.7485 3.26275 14.2715 2.7857Z" fill="#BF9900"/>
</svg>
