<svg width="13" height="16" viewBox="0 0 13 16" fill="none" xmlns="http://www.w3.org/2000/svg">
<path d="M6.00923 4.05333C4.47372 4.05333 3.22448 5.30258 3.22448 6.83809C3.22448 8.3736 4.47372 9.62285 6.00923 9.62285C7.54474 9.62285 8.79399 8.3736 8.79399 6.83809C8.79399 5.30258 7.54477 4.05333 6.00923 4.05333ZM6.00923 8.45033C5.12025 8.45033 4.397 7.72708 4.397 6.83809C4.397 5.94911 5.12025 5.22585 6.00923 5.22585C6.89822 5.22585 7.62147 5.94911 7.62147 6.83809C7.62147 7.72708 6.89822 8.45033 6.00923 8.45033Z" fill="#BF9900"/>
<path d="M6.00923 0.828857C2.69572 0.828857 0 3.52461 0 6.83809V7.0042C0 8.67999 0.960762 10.6328 2.85569 12.8083C4.22936 14.3854 5.58384 15.4851 5.6408 15.5312L6.00923 15.8289L6.37767 15.5312C6.43465 15.4851 7.78914 14.3854 9.16278 12.8083C11.0577 10.6328 12.0185 8.68002 12.0185 7.00423V6.83812C12.0185 3.52461 9.32274 0.828857 6.00923 0.828857ZM10.8459 7.00423C10.8459 9.83622 7.19699 13.2644 6.00923 14.3051C4.82116 13.2641 1.17252 9.83601 1.17252 7.00423V6.83812C1.17252 4.17116 3.34228 2.00141 6.00923 2.00141C8.67619 2.00141 10.8459 4.17116 10.8459 6.83812V7.00423Z" fill="#BF9900"/>
</svg>
