<svg width="36" height="36" viewBox="0 0 36 36" fill="none" xmlns="http://www.w3.org/2000/svg">
<path fill-rule="evenodd" clip-rule="evenodd" d="M28.5273 0.828613C29.0937 0.828613 29.5527 1.28764 29.5527 1.854V15.4594C33.1323 17.2501 35.5 20.9265 35.5 25.0791C35.5 31.0157 30.6871 35.8286 24.7505 35.8286C20.5979 35.8286 16.9215 33.4609 15.1308 29.8813H1.52539C0.959023 29.8813 0.5 29.4223 0.5 28.856V1.854C0.5 1.28764 0.959023 0.828613 1.52539 0.828613H28.5273ZM19.9141 2.87939V8.62585C19.9141 9.36312 19.1274 9.93056 18.3592 9.50385L15.0264 7.81035L11.6247 9.53909C10.9419 9.8849 10.1405 9.38021 10.1411 8.62585L10.1387 2.87939H2.55078V27.8306H14.3567C13.3641 24.0724 14.4803 20.1473 17.1495 17.4781C19.8187 14.8089 23.7438 13.6927 27.502 14.6853V2.87939H19.9141ZM21.4863 29.6079H26.2712C27.3639 29.6079 28.3554 29.1628 29.0732 28.4447C29.8278 27.6904 30.2363 26.7131 30.2363 25.575C30.2363 23.3896 28.4566 21.6099 26.2712 21.6099H23.4218L24.0236 21.0069C24.9719 20.0531 23.5219 18.6114 22.5737 19.565L20.2219 21.921C19.8238 22.3212 19.8254 22.9688 20.226 23.3669L22.5822 25.7186C23.5358 26.6669 24.9777 25.2169 24.0242 24.2687L23.4148 23.6606H26.2712C27.3815 23.6606 28.1855 24.5483 28.1855 25.6428C28.1855 26.696 27.3244 27.5571 26.2712 27.5571H21.4863C20.92 27.5571 20.4609 28.0162 20.4609 28.5825C20.4609 29.1489 20.92 29.6079 21.4863 29.6079ZM18.5995 18.9281C15.2026 22.3252 15.2026 27.8332 18.5995 31.2301C21.9966 34.6273 27.5046 34.6273 30.9015 31.2301C34.2986 27.8332 34.2986 22.3252 30.9015 18.9281C27.5046 15.5312 21.9964 15.5312 18.5995 18.9281ZM17.8633 2.87939H12.1895V6.95746L14.5633 5.75102C14.8435 5.60896 15.185 5.59748 15.487 5.74969L17.8633 6.95746V2.87939Z" fill="white"/>
</svg>
