<svg width="25" height="20" viewBox="0 0 25 20" fill="none" xmlns="http://www.w3.org/2000/svg">
<path d="M0 0.753418V2.8082H3.76714V13.4247C3.76714 15.1242 5.1498 16.5068 6.84932 16.5068H7.87671H18.1507H21.2329V14.4521H6.84932C6.28281 14.4521 5.82192 13.9912 5.82192 13.4247V12.3973H21.2536L25 2.65649V0.753418H0ZM19.8423 10.3425H5.82192V2.8082H22.7401L19.8423 10.3425Z" fill="#271B14"/>
<path d="M7.87671 16.5068C7.12139 16.5068 6.50684 17.1213 6.50684 17.8767C6.50684 18.6321 7.12134 19.2466 7.87671 19.2466C8.63208 19.2466 9.24658 18.6321 9.24658 17.8767C9.24658 17.1213 8.63203 16.5068 7.87671 16.5068Z" fill="#271B14"/>
<path d="M18.1507 16.5068C17.3954 16.5068 16.7808 17.1213 16.7808 17.8767C16.7808 18.6321 17.3953 19.2466 18.1507 19.2466C18.906 19.2466 19.5206 18.6321 19.5206 17.8767C19.5206 17.1213 18.906 16.5068 18.1507 16.5068Z" fill="#271B14"/>
</svg>
