<svg width="26" height="20" viewBox="0 0 26 20" fill="none" xmlns="http://www.w3.org/2000/svg">
<path d="M0.5 0.753418V2.8082H4.26714V13.4247C4.26714 15.1242 5.6498 16.5068 7.34932 16.5068H8.37671H18.6507H21.7329V14.4521H7.34932C6.78281 14.4521 6.32192 13.9912 6.32192 13.4247V12.3973H21.7536L25.5 2.65649V0.753418H0.5ZM20.3423 10.3425H6.32192V2.8082H23.2401L20.3423 10.3425Z" fill="#271B14"/>
<path d="M8.37671 16.5068C7.62139 16.5068 7.00684 17.1213 7.00684 17.8767C7.00684 18.6321 7.62134 19.2466 8.37671 19.2466C9.13208 19.2466 9.74658 18.6321 9.74658 17.8767C9.74658 17.1213 9.13203 16.5068 8.37671 16.5068Z" fill="#271B14"/>
<path d="M18.6507 16.5068C17.8954 16.5068 17.2808 17.1213 17.2808 17.8767C17.2808 18.6321 17.8953 19.2466 18.6507 19.2466C19.406 19.2466 20.0206 18.6321 20.0206 17.8767C20.0206 17.1213 19.406 16.5068 18.6507 16.5068Z" fill="#271B14"/>
</svg>
