<svg width="21" height="16" viewBox="0 0 21 16" fill="none" xmlns="http://www.w3.org/2000/svg">
<path d="M0.666504 0.931519V2.57535H3.68021V11.0685C3.68021 12.4281 4.78635 13.5343 6.14596 13.5343H6.96787H15.1871H17.6528V11.8904H6.14596C5.69275 11.8904 5.32404 11.5217 5.32404 11.0685V10.2466H17.6694L20.6665 2.45398V0.931519H0.666504ZM16.5404 8.60277H5.32404V2.57535H18.8586L16.5404 8.60277Z" fill="#3C291E"/>
<path d="M6.96787 13.5343C6.36361 13.5343 5.87197 14.0259 5.87197 14.6302C5.87197 15.2344 6.36357 15.726 6.96787 15.726C7.57217 15.726 8.06377 15.2344 8.06377 14.6302C8.06377 14.0259 7.57213 13.5343 6.96787 13.5343Z" fill="#3C291E"/>
<path d="M15.1871 13.5343C14.5828 13.5343 14.0912 14.0259 14.0912 14.6302C14.0912 15.2344 14.5828 15.726 15.1871 15.726C15.7913 15.726 16.2829 15.2344 16.2829 14.6302C16.2829 14.0259 15.7913 13.5343 15.1871 13.5343Z" fill="#3C291E"/>
</svg>
