<svg width="21" height="16" viewBox="0 0 21 16" fill="none" xmlns="http://www.w3.org/2000/svg">
<path d="M0.666504 0.534851V2.17868H3.68021V10.6718C3.68021 12.0315 4.78635 13.1376 6.14596 13.1376H6.96787H15.1871H17.6528V11.4938H6.14596C5.69275 11.4938 5.32404 11.125 5.32404 10.6718V9.84993H17.6694L20.6665 2.05731V0.534851H0.666504ZM16.5404 8.2061H5.32404V2.17868H18.8586L16.5404 8.2061Z" fill="#3C291E"/>
<path d="M6.96787 13.1376C6.36361 13.1376 5.87197 13.6292 5.87197 14.2335C5.87197 14.8378 6.36357 15.3294 6.96787 15.3294C7.57217 15.3294 8.06377 14.8378 8.06377 14.2335C8.06377 13.6292 7.57213 13.1376 6.96787 13.1376Z" fill="#3C291E"/>
<path d="M15.1871 13.1376C14.5828 13.1376 14.0912 13.6292 14.0912 14.2335C14.0912 14.8378 14.5828 15.3294 15.1871 15.3294C15.7913 15.3294 16.2829 14.8378 16.2829 14.2335C16.2829 13.6292 15.7913 13.1376 15.1871 13.1376Z" fill="#3C291E"/>
</svg>
