<svg width="42" height="11" viewBox="0 0 42 11" fill="none" xmlns="http://www.w3.org/2000/svg">
<path d="M4.73828 1.40234L7.95215 3.33105C8.00775 3.36684 8.05289 3.39602 8.0918 3.42188C8.09584 3.42456 8.09974 3.42716 8.10352 3.42969C8.10436 3.46087 8.10569 3.497 8.10645 3.54102V7.41211C8.10534 7.52928 8.10098 7.60737 8.09863 7.66406C8.05356 7.69382 7.9915 7.7357 7.89648 7.79492L4.88379 9.56934H4.87988L4.69727 9.67871C4.61937 9.72538 4.5724 9.73056 4.54688 9.73047C4.53338 9.7304 4.5129 9.72906 4.48438 9.7207L4.37109 9.66992L1.17871 7.78223C1.08846 7.72561 1.02886 7.68466 0.984375 7.65527L0.977539 7.4375V3.5918C0.978464 3.52045 0.978103 3.46508 0.979492 3.41797C0.980633 3.41724 0.982232 3.41676 0.983398 3.41602C1.02435 3.38981 1.07206 3.35918 1.13379 3.32129L1.13477 3.32227L4.34863 1.41113C4.44116 1.3601 4.50575 1.32707 4.55273 1.30273C4.59611 1.32566 4.65539 1.35573 4.73828 1.40234Z" stroke="#3C291E" stroke-width="1.53846"/>
<path opacity="0.3" d="M21.0981 1.40234L24.312 3.33105C24.3676 3.36684 24.4127 3.39602 24.4517 3.42188C24.4557 3.42456 24.4596 3.42716 24.4634 3.42969C24.4642 3.46087 24.4656 3.497 24.4663 3.54102V7.41211C24.4652 7.52928 24.4608 7.60737 24.4585 7.66406C24.4134 7.69382 24.3514 7.7357 24.2563 7.79492L21.2437 9.56934H21.2397L21.0571 9.67871C20.9792 9.72538 20.9323 9.73056 20.9067 9.73047C20.8932 9.7304 20.8728 9.72906 20.8442 9.7207L20.731 9.66992L17.5386 7.78223C17.4483 7.72561 17.3887 7.68466 17.3442 7.65527L17.3374 7.4375V3.5918C17.3383 3.52045 17.338 3.46508 17.3394 3.41797C17.3405 3.41724 17.3421 3.41676 17.3433 3.41602C17.3842 3.38981 17.4319 3.35918 17.4937 3.32129L17.4946 3.32227L20.7085 1.41113C20.801 1.3601 20.8656 1.32707 20.9126 1.30273C20.956 1.32566 21.0153 1.35573 21.0981 1.40234Z" stroke="#3C291E" stroke-width="1.53846"/>
<path opacity="0.3" d="M37.4585 1.40234L40.6724 3.33105C40.728 3.36684 40.7731 3.39602 40.812 3.42188C40.8161 3.42456 40.82 3.42716 40.8237 3.42969C40.8246 3.46087 40.8259 3.497 40.8267 3.54102V7.41211C40.8255 7.52928 40.8212 7.60737 40.8188 7.66406C40.7738 7.69382 40.7117 7.7357 40.6167 7.79492L37.604 9.56934H37.6001L37.4175 9.67871C37.3396 9.72538 37.2926 9.73056 37.2671 9.73047C37.2536 9.7304 37.2331 9.72906 37.2046 9.7207L37.0913 9.66992L33.8989 7.78223C33.8087 7.72561 33.7491 7.68466 33.7046 7.65527L33.6978 7.4375V3.5918C33.6987 3.52045 33.6983 3.46508 33.6997 3.41797C33.7008 3.41724 33.7024 3.41676 33.7036 3.41602C33.7446 3.38981 33.7923 3.35918 33.854 3.32129L33.855 3.32227L37.0688 1.41113C37.1614 1.3601 37.226 1.32707 37.2729 1.30273C37.3163 1.32566 37.3756 1.35573 37.4585 1.40234Z" stroke="#3C291E" stroke-width="1.53846"/>
</svg>
