<svg width="20" height="20" viewBox="0 0 20 20" fill="none" xmlns="http://www.w3.org/2000/svg">
<path d="M10 2.51462C11.345 2.51462 12.5146 3.62573 12.5146 5.02924C12.5146 6.37427 11.345 7.48538 10 7.48538C8.65497 7.48538 7.48538 6.37427 7.48538 5.02924C7.48538 3.62573 8.65497 2.51462 10 2.51462ZM10 13.7427C13.3918 13.7427 17.2515 15.3801 17.4854 16.2573V17.4854H2.51462V16.2573C2.74854 15.3801 6.60819 13.7427 10 13.7427ZM10 0C7.25146 0 5.02924 2.2807 5.02924 5.02924C5.02924 7.77778 7.25146 10 10 10C12.7485 10 14.9708 7.77778 14.9708 5.02924C14.9708 2.2807 12.7485 0 10 0ZM10 11.2281C6.66667 11.2281 0 12.924 0 16.2573V20H20V16.2573C20 12.924 13.3333 11.2281 10 11.2281Z" fill="#111111"/>
</svg>
